<?xml version="1.0" encoding="UTF-8" standalone="no"?>
<!-- Created with Inkscape (http://www.inkscape.org/) -->

<svg
   xmlns:dc="http://purl.org/dc/elements/1.1/"
   xmlns:cc="http://creativecommons.org/ns#"
   xmlns:rdf="http://www.w3.org/1999/02/22-rdf-syntax-ns#"
   xmlns:svg="http://www.w3.org/2000/svg"
   xmlns="http://www.w3.org/2000/svg"
   xmlns:xlink="http://www.w3.org/1999/xlink"
   xmlns:sodipodi="http://sodipodi.sourceforge.net/DTD/sodipodi-0.dtd"
   xmlns:inkscape="http://www.inkscape.org/namespaces/inkscape"
   width="1000"
   height="1000"
   viewBox="0 0 999.99998 999.99995"
   id="svg2"
   version="1.1"
   inkscape:version="0.91 r13725"
   sodipodi:docname="minilogo.svg"
   inkscape:export-filename="/ws/JXobjC/doc/res/minilogo.png"
   inkscape:export-xdpi="15.84"
   inkscape:export-ydpi="15.84">
  <defs
     id="defs4">
    <linearGradient
       id="linearGradient4213"
       inkscape:collect="always">
      <stop
         id="stop4223"
         offset="0"
         style="stop-color:#008cc4;stop-opacity:1" />
      <stop
         id="stop4225"
         offset="1"
         style="stop-color:#2e1380;stop-opacity:1" />
    </linearGradient>
    <radialGradient
       inkscape:collect="always"
       xlink:href="#linearGradient4213"
       id="radialGradient4192"
       cx="128.5"
       cy="1032.3621"
       fx="128.5"
       fy="1032.3621"
       r="128.5"
       gradientTransform="matrix(1,0,0,0.18677103,0,839.54674)"
       gradientUnits="userSpaceOnUse" />
    <radialGradient
       inkscape:collect="always"
       xlink:href="#linearGradient4213"
       id="radialGradient4200"
       cx="128.5"
       cy="1032.3621"
       fx="128.5"
       fy="1032.3621"
       r="128.5"
       gradientTransform="matrix(1,0,0,0.18677103,0,839.54674)"
       gradientUnits="userSpaceOnUse" />
    <radialGradient
       inkscape:collect="always"
       xlink:href="#linearGradient4213"
       id="radialGradient4208"
       cx="128.5"
       cy="1032.3621"
       fx="128.5"
       fy="1032.3621"
       r="128.5"
       gradientTransform="matrix(1,0,0,0.18677103,0,839.54674)"
       gradientUnits="userSpaceOnUse" />
    <radialGradient
       inkscape:collect="always"
       xlink:href="#linearGradient4213"
       id="radialGradient4216"
       cx="128.5"
       cy="1032.3621"
       fx="128.5"
       fy="1032.3621"
       r="128.5"
       gradientTransform="matrix(1,0,0,0.18677103,0,839.54674)"
       gradientUnits="userSpaceOnUse" />
    <radialGradient
       inkscape:collect="always"
       xlink:href="#linearGradient4213"
       id="radialGradient4224"
       cx="128.5"
       cy="1032.3621"
       fx="128.5"
       fy="1032.3621"
       r="128.5"
       gradientTransform="matrix(1,0,0,0.18677103,0,839.54674)"
       gradientUnits="userSpaceOnUse" />
    <radialGradient
       inkscape:collect="always"
       xlink:href="#linearGradient4213"
       id="radialGradient4232"
       cx="128.5"
       cy="1032.3621"
       fx="128.5"
       fy="1032.3621"
       r="128.5"
       gradientTransform="matrix(1,0,0,0.18677103,0,839.54674)"
       gradientUnits="userSpaceOnUse" />
    <radialGradient
       inkscape:collect="always"
       xlink:href="#linearGradient4213"
       id="radialGradient4240"
       cx="128.5"
       cy="1032.3621"
       fx="128.5"
       fy="1032.3621"
       r="128.5"
       gradientTransform="matrix(1,0,0,0.18677103,0,839.54674)"
       gradientUnits="userSpaceOnUse" />
    <radialGradient
       inkscape:collect="always"
       xlink:href="#linearGradient4213"
       id="radialGradient4248"
       cx="128.5"
       cy="1032.3621"
       fx="128.5"
       fy="1032.3621"
       r="128.5"
       gradientTransform="matrix(1,0,0,0.18677103,0,839.54674)"
       gradientUnits="userSpaceOnUse" />
    <radialGradient
       inkscape:collect="always"
       xlink:href="#linearGradient4213"
       id="radialGradient4256"
       cx="128.5"
       cy="1032.3621"
       fx="128.5"
       fy="1032.3621"
       r="128.5"
       gradientTransform="matrix(1,0,0,0.18677103,0,839.54674)"
       gradientUnits="userSpaceOnUse" />
    <radialGradient
       inkscape:collect="always"
       xlink:href="#linearGradient4213"
       id="radialGradient4264"
       cx="128.5"
       cy="1032.3621"
       fx="128.5"
       fy="1032.3621"
       r="128.5"
       gradientTransform="matrix(1,0,0,0.18677103,0,839.54674)"
       gradientUnits="userSpaceOnUse" />
    <radialGradient
       inkscape:collect="always"
       xlink:href="#linearGradient4213"
       id="radialGradient4272"
       cx="128.5"
       cy="1032.3621"
       fx="128.5"
       fy="1032.3621"
       r="128.5"
       gradientTransform="matrix(1,0,0,0.18677103,0,839.54674)"
       gradientUnits="userSpaceOnUse" />
    <radialGradient
       inkscape:collect="always"
       xlink:href="#linearGradient4213"
       id="radialGradient4280"
       cx="128.5"
       cy="1032.3621"
       fx="128.5"
       fy="1032.3621"
       r="128.5"
       gradientTransform="matrix(1,0,0,0.18677103,0,839.54674)"
       gradientUnits="userSpaceOnUse" />
    <radialGradient
       inkscape:collect="always"
       xlink:href="#linearGradient4213"
       id="radialGradient4288"
       cx="128.5"
       cy="1032.3621"
       fx="128.5"
       fy="1032.3621"
       r="128.5"
       gradientTransform="matrix(1,0,0,0.18677103,0,839.54674)"
       gradientUnits="userSpaceOnUse" />
  </defs>
  <sodipodi:namedview
     id="base"
     pagecolor="#ffffff"
     bordercolor="#666666"
     borderopacity="1.0"
     inkscape:pageopacity="0.0"
     inkscape:pageshadow="2"
     inkscape:zoom="0.13330895"
     inkscape:cx="-197.30634"
     inkscape:cy="713.19078"
     inkscape:document-units="px"
     inkscape:current-layer="layer1"
     showgrid="false"
     units="px"
     inkscape:snap-bbox="true"
     inkscape:bbox-paths="true"
     inkscape:bbox-nodes="true"
     inkscape:snap-center="true"
     inkscape:window-width="1920"
     inkscape:window-height="994"
     inkscape:window-x="-4"
     inkscape:window-y="20"
     inkscape:window-maximized="1">
    <inkscape:grid
       type="xygrid"
       id="grid4136"
       spacingx="24.999999"
       spacingy="24.999999" />
  </sodipodi:namedview>
  <metadata
     id="metadata7">
    <rdf:RDF>
      <cc:Work
         rdf:about="">
        <dc:format>image/svg+xml</dc:format>
        <dc:type
           rdf:resource="http://purl.org/dc/dcmitype/StillImage" />
        <dc:title></dc:title>
      </cc:Work>
    </rdf:RDF>
  </metadata>
  <g
     inkscape:label="Layer 1"
     inkscape:groupmode="layer"
     id="layer1"
     transform="translate(0,-52.362279)">
    <g
       id="g4176"
       style="fill:#000080"
       transform="translate(-40.000002,-8.3437862e-7)">
      <g
         inkscape:export-ydpi="56.25"
         inkscape:export-xdpi="56.25"
         id="g4245"
         transform="matrix(7.03125,0,0,-7.03125,-444.37496,-291.38772)"
         style="fill:#000080">
        <g
           style="fill:#000080;fill-opacity:1"
           inkscape:export-ydpi="62.67791"
           inkscape:export-xdpi="62.67791"
           transform="matrix(-0.10858339,-0.56506928,0.56506928,-0.10858339,110.75215,-77.056797)"
           id="g4247">
          <g
             style="fill:#000080;fill-opacity:1"
             inkscape:export-ydpi="51.923077"
             inkscape:export-xdpi="51.923077"
             id="g4249"
             transform="translate(-1.3349245,0.204632)">
            <path
               inkscape:connector-curvature="0"
               style="fill:#000080;fill-opacity:1;fill-rule:nonzero;stroke:none"
               id="path4251"
               d="m 77.366845,131.32135 c -6.742552,5.77441 -7.43122,14.47345 -7.43122,14.47345 -0.256397,1.08048 -0.400467,8.14576 -0.400467,8.14576 0.118174,8.08246 -3.864061,12.13952 -3.864061,12.13952 -4.584351,5.84066 -11.885906,8.8143 -11.885906,8.8143 0.317195,-0.0807 3.633642,-3.54697 3.636535,-3.54986 7.785579,-8.34459 0.619496,-18.10403 0.619496,-18.10403 -1.777885,-2.6941 -4.155013,-8.30428 -4.155013,-8.30428 -3.051493,-7.36203 0.677096,-13.09031 1.241844,-13.87983 7.356303,1.22461 14.856675,1.30816 22.238894,0.2651" />
            <path
               inkscape:connector-curvature="0"
               style="fill:#000080;fill-opacity:1;fill-rule:nonzero;stroke:none"
               id="path4253"
               d="m 52.6993,-3.730714 c 6.74256,-5.77441 7.43122,-14.47345 7.43122,-14.47345 0.2564,-1.08048 0.40047,-8.14576 0.40047,-8.14576 -0.11817,-8.08246 3.86406,-12.13952 3.86406,-12.13952 4.584353,-5.84066 11.885908,-8.8143 11.885908,-8.8143 -0.317195,0.0807 -3.633642,3.54697 -3.636535,3.54986 -7.785583,8.34459 -0.619496,18.10403 -0.619496,18.10403 1.777885,2.6941 4.155013,8.30428 4.155013,8.30428 3.051493,7.36203 -0.677096,13.09031 -1.241844,13.87983 -7.356306,-1.22461 -14.856676,-1.30816 -22.238896,-0.2651" />
          </g>
          <g
             style="fill:#000080;fill-opacity:1"
             inkscape:export-ydpi="51.923077"
             inkscape:export-xdpi="51.923077"
             transform="matrix(0.92387953,-0.38268343,0.38268343,0.92387953,-20.797988,29.947842)"
             id="g4255">
            <path
               d="m 77.366845,131.32135 c -6.742552,5.77441 -7.43122,14.47345 -7.43122,14.47345 -0.256397,1.08048 -0.400467,8.14576 -0.400467,8.14576 0.118174,8.08246 -3.864061,12.13952 -3.864061,12.13952 -4.584351,5.84066 -11.885906,8.8143 -11.885906,8.8143 0.317195,-0.0807 3.633642,-3.54697 3.636535,-3.54986 7.785579,-8.34459 0.619496,-18.10403 0.619496,-18.10403 -1.777885,-2.6941 -4.155013,-8.30428 -4.155013,-8.30428 -3.051493,-7.36203 0.677096,-13.09031 1.241844,-13.87983 7.356303,1.22461 14.856675,1.30816 22.238894,0.2651"
               id="path4257"
               style="fill:#000080;fill-opacity:1;fill-rule:nonzero;stroke:none"
               inkscape:connector-curvature="0" />
            <path
               d="m 52.6993,-3.730714 c 6.74256,-5.77441 7.43122,-14.47345 7.43122,-14.47345 0.2564,-1.08048 0.40047,-8.14576 0.40047,-8.14576 -0.11817,-8.08246 3.86406,-12.13952 3.86406,-12.13952 4.584353,-5.84066 11.885908,-8.8143 11.885908,-8.8143 -0.317195,0.0807 -3.633642,3.54697 -3.636535,3.54986 -7.785583,8.34459 -0.619496,18.10403 -0.619496,18.10403 1.777885,2.6941 4.155013,8.30428 4.155013,8.30428 3.051493,7.36203 -0.677096,13.09031 -1.241844,13.87983 -7.356306,-1.22461 -14.856676,-1.30816 -22.238896,-0.2651"
               id="path4259"
               style="fill:#000080;fill-opacity:1;fill-rule:nonzero;stroke:none"
               inkscape:connector-curvature="0" />
          </g>
          <g
             style="fill:#000080;fill-opacity:1"
             inkscape:export-ydpi="51.923077"
             inkscape:export-xdpi="51.923077"
             id="g4261"
             transform="matrix(0.70710678,-0.70710678,0.70710678,0.70710678,-27.39728,64.875176)">
            <path
               inkscape:connector-curvature="0"
               style="fill:#000080;fill-opacity:1;fill-rule:nonzero;stroke:none"
               id="path4263"
               d="m 77.366845,131.32135 c -6.742552,5.77441 -7.43122,14.47345 -7.43122,14.47345 -0.256397,1.08048 -0.400467,8.14576 -0.400467,8.14576 0.118174,8.08246 -3.864061,12.13952 -3.864061,12.13952 -4.584351,5.84066 -11.885906,8.8143 -11.885906,8.8143 0.317195,-0.0807 3.633642,-3.54697 3.636535,-3.54986 7.785579,-8.34459 0.619496,-18.10403 0.619496,-18.10403 -1.777885,-2.6941 -4.155013,-8.30428 -4.155013,-8.30428 -3.051493,-7.36203 0.677096,-13.09031 1.241844,-13.87983 7.356303,1.22461 14.856675,1.30816 22.238894,0.2651" />
            <path
               inkscape:connector-curvature="0"
               style="fill:#000080;fill-opacity:1;fill-rule:nonzero;stroke:none"
               id="path4265"
               d="m 52.6993,-3.730714 c 6.74256,-5.77441 7.43122,-14.47345 7.43122,-14.47345 0.2564,-1.08048 0.40047,-8.14576 0.40047,-8.14576 -0.11817,-8.08246 3.86406,-12.13952 3.86406,-12.13952 4.584353,-5.84066 11.885908,-8.8143 11.885908,-8.8143 -0.317195,0.0807 -3.633642,3.54697 -3.636535,3.54986 -7.785583,8.34459 -0.619496,18.10403 -0.619496,18.10403 1.777885,2.6941 4.155013,8.30428 4.155013,8.30428 3.051493,7.36203 -0.677096,13.09031 -1.241844,13.87983 -7.356306,-1.22461 -14.856676,-1.30816 -22.238896,-0.2651" />
          </g>
          <g
             style="fill:#000080;fill-opacity:1"
             transform="matrix(0.38268343,-0.92387953,0.92387953,0.38268343,-20.128119,99.669265)"
             id="g4267">
            <path
               inkscape:export-ydpi="51.923077"
               inkscape:export-xdpi="51.923077"
               d="m 77.366845,131.32135 c -6.742552,5.77441 -7.43122,14.47345 -7.43122,14.47345 -0.256397,1.08048 -0.400467,8.14576 -0.400467,8.14576 0.118174,8.08246 -3.864061,12.13952 -3.864061,12.13952 -4.584351,5.84066 -11.885906,8.8143 -11.885906,8.8143 0.317195,-0.0807 3.633642,-3.54697 3.636535,-3.54986 7.785579,-8.34459 0.619496,-18.10403 0.619496,-18.10403 -1.777885,-2.6941 -4.155013,-8.30428 -4.155013,-8.30428 -3.051493,-7.36203 0.677096,-13.09031 1.241844,-13.87983 7.356303,1.22461 14.856675,1.30816 22.238894,0.2651"
               id="path4269"
               style="fill:#000080;fill-opacity:1;fill-rule:nonzero;stroke:none"
               inkscape:connector-curvature="0" />
            <path
               inkscape:export-ydpi="51.923077"
               inkscape:export-xdpi="51.923077"
               d="m 52.6993,-3.730714 c 6.74256,-5.77441 7.43122,-14.47345 7.43122,-14.47345 0.2564,-1.08048 0.40047,-8.14576 0.40047,-8.14576 -0.11817,-8.08246 3.86406,-12.13952 3.86406,-12.13952 4.584353,-5.84066 11.885908,-8.8143 11.885908,-8.8143 -0.317195,0.0807 -3.633642,3.54697 -3.636535,3.54986 -7.785583,8.34459 -0.619496,18.10403 -0.619496,18.10403 1.777885,2.6941 4.155013,8.30428 4.155013,8.30428 3.051493,7.36203 -0.677096,13.09031 -1.241844,13.87983 -7.356306,-1.22461 -14.856676,-1.30816 -22.238896,-0.2651"
               id="path4271"
               style="fill:#000080;fill-opacity:1;fill-rule:nonzero;stroke:none"
               inkscape:connector-curvature="0" />
          </g>
          <g
             style="fill:#000080;fill-opacity:1"
             inkscape:export-ydpi="51.923077"
             inkscape:export-xdpi="51.923077"
             id="g4273"
             transform="matrix(0,-1,1,0,-0.09716829,129.03302)">
            <path
               inkscape:connector-curvature="0"
               style="fill:#000080;fill-opacity:1;fill-rule:nonzero;stroke:none"
               id="path4275"
               d="m 77.366845,131.32135 c -6.742552,5.77441 -7.43122,14.47345 -7.43122,14.47345 -0.256397,1.08048 -0.400467,8.14576 -0.400467,8.14576 0.118174,8.08246 -3.864061,12.13952 -3.864061,12.13952 -4.584351,5.84066 -11.885906,8.8143 -11.885906,8.8143 0.317195,-0.0807 3.633642,-3.54697 3.636535,-3.54986 7.785579,-8.34459 0.619496,-18.10403 0.619496,-18.10403 -1.777885,-2.6941 -4.155013,-8.30428 -4.155013,-8.30428 -3.051493,-7.36203 0.677096,-13.09031 1.241844,-13.87983 7.356303,1.22461 14.856675,1.30816 22.238894,0.2651" />
            <path
               inkscape:connector-curvature="0"
               style="fill:#000080;fill-opacity:1;fill-rule:nonzero;stroke:none"
               id="path4277"
               d="m 52.6993,-3.730714 c 6.74256,-5.77441 7.43122,-14.47345 7.43122,-14.47345 0.2564,-1.08048 0.40047,-8.14576 0.40047,-8.14576 -0.11817,-8.08246 3.86406,-12.13952 3.86406,-12.13952 4.584353,-5.84066 11.885908,-8.8143 11.885908,-8.8143 -0.317195,0.0807 -3.633642,3.54697 -3.636535,3.54986 -7.785583,8.34459 -0.619496,18.10403 -0.619496,18.10403 1.777885,2.6941 4.155013,8.30428 4.155013,8.30428 3.051493,7.36203 -0.677096,13.09031 -1.241844,13.87983 -7.356306,-1.22461 -14.856676,-1.30816 -22.238896,-0.2651" />
          </g>
          <g
             style="fill:#000080;fill-opacity:1"
             inkscape:export-ydpi="51.923077"
             inkscape:export-xdpi="51.923077"
             transform="matrix(-0.38268343,-0.92387953,0.92387953,-0.38268343,29.646041,148.49608)"
             id="g4279">
            <path
               d="m 77.366845,131.32135 c -6.742552,5.77441 -7.43122,14.47345 -7.43122,14.47345 -0.256397,1.08048 -0.400467,8.14576 -0.400467,8.14576 0.118174,8.08246 -3.864061,12.13952 -3.864061,12.13952 -4.584351,5.84066 -11.885906,8.8143 -11.885906,8.8143 0.317195,-0.0807 3.633642,-3.54697 3.636535,-3.54986 7.785579,-8.34459 0.619496,-18.10403 0.619496,-18.10403 -1.777885,-2.6941 -4.155013,-8.30428 -4.155013,-8.30428 -3.051493,-7.36203 0.677096,-13.09031 1.241844,-13.87983 7.356303,1.22461 14.856675,1.30816 22.238894,0.2651"
               id="path4281"
               style="fill:#000080;fill-opacity:1;fill-rule:nonzero;stroke:none"
               inkscape:connector-curvature="0" />
            <path
               d="m 52.6993,-3.730714 c 6.74256,-5.77441 7.43122,-14.47345 7.43122,-14.47345 0.2564,-1.08048 0.40047,-8.14576 0.40047,-8.14576 -0.11817,-8.08246 3.86406,-12.13952 3.86406,-12.13952 4.584353,-5.84066 11.885908,-8.8143 11.885908,-8.8143 -0.317195,0.0807 -3.633642,3.54697 -3.636535,3.54986 -7.785583,8.34459 -0.619496,18.10403 -0.619496,18.10403 1.777885,2.6941 4.155013,8.30428 4.155013,8.30428 3.051493,7.36203 -0.677096,13.09031 -1.241844,13.87983 -7.356306,-1.22461 -14.856676,-1.30816 -22.238896,-0.2651"
               id="path4283"
               style="fill:#000080;fill-opacity:1;fill-rule:nonzero;stroke:none"
               inkscape:connector-curvature="0" />
          </g>
          <g
             style="fill:#000080;fill-opacity:1"
             inkscape:export-ydpi="51.923077"
             inkscape:export-xdpi="51.923077"
             id="g4285"
             transform="matrix(-0.70710678,-0.70710678,0.70710678,-0.70710678,64.573375,155.09537)">
            <path
               inkscape:connector-curvature="0"
               style="fill:#000080;fill-opacity:1;fill-rule:nonzero;stroke:none"
               id="path4287"
               d="m 77.366845,131.32135 c -6.742552,5.77441 -7.43122,14.47345 -7.43122,14.47345 -0.256397,1.08048 -0.400467,8.14576 -0.400467,8.14576 0.118174,8.08246 -3.864061,12.13952 -3.864061,12.13952 -4.584351,5.84066 -11.885906,8.8143 -11.885906,8.8143 0.317195,-0.0807 3.633642,-3.54697 3.636535,-3.54986 7.785579,-8.34459 0.619496,-18.10403 0.619496,-18.10403 -1.777885,-2.6941 -4.155013,-8.30428 -4.155013,-8.30428 -3.051493,-7.36203 0.677096,-13.09031 1.241844,-13.87983 7.356303,1.22461 14.856675,1.30816 22.238894,0.2651" />
            <path
               inkscape:connector-curvature="0"
               style="fill:#000080;fill-opacity:1;fill-rule:nonzero;stroke:none"
               id="path4289"
               d="m 52.6993,-3.730714 c 6.74256,-5.77441 7.43122,-14.47345 7.43122,-14.47345 0.2564,-1.08048 0.40047,-8.14576 0.40047,-8.14576 -0.11817,-8.08246 3.86406,-12.13952 3.86406,-12.13952 4.584353,-5.84066 11.885908,-8.8143 11.885908,-8.8143 -0.317195,0.0807 -3.633642,3.54697 -3.636535,3.54986 -7.785583,8.34459 -0.619496,18.10403 -0.619496,18.10403 1.777885,2.6941 4.155013,8.30428 4.155013,8.30428 3.051493,7.36203 -0.677096,13.09031 -1.241844,13.87983 -7.356306,-1.22461 -14.856676,-1.30816 -22.238896,-0.2651" />
          </g>
          <g
             style="fill:#000080;fill-opacity:1"
             inkscape:export-ydpi="51.923077"
             inkscape:export-xdpi="51.923077"
             transform="matrix(-0.92387953,-0.38268343,0.38268343,-0.92387953,99.367464,147.82621)"
             id="g4291">
            <path
               d="m 77.366845,131.32135 c -6.742552,5.77441 -7.43122,14.47345 -7.43122,14.47345 -0.256397,1.08048 -0.400467,8.14576 -0.400467,8.14576 0.118174,8.08246 -3.864061,12.13952 -3.864061,12.13952 -4.584351,5.84066 -11.885906,8.8143 -11.885906,8.8143 0.317195,-0.0807 3.633642,-3.54697 3.636535,-3.54986 7.785579,-8.34459 0.619496,-18.10403 0.619496,-18.10403 -1.777885,-2.6941 -4.155013,-8.30428 -4.155013,-8.30428 -3.051493,-7.36203 0.677096,-13.09031 1.241844,-13.87983 7.356303,1.22461 14.856675,1.30816 22.238894,0.2651"
               id="path4293"
               style="fill:#000080;fill-opacity:1;fill-rule:nonzero;stroke:none"
               inkscape:connector-curvature="0" />
            <path
               d="m 52.6993,-3.730714 c 6.74256,-5.77441 7.43122,-14.47345 7.43122,-14.47345 0.2564,-1.08048 0.40047,-8.14576 0.40047,-8.14576 -0.11817,-8.08246 3.86406,-12.13952 3.86406,-12.13952 4.584353,-5.84066 11.885908,-8.8143 11.885908,-8.8143 -0.317195,0.0807 -3.633642,3.54697 -3.636535,3.54986 -7.785583,8.34459 -0.619496,18.10403 -0.619496,18.10403 1.777885,2.6941 4.155013,8.30428 4.155013,8.30428 3.051493,7.36203 -0.677096,13.09031 -1.241844,13.87983 -7.356306,-1.22461 -14.856676,-1.30816 -22.238896,-0.2651"
               id="path4295"
               style="fill:#000080;fill-opacity:1;fill-rule:nonzero;stroke:none"
               inkscape:connector-curvature="0" />
          </g>
        </g>
      </g>
      <circle
         r="247.5"
         cy="552.36224"
         cx="540.00012"
         id="path4252"
         style="color:#000000;clip-rule:nonzero;display:inline;overflow:visible;visibility:visible;opacity:1;isolation:auto;mix-blend-mode:normal;color-interpolation:sRGB;color-interpolation-filters:linearRGB;solid-color:#000000;solid-opacity:1;fill:#000080;fill-opacity:1;fill-rule:nonzero;stroke:none;stroke-width:0.2;stroke-linecap:butt;stroke-linejoin:miter;stroke-miterlimit:4;stroke-dasharray:none;stroke-dashoffset:0;stroke-opacity:1;color-rendering:auto;image-rendering:auto;shape-rendering:auto;text-rendering:auto;enable-background:accumulate" />
    </g>
    <g
       id="g4239"
       style="fill:#ffffff;fill-opacity:1"
       transform="matrix(0.32110529,0,0,0.32110529,-18.135905,374.7466)">
      <g
         style="fill:#ffffff;fill-opacity:1"
         id="g4169"
         transform="matrix(18.968871,0,0,18.968871,999.99998,-19010.635)">
        <path
           style="fill:#ffffff;fill-opacity:1"
           d="m 1166.3008,64.505859 c -34.3556,3.002773 -70.5362,8.504833 -100.7578,25.466797 -22.0782,12.386674 -69.76091,26.124074 -65.2442,50.599614 29.3833,-18.0375 60.9233,-31.02443 95.4532,-37.51368 42.4663,-13.551354 87.5711,11.73937 127.8476,23.04102 28.2496,10.06488 47.8964,29.43526 75.6113,42.79883 23.3084,21.41965 55.2236,31.01389 81.4082,43.20898 11.3355,30.62524 3.0743,63.2935 14.75,91.17774 8.028,38.70218 10.4318,79.47154 3.7657,118.5 -4.8172,21.80282 -31.3649,35.59244 -47.0157,51.29296 -4.0103,4.0233 -7.3051,8.17457 -9.3359,12.61329 -1.2929,2.83015 -8.8433,7.87104 -7.8144,12.54687 1.1249,5.11022 10.9667,9.89508 12.5781,13.73438 18.1599,24.60452 51.7235,56.58542 10.6054,80.41601 -10.6706,5.31318 -13.4146,14.44108 -19.7734,18.11914 0,0 -9.8185,10.88456 -9.7559,16.08203 0.055,4.69859 8.5654,8.56852 11.7012,12.65821 6.2706,8.17937 17.7075,14.8598 30.3555,18.89257 11.7403,32.57145 28.8614,64.22828 29.3808,99.26758 7.569,32.85978 6.6852,65.56834 -0.3027,98.375 -15.5678,30.8377 -37.9026,49.7459 -77.6172,49.14649 -32.6661,0.18969 -45.5531,0.45504 -78.084,-18.7168 -26.433,-16.04956 -53.688,-30.99364 -74.8945,-53.44141 -18.738,-25.53399 -38.4228,-56.76569 -36.8613,-92.67187 5.6166,-37.20554 -15.4909,-34.42951 -38.459,-17.82227 -30.6381,28.16309 -18.096,75.65495 -0.3281,107.23243 17.9471,30.61955 47.4793,53.68219 72.2031,76.56054 27.6736,11.21061 58.0447,26.29946 86.3086,29.54883 57.8872,1.34679 117.7147,5.20295 173.8633,-9.95508 27.5811,-2.44698 52.3556,-32.80044 71.6621,-54.00195 17.7062,-34.32228 13.6896,-75.69776 26.8887,-111.48633 2.1963,-33.46867 12.9051,-65.13414 11.0546,-98.97461 1.2747,-85.68618 3.0798,-171.55313 -1.8437,-257.14258 -9.2911,-32.54299 2.3907,-71.85779 -2.5918,-107.11523 -9.0047,-32.15793 3.6069,-73.28065 -2.7168,-101.12695 10.5295,-36.92481 48.9177,-49.06813 73.2422,-74.6211 24.7552,-39.844108 -43.3223,7.86914 -43.3223,7.86914 0,0 -60.5803,36.34569 -94.166,47.01758 -34.2493,6.5215 -74.7431,-10.14167 -104.1133,-26.64648 -24.822,-18.83989 -50.1277,-33.43172 -74.5371,-53.000003 -29.2439,-17.686575 -61.8258,-21.965812 -94.2754,-30.826172 -8.2526,-0.910506 -16.5754,-1.196406 -24.8691,-1.101563 l 0,-0.002 z m 988.0508,79.451171 c -24.2737,7.74689 -45.3917,28.74621 -52.0039,57.01172 -8.1973,13.45462 -37.776,70.71208 -32.4024,23.7793 -1.1021,-24.99339 17.6984,-72.91999 -5.2773,-74.89844 -9.7231,32.64732 -12.3987,66.43816 -13.6895,100.51953 1.898,36.69718 -27.2237,58.63384 -44.1562,86.53516 -14.4882,28.47417 -53.0276,56.43939 -61.3028,8.14843 -20.0057,-23.18565 -30.4041,-53.28709 -54.9609,-72.98437 -18.6389,-23.94061 -42.4797,-46.09552 -53.6543,-75.27344 -12.1096,-15.01765 -17.0358,-56.49529 -40.3047,-23.99023 -26.7452,13.57412 -43.4196,39.59607 -63.9512,61.67773 -9.9692,7.53823 -25.6287,41.08078 -1.8945,21.47266 21.2565,-11.86124 46.7734,-64.05042 59.8613,-19.30664 10.6099,28.53866 33.3363,48.82508 49.9727,72.83398 21.7295,19.35584 27.7973,51.91247 48.8437,69.31641 18.3024,24.03925 46.6565,44.49065 36.6465,78.49805 7.8802,22.26944 5.848,79.72534 -27.9883,48.58984 -31.766,-13.75054 -53.458,24.4326 -76.9824,39.35351 -18.4996,12.84572 -48.9299,62.52361 -7.5215,30.57813 19.1451,-28.03599 48.1939,-34.42996 71.8086,-8.54883 22.4197,10.34562 52.3882,15.01059 54.3223,38.82031 9.4036,20.42189 -21.6024,53.82552 -20.375,81.9336 -4.5383,33.09309 -22.3532,58.60253 -41.1641,85.25 -21.3828,25.7142 -36.4543,57.54766 -61.3203,78.78711 -31.9058,20.4124 -65.1883,6.12341 -92.2051,-14.22071 -25.7344,-22.68297 -55.0695,-52.76424 -52.789,-89.87304 1.7195,-31.30623 -9.0693,-63.18984 8.8691,-91.66211 9.6415,-18.31445 42.8871,-48.08892 40.8262,-58.66407 -21.6266,25.58712 -50.4061,42.04518 -78.1524,59.24805 -23.4353,26.49951 -26.8288,62.43907 -20.2324,97.80274 0.3819,36.09586 14.214,71.6483 41.9141,94.96484 19.5262,23.55175 41.7939,33.39483 66.4062,47.63477 29.611,4.507 59.8685,-6.65587 83.5528,-21.79493 24.8588,-21.16167 57.1456,-34.33914 72.8652,-65.41015 11.1522,-30.64421 38.7907,-52.62144 50.1113,-83.85938 23.3525,-22.28463 32.4725,36.14744 50.1504,48.10352 18.461,30.80165 36.1953,59.18644 52.3379,91.10156 11.0268,22.01717 20.4781,33.95411 45.4961,37.28125 24.9508,-20.03113 37.3127,-50.87991 64.1348,-69.16211 15.0616,-21.67193 40.6929,-32.15641 54.1816,-56.27344 16.8838,-6.41527 20.3245,-38.03349 -1.289,-16.69922 -34.8606,24.69748 -59.3047,64.0144 -97.4082,83.2754 -31.1315,-11.77398 -37.5012,-50.73272 -53.2188,-74.91993 -18.0171,-31.91322 1.2788,-73.32246 -3.3223,-109.29882 0.8087,-33.07223 3.3071,-66.33388 9.5079,-98.74219 10.8862,-20.81075 61.1175,-48.49865 48.3105,-65.97656 -19.8935,-1.42267 -51.7169,52.7074 -49.4277,17.27734 -7.0646,-28.06634 -4.3649,-57.80537 -9.2305,-82.00586 5.1641,-23.34309 -6.924,-57.50009 12.8809,-81.28516 16.6691,-26.00252 -1.0736,-64.08072 22.2382,-90.7832 16.3741,-12.50618 29.0308,-48.97745 48.3203,-47.75586 16.5243,32.09533 63.0676,48.7437 53.0372,91.41797 0.8991,16.03439 -43.743,44.96833 -6.9278,41.92383 29.8583,-20.07665 33.3073,-60.79082 35.6856,-94.05274 35.3097,-19.45826 -6.9119,-44.81855 -21.9453,-55.43164 -15.2026,-11.08161 -25.3392,-40.6609 -35.8516,-48.32812 l -1.332,-1.92969 0,-0.006 z m -680.1172,68.68555 c 11.0066,28.2712 4.3823,63.20281 8.2636,94.02344 5.0004,42.14314 -8.133,83.54824 2.67,125.36132 2.989,99.22237 4.398,198.90018 -3.2852,297.90821 -7.6722,45.65997 -17.2774,90.93948 -25.6308,136.39648 2.4068,31.04066 -84.8121,43.52803 -43.004,9.22852 23.0048,-25.96459 24.1226,-62.63415 35.4903,-94.03711 9.5029,-36.88877 13.5187,-75.92973 16.4453,-113.15235 -10.0016,-45.38681 -1.2697,-92.77069 -9.7363,-138.52929 -2.0019,-62.83818 -3.661,-125.63931 -6.8379,-188.37696 -0.5497,-29.87976 7.8702,-63.52367 -5.4942,-87.70898 3.6622,-16.92972 15.5547,-33.29811 31.1192,-41.11328 z m 577.3633,100.59961 0,0.008 c -5.3718,28.73974 -18.3778,62.10041 -14.7129,94.60547 -0.8321,41.93258 -1.0939,84.28922 0.9609,125.92969 -19.8036,31.49022 -65.779,-9.25629 -57.2246,-39.37696 3.7601,-30.1624 -13.6801,-68.0757 0.1191,-93.55468 19.6142,-28.35088 42.5418,-55.01737 63.7227,-83.07422 l 2.7539,-2.69727 4.3809,-1.83984 z m -23.3946,262.70703 c 26.6199,24.57227 -3.8347,62.83091 2.4571,93.75586 -0.046,17.37169 1.8844,77.68787 -16.9102,35.93359 -13.2445,-29.75647 -39.703,-57.59032 -43.8965,-88.17383 9.6297,-29.91391 32.1182,-34.91066 58.3496,-41.51562 z"
           transform="matrix(0.05271795,0,0,0.05271795,-52.717949,1004.9621)"
           id="path4148"
           inkscape:connector-curvature="0" />
      </g>
    </g>
  </g>
</svg>
