<?xml version="1.0" encoding="UTF-8" standalone="no"?>
<!-- Created with Inkscape (http://www.inkscape.org/) -->

<svg
   xmlns:dc="http://purl.org/dc/elements/1.1/"
   xmlns:cc="http://creativecommons.org/ns#"
   xmlns:rdf="http://www.w3.org/1999/02/22-rdf-syntax-ns#"
   xmlns:svg="http://www.w3.org/2000/svg"
   xmlns="http://www.w3.org/2000/svg"
   xmlns:xlink="http://www.w3.org/1999/xlink"
   xmlns:sodipodi="http://sodipodi.sourceforge.net/DTD/sodipodi-0.dtd"
   xmlns:inkscape="http://www.inkscape.org/namespaces/inkscape"
   width="6000"
   height="1000"
   viewBox="0 0 5999.9999 999.99995"
   id="svg2"
   version="1.1"
   inkscape:version="0.91 r13725"
   sodipodi:docname="nlogotyp.svg"
   inkscape:export-filename="/ws/JXobjC/doc/nlogotyp.png"
   inkscape:export-xdpi="11.505155"
   inkscape:export-ydpi="11.505155">
  <defs
     id="defs4">
    <linearGradient
       id="linearGradient4213"
       inkscape:collect="always">
      <stop
         id="stop4223"
         offset="0"
         style="stop-color:#008cc4;stop-opacity:1" />
      <stop
         id="stop4225"
         offset="1"
         style="stop-color:#2e1380;stop-opacity:1" />
    </linearGradient>
    <radialGradient
       inkscape:collect="always"
       xlink:href="#linearGradient4213"
       id="radialGradient4192"
       cx="128.5"
       cy="1032.3621"
       fx="128.5"
       fy="1032.3621"
       r="128.5"
       gradientTransform="matrix(1,0,0,0.18677103,0,839.54674)"
       gradientUnits="userSpaceOnUse" />
    <radialGradient
       inkscape:collect="always"
       xlink:href="#linearGradient4213"
       id="radialGradient4200"
       cx="128.5"
       cy="1032.3621"
       fx="128.5"
       fy="1032.3621"
       r="128.5"
       gradientTransform="matrix(1,0,0,0.18677103,0,839.54674)"
       gradientUnits="userSpaceOnUse" />
    <radialGradient
       inkscape:collect="always"
       xlink:href="#linearGradient4213"
       id="radialGradient4208"
       cx="128.5"
       cy="1032.3621"
       fx="128.5"
       fy="1032.3621"
       r="128.5"
       gradientTransform="matrix(1,0,0,0.18677103,0,839.54674)"
       gradientUnits="userSpaceOnUse" />
    <radialGradient
       inkscape:collect="always"
       xlink:href="#linearGradient4213"
       id="radialGradient4216"
       cx="128.5"
       cy="1032.3621"
       fx="128.5"
       fy="1032.3621"
       r="128.5"
       gradientTransform="matrix(1,0,0,0.18677103,0,839.54674)"
       gradientUnits="userSpaceOnUse" />
    <radialGradient
       inkscape:collect="always"
       xlink:href="#linearGradient4213"
       id="radialGradient4224"
       cx="128.5"
       cy="1032.3621"
       fx="128.5"
       fy="1032.3621"
       r="128.5"
       gradientTransform="matrix(1,0,0,0.18677103,0,839.54674)"
       gradientUnits="userSpaceOnUse" />
    <radialGradient
       inkscape:collect="always"
       xlink:href="#linearGradient4213"
       id="radialGradient4232"
       cx="128.5"
       cy="1032.3621"
       fx="128.5"
       fy="1032.3621"
       r="128.5"
       gradientTransform="matrix(1,0,0,0.18677103,0,839.54674)"
       gradientUnits="userSpaceOnUse" />
    <radialGradient
       inkscape:collect="always"
       xlink:href="#linearGradient4213"
       id="radialGradient4240"
       cx="128.5"
       cy="1032.3621"
       fx="128.5"
       fy="1032.3621"
       r="128.5"
       gradientTransform="matrix(1,0,0,0.18677103,0,839.54674)"
       gradientUnits="userSpaceOnUse" />
    <radialGradient
       inkscape:collect="always"
       xlink:href="#linearGradient4213"
       id="radialGradient4248"
       cx="128.5"
       cy="1032.3621"
       fx="128.5"
       fy="1032.3621"
       r="128.5"
       gradientTransform="matrix(1,0,0,0.18677103,0,839.54674)"
       gradientUnits="userSpaceOnUse" />
    <radialGradient
       inkscape:collect="always"
       xlink:href="#linearGradient4213"
       id="radialGradient4256"
       cx="128.5"
       cy="1032.3621"
       fx="128.5"
       fy="1032.3621"
       r="128.5"
       gradientTransform="matrix(1,0,0,0.18677103,0,839.54674)"
       gradientUnits="userSpaceOnUse" />
    <radialGradient
       inkscape:collect="always"
       xlink:href="#linearGradient4213"
       id="radialGradient4264"
       cx="128.5"
       cy="1032.3621"
       fx="128.5"
       fy="1032.3621"
       r="128.5"
       gradientTransform="matrix(1,0,0,0.18677103,0,839.54674)"
       gradientUnits="userSpaceOnUse" />
    <radialGradient
       inkscape:collect="always"
       xlink:href="#linearGradient4213"
       id="radialGradient4272"
       cx="128.5"
       cy="1032.3621"
       fx="128.5"
       fy="1032.3621"
       r="128.5"
       gradientTransform="matrix(1,0,0,0.18677103,0,839.54674)"
       gradientUnits="userSpaceOnUse" />
    <radialGradient
       inkscape:collect="always"
       xlink:href="#linearGradient4213"
       id="radialGradient4280"
       cx="128.5"
       cy="1032.3621"
       fx="128.5"
       fy="1032.3621"
       r="128.5"
       gradientTransform="matrix(1,0,0,0.18677103,0,839.54674)"
       gradientUnits="userSpaceOnUse" />
    <radialGradient
       inkscape:collect="always"
       xlink:href="#linearGradient4213"
       id="radialGradient4288"
       cx="128.5"
       cy="1032.3621"
       fx="128.5"
       fy="1032.3621"
       r="128.5"
       gradientTransform="matrix(1,0,0,0.18677103,0,839.54674)"
       gradientUnits="userSpaceOnUse" />
    <radialGradient
       inkscape:collect="always"
       xlink:href="#linearGradient4213"
       id="radialGradient4317"
       cx="3437.4999"
       cy="572.10782"
       fx="3437.4999"
       fy="572.10782"
       r="2437.4999"
       gradientTransform="matrix(1,0,0,0.18677103,0,465.25465)"
       gradientUnits="userSpaceOnUse"
       spreadMethod="reflect" />
    <radialGradient
       inkscape:collect="always"
       xlink:href="#linearGradient4213"
       id="radialGradient4407"
       cx="2852.4958"
       cy="655.01172"
       fx="2852.4958"
       fy="655.01172"
       r="2437.5005"
       gradientTransform="matrix(1.1200217,0,0,0.16257261,-342.36144,438.52208)"
       gradientUnits="userSpaceOnUse"
       spreadMethod="reflect" />
  </defs>
  <sodipodi:namedview
     id="base"
     pagecolor="#ffffff"
     bordercolor="#666666"
     borderopacity="1.0"
     inkscape:pageopacity="0.0"
     inkscape:pageshadow="2"
     inkscape:zoom="0.13330895"
     inkscape:cx="3506.7729"
     inkscape:cy="-1232.9405"
     inkscape:document-units="px"
     inkscape:current-layer="layer1"
     showgrid="false"
     units="px"
     inkscape:snap-bbox="true"
     inkscape:bbox-paths="true"
     inkscape:bbox-nodes="true"
     inkscape:snap-center="true"
     inkscape:window-width="1920"
     inkscape:window-height="994"
     inkscape:window-x="-4"
     inkscape:window-y="20"
     inkscape:window-maximized="1">
    <inkscape:grid
       type="xygrid"
       id="grid4136"
       spacingx="24.999999"
       spacingy="24.999999" />
  </sodipodi:namedview>
  <metadata
     id="metadata7">
    <rdf:RDF>
      <cc:Work
         rdf:about="">
        <dc:format>image/svg+xml</dc:format>
        <dc:type
           rdf:resource="http://purl.org/dc/dcmitype/StillImage" />
        <dc:title />
      </cc:Work>
    </rdf:RDF>
  </metadata>
  <g
     inkscape:label="Layer 1"
     inkscape:groupmode="layer"
     id="layer1"
     transform="translate(0,-52.362279)">
    <g
       id="g4176"
       style="fill:#000080">
      <g
         inkscape:export-ydpi="56.25"
         inkscape:export-xdpi="56.25"
         id="g4245"
         transform="matrix(7.03125,0,0,-7.03125,-444.37496,-291.38772)"
         style="fill:#000080">
        <g
           style="fill:#000080;fill-opacity:1"
           inkscape:export-ydpi="62.67791"
           inkscape:export-xdpi="62.67791"
           transform="matrix(-0.10858339,-0.56506928,0.56506928,-0.10858339,110.75215,-77.056797)"
           id="g4247">
          <g
             style="fill:#000080;fill-opacity:1"
             inkscape:export-ydpi="51.923077"
             inkscape:export-xdpi="51.923077"
             id="g4249"
             transform="translate(-1.3349245,0.204632)">
            <path
               inkscape:connector-curvature="0"
               style="fill:#000080;fill-opacity:1;fill-rule:nonzero;stroke:none"
               id="path4251"
               d="m 77.366845,131.32135 c -6.742552,5.77441 -7.43122,14.47345 -7.43122,14.47345 -0.256397,1.08048 -0.400467,8.14576 -0.400467,8.14576 0.118174,8.08246 -3.864061,12.13952 -3.864061,12.13952 -4.584351,5.84066 -11.885906,8.8143 -11.885906,8.8143 0.317195,-0.0807 3.633642,-3.54697 3.636535,-3.54986 7.785579,-8.34459 0.619496,-18.10403 0.619496,-18.10403 -1.777885,-2.6941 -4.155013,-8.30428 -4.155013,-8.30428 -3.051493,-7.36203 0.677096,-13.09031 1.241844,-13.87983 7.356303,1.22461 14.856675,1.30816 22.238894,0.2651" />
            <path
               inkscape:connector-curvature="0"
               style="fill:#000080;fill-opacity:1;fill-rule:nonzero;stroke:none"
               id="path4253"
               d="m 52.6993,-3.730714 c 6.74256,-5.77441 7.43122,-14.47345 7.43122,-14.47345 0.2564,-1.08048 0.40047,-8.14576 0.40047,-8.14576 -0.11817,-8.08246 3.86406,-12.13952 3.86406,-12.13952 4.584353,-5.84066 11.885908,-8.8143 11.885908,-8.8143 -0.317195,0.0807 -3.633642,3.54697 -3.636535,3.54986 -7.785583,8.34459 -0.619496,18.10403 -0.619496,18.10403 1.777885,2.6941 4.155013,8.30428 4.155013,8.30428 3.051493,7.36203 -0.677096,13.09031 -1.241844,13.87983 -7.356306,-1.22461 -14.856676,-1.30816 -22.238896,-0.2651" />
          </g>
          <g
             style="fill:#000080;fill-opacity:1"
             inkscape:export-ydpi="51.923077"
             inkscape:export-xdpi="51.923077"
             transform="matrix(0.92387953,-0.38268343,0.38268343,0.92387953,-20.797988,29.947842)"
             id="g4255">
            <path
               d="m 77.366845,131.32135 c -6.742552,5.77441 -7.43122,14.47345 -7.43122,14.47345 -0.256397,1.08048 -0.400467,8.14576 -0.400467,8.14576 0.118174,8.08246 -3.864061,12.13952 -3.864061,12.13952 -4.584351,5.84066 -11.885906,8.8143 -11.885906,8.8143 0.317195,-0.0807 3.633642,-3.54697 3.636535,-3.54986 7.785579,-8.34459 0.619496,-18.10403 0.619496,-18.10403 -1.777885,-2.6941 -4.155013,-8.30428 -4.155013,-8.30428 -3.051493,-7.36203 0.677096,-13.09031 1.241844,-13.87983 7.356303,1.22461 14.856675,1.30816 22.238894,0.2651"
               id="path4257"
               style="fill:#000080;fill-opacity:1;fill-rule:nonzero;stroke:none"
               inkscape:connector-curvature="0" />
            <path
               d="m 52.6993,-3.730714 c 6.74256,-5.77441 7.43122,-14.47345 7.43122,-14.47345 0.2564,-1.08048 0.40047,-8.14576 0.40047,-8.14576 -0.11817,-8.08246 3.86406,-12.13952 3.86406,-12.13952 4.584353,-5.84066 11.885908,-8.8143 11.885908,-8.8143 -0.317195,0.0807 -3.633642,3.54697 -3.636535,3.54986 -7.785583,8.34459 -0.619496,18.10403 -0.619496,18.10403 1.777885,2.6941 4.155013,8.30428 4.155013,8.30428 3.051493,7.36203 -0.677096,13.09031 -1.241844,13.87983 -7.356306,-1.22461 -14.856676,-1.30816 -22.238896,-0.2651"
               id="path4259"
               style="fill:#000080;fill-opacity:1;fill-rule:nonzero;stroke:none"
               inkscape:connector-curvature="0" />
          </g>
          <g
             style="fill:#000080;fill-opacity:1"
             inkscape:export-ydpi="51.923077"
             inkscape:export-xdpi="51.923077"
             id="g4261"
             transform="matrix(0.70710678,-0.70710678,0.70710678,0.70710678,-27.39728,64.875176)">
            <path
               inkscape:connector-curvature="0"
               style="fill:#000080;fill-opacity:1;fill-rule:nonzero;stroke:none"
               id="path4263"
               d="m 77.366845,131.32135 c -6.742552,5.77441 -7.43122,14.47345 -7.43122,14.47345 -0.256397,1.08048 -0.400467,8.14576 -0.400467,8.14576 0.118174,8.08246 -3.864061,12.13952 -3.864061,12.13952 -4.584351,5.84066 -11.885906,8.8143 -11.885906,8.8143 0.317195,-0.0807 3.633642,-3.54697 3.636535,-3.54986 7.785579,-8.34459 0.619496,-18.10403 0.619496,-18.10403 -1.777885,-2.6941 -4.155013,-8.30428 -4.155013,-8.30428 -3.051493,-7.36203 0.677096,-13.09031 1.241844,-13.87983 7.356303,1.22461 14.856675,1.30816 22.238894,0.2651" />
            <path
               inkscape:connector-curvature="0"
               style="fill:#000080;fill-opacity:1;fill-rule:nonzero;stroke:none"
               id="path4265"
               d="m 52.6993,-3.730714 c 6.74256,-5.77441 7.43122,-14.47345 7.43122,-14.47345 0.2564,-1.08048 0.40047,-8.14576 0.40047,-8.14576 -0.11817,-8.08246 3.86406,-12.13952 3.86406,-12.13952 4.584353,-5.84066 11.885908,-8.8143 11.885908,-8.8143 -0.317195,0.0807 -3.633642,3.54697 -3.636535,3.54986 -7.785583,8.34459 -0.619496,18.10403 -0.619496,18.10403 1.777885,2.6941 4.155013,8.30428 4.155013,8.30428 3.051493,7.36203 -0.677096,13.09031 -1.241844,13.87983 -7.356306,-1.22461 -14.856676,-1.30816 -22.238896,-0.2651" />
          </g>
          <g
             style="fill:#000080;fill-opacity:1"
             transform="matrix(0.38268343,-0.92387953,0.92387953,0.38268343,-20.128119,99.669265)"
             id="g4267">
            <path
               inkscape:export-ydpi="51.923077"
               inkscape:export-xdpi="51.923077"
               d="m 77.366845,131.32135 c -6.742552,5.77441 -7.43122,14.47345 -7.43122,14.47345 -0.256397,1.08048 -0.400467,8.14576 -0.400467,8.14576 0.118174,8.08246 -3.864061,12.13952 -3.864061,12.13952 -4.584351,5.84066 -11.885906,8.8143 -11.885906,8.8143 0.317195,-0.0807 3.633642,-3.54697 3.636535,-3.54986 7.785579,-8.34459 0.619496,-18.10403 0.619496,-18.10403 -1.777885,-2.6941 -4.155013,-8.30428 -4.155013,-8.30428 -3.051493,-7.36203 0.677096,-13.09031 1.241844,-13.87983 7.356303,1.22461 14.856675,1.30816 22.238894,0.2651"
               id="path4269"
               style="fill:#000080;fill-opacity:1;fill-rule:nonzero;stroke:none"
               inkscape:connector-curvature="0" />
            <path
               inkscape:export-ydpi="51.923077"
               inkscape:export-xdpi="51.923077"
               d="m 52.6993,-3.730714 c 6.74256,-5.77441 7.43122,-14.47345 7.43122,-14.47345 0.2564,-1.08048 0.40047,-8.14576 0.40047,-8.14576 -0.11817,-8.08246 3.86406,-12.13952 3.86406,-12.13952 4.584353,-5.84066 11.885908,-8.8143 11.885908,-8.8143 -0.317195,0.0807 -3.633642,3.54697 -3.636535,3.54986 -7.785583,8.34459 -0.619496,18.10403 -0.619496,18.10403 1.777885,2.6941 4.155013,8.30428 4.155013,8.30428 3.051493,7.36203 -0.677096,13.09031 -1.241844,13.87983 -7.356306,-1.22461 -14.856676,-1.30816 -22.238896,-0.2651"
               id="path4271"
               style="fill:#000080;fill-opacity:1;fill-rule:nonzero;stroke:none"
               inkscape:connector-curvature="0" />
          </g>
          <g
             style="fill:#000080;fill-opacity:1"
             inkscape:export-ydpi="51.923077"
             inkscape:export-xdpi="51.923077"
             id="g4273"
             transform="matrix(0,-1,1,0,-0.09716829,129.03302)">
            <path
               inkscape:connector-curvature="0"
               style="fill:#000080;fill-opacity:1;fill-rule:nonzero;stroke:none"
               id="path4275"
               d="m 77.366845,131.32135 c -6.742552,5.77441 -7.43122,14.47345 -7.43122,14.47345 -0.256397,1.08048 -0.400467,8.14576 -0.400467,8.14576 0.118174,8.08246 -3.864061,12.13952 -3.864061,12.13952 -4.584351,5.84066 -11.885906,8.8143 -11.885906,8.8143 0.317195,-0.0807 3.633642,-3.54697 3.636535,-3.54986 7.785579,-8.34459 0.619496,-18.10403 0.619496,-18.10403 -1.777885,-2.6941 -4.155013,-8.30428 -4.155013,-8.30428 -3.051493,-7.36203 0.677096,-13.09031 1.241844,-13.87983 7.356303,1.22461 14.856675,1.30816 22.238894,0.2651" />
            <path
               inkscape:connector-curvature="0"
               style="fill:#000080;fill-opacity:1;fill-rule:nonzero;stroke:none"
               id="path4277"
               d="m 52.6993,-3.730714 c 6.74256,-5.77441 7.43122,-14.47345 7.43122,-14.47345 0.2564,-1.08048 0.40047,-8.14576 0.40047,-8.14576 -0.11817,-8.08246 3.86406,-12.13952 3.86406,-12.13952 4.584353,-5.84066 11.885908,-8.8143 11.885908,-8.8143 -0.317195,0.0807 -3.633642,3.54697 -3.636535,3.54986 -7.785583,8.34459 -0.619496,18.10403 -0.619496,18.10403 1.777885,2.6941 4.155013,8.30428 4.155013,8.30428 3.051493,7.36203 -0.677096,13.09031 -1.241844,13.87983 -7.356306,-1.22461 -14.856676,-1.30816 -22.238896,-0.2651" />
          </g>
          <g
             style="fill:#000080;fill-opacity:1"
             inkscape:export-ydpi="51.923077"
             inkscape:export-xdpi="51.923077"
             transform="matrix(-0.38268343,-0.92387953,0.92387953,-0.38268343,29.646041,148.49608)"
             id="g4279">
            <path
               d="m 77.366845,131.32135 c -6.742552,5.77441 -7.43122,14.47345 -7.43122,14.47345 -0.256397,1.08048 -0.400467,8.14576 -0.400467,8.14576 0.118174,8.08246 -3.864061,12.13952 -3.864061,12.13952 -4.584351,5.84066 -11.885906,8.8143 -11.885906,8.8143 0.317195,-0.0807 3.633642,-3.54697 3.636535,-3.54986 7.785579,-8.34459 0.619496,-18.10403 0.619496,-18.10403 -1.777885,-2.6941 -4.155013,-8.30428 -4.155013,-8.30428 -3.051493,-7.36203 0.677096,-13.09031 1.241844,-13.87983 7.356303,1.22461 14.856675,1.30816 22.238894,0.2651"
               id="path4281"
               style="fill:#000080;fill-opacity:1;fill-rule:nonzero;stroke:none"
               inkscape:connector-curvature="0" />
            <path
               d="m 52.6993,-3.730714 c 6.74256,-5.77441 7.43122,-14.47345 7.43122,-14.47345 0.2564,-1.08048 0.40047,-8.14576 0.40047,-8.14576 -0.11817,-8.08246 3.86406,-12.13952 3.86406,-12.13952 4.584353,-5.84066 11.885908,-8.8143 11.885908,-8.8143 -0.317195,0.0807 -3.633642,3.54697 -3.636535,3.54986 -7.785583,8.34459 -0.619496,18.10403 -0.619496,18.10403 1.777885,2.6941 4.155013,8.30428 4.155013,8.30428 3.051493,7.36203 -0.677096,13.09031 -1.241844,13.87983 -7.356306,-1.22461 -14.856676,-1.30816 -22.238896,-0.2651"
               id="path4283"
               style="fill:#000080;fill-opacity:1;fill-rule:nonzero;stroke:none"
               inkscape:connector-curvature="0" />
          </g>
          <g
             style="fill:#000080;fill-opacity:1"
             inkscape:export-ydpi="51.923077"
             inkscape:export-xdpi="51.923077"
             id="g4285"
             transform="matrix(-0.70710678,-0.70710678,0.70710678,-0.70710678,64.573375,155.09537)">
            <path
               inkscape:connector-curvature="0"
               style="fill:#000080;fill-opacity:1;fill-rule:nonzero;stroke:none"
               id="path4287"
               d="m 77.366845,131.32135 c -6.742552,5.77441 -7.43122,14.47345 -7.43122,14.47345 -0.256397,1.08048 -0.400467,8.14576 -0.400467,8.14576 0.118174,8.08246 -3.864061,12.13952 -3.864061,12.13952 -4.584351,5.84066 -11.885906,8.8143 -11.885906,8.8143 0.317195,-0.0807 3.633642,-3.54697 3.636535,-3.54986 7.785579,-8.34459 0.619496,-18.10403 0.619496,-18.10403 -1.777885,-2.6941 -4.155013,-8.30428 -4.155013,-8.30428 -3.051493,-7.36203 0.677096,-13.09031 1.241844,-13.87983 7.356303,1.22461 14.856675,1.30816 22.238894,0.2651" />
            <path
               inkscape:connector-curvature="0"
               style="fill:#000080;fill-opacity:1;fill-rule:nonzero;stroke:none"
               id="path4289"
               d="m 52.6993,-3.730714 c 6.74256,-5.77441 7.43122,-14.47345 7.43122,-14.47345 0.2564,-1.08048 0.40047,-8.14576 0.40047,-8.14576 -0.11817,-8.08246 3.86406,-12.13952 3.86406,-12.13952 4.584353,-5.84066 11.885908,-8.8143 11.885908,-8.8143 -0.317195,0.0807 -3.633642,3.54697 -3.636535,3.54986 -7.785583,8.34459 -0.619496,18.10403 -0.619496,18.10403 1.777885,2.6941 4.155013,8.30428 4.155013,8.30428 3.051493,7.36203 -0.677096,13.09031 -1.241844,13.87983 -7.356306,-1.22461 -14.856676,-1.30816 -22.238896,-0.2651" />
          </g>
          <g
             style="fill:#000080;fill-opacity:1"
             inkscape:export-ydpi="51.923077"
             inkscape:export-xdpi="51.923077"
             transform="matrix(-0.92387953,-0.38268343,0.38268343,-0.92387953,99.367464,147.82621)"
             id="g4291">
            <path
               d="m 77.366845,131.32135 c -6.742552,5.77441 -7.43122,14.47345 -7.43122,14.47345 -0.256397,1.08048 -0.400467,8.14576 -0.400467,8.14576 0.118174,8.08246 -3.864061,12.13952 -3.864061,12.13952 -4.584351,5.84066 -11.885906,8.8143 -11.885906,8.8143 0.317195,-0.0807 3.633642,-3.54697 3.636535,-3.54986 7.785579,-8.34459 0.619496,-18.10403 0.619496,-18.10403 -1.777885,-2.6941 -4.155013,-8.30428 -4.155013,-8.30428 -3.051493,-7.36203 0.677096,-13.09031 1.241844,-13.87983 7.356303,1.22461 14.856675,1.30816 22.238894,0.2651"
               id="path4293"
               style="fill:#000080;fill-opacity:1;fill-rule:nonzero;stroke:none"
               inkscape:connector-curvature="0" />
            <path
               d="m 52.6993,-3.730714 c 6.74256,-5.77441 7.43122,-14.47345 7.43122,-14.47345 0.2564,-1.08048 0.40047,-8.14576 0.40047,-8.14576 -0.11817,-8.08246 3.86406,-12.13952 3.86406,-12.13952 4.584353,-5.84066 11.885908,-8.8143 11.885908,-8.8143 -0.317195,0.0807 -3.633642,3.54697 -3.636535,3.54986 -7.785583,8.34459 -0.619496,18.10403 -0.619496,18.10403 1.777885,2.6941 4.155013,8.30428 4.155013,8.30428 3.051493,7.36203 -0.677096,13.09031 -1.241844,13.87983 -7.356306,-1.22461 -14.856676,-1.30816 -22.238896,-0.2651"
               id="path4295"
               style="fill:#000080;fill-opacity:1;fill-rule:nonzero;stroke:none"
               inkscape:connector-curvature="0" />
          </g>
        </g>
      </g>
      <circle
         r="247.5"
         cy="552.36224"
         cx="540.00012"
         id="path4252"
         style="color:#000000;clip-rule:nonzero;display:inline;overflow:visible;visibility:visible;opacity:1;isolation:auto;mix-blend-mode:normal;color-interpolation:sRGB;color-interpolation-filters:linearRGB;solid-color:#000000;solid-opacity:1;fill:#000080;fill-opacity:1;fill-rule:nonzero;stroke:none;stroke-width:0.2;stroke-linecap:butt;stroke-linejoin:miter;stroke-miterlimit:4;stroke-dasharray:none;stroke-dashoffset:0;stroke-opacity:1;color-rendering:auto;image-rendering:auto;shape-rendering:auto;text-rendering:auto;enable-background:accumulate" />
    </g>
    <g
       id="g4239"
       style="fill:url(#radialGradient4317);fill-opacity:1">
      <g
         style="fill:url(#radialGradient4317);fill-opacity:1"
         id="g4169"
         transform="matrix(18.968871,0,0,18.968871,999.99998,-19010.635)">
        <path
           style="fill:url(#radialGradient4407);fill-opacity:1"
           d="m 1166.3008,64.505859 c -34.3556,3.002773 -70.5362,8.504833 -100.7578,25.466797 -22.0782,12.386674 -69.76094,26.124074 -65.2442,50.599614 29.3833,-18.0375 60.9233,-31.02443 95.4532,-37.51368 42.4663,-13.551358 87.5711,11.73937 127.8476,23.04102 28.2496,10.06488 47.8964,29.43526 75.6113,42.79883 23.3084,21.41965 55.2236,31.01389 81.4082,43.20898 11.3355,30.62524 3.0743,63.2935 14.75,91.17774 8.028,38.70218 10.4318,79.47154 3.7657,118.5 -4.8172,21.80282 -31.3649,35.59243 -47.0157,51.29296 -4.0103,4.0233 -7.3051,8.17457 -9.3359,12.61329 -1.2929,2.83015 -8.8433,7.87104 -7.8144,12.54687 1.125,5.11022 10.9667,9.89508 12.5781,13.73438 18.1599,24.60452 51.7235,56.58542 10.6054,80.41601 -10.6706,5.31318 -13.4146,14.44108 -19.7734,18.11914 0,0 -9.8185,10.88456 -9.7559,16.08203 0.055,4.69859 8.5654,8.56852 11.7012,12.65821 6.2706,8.17937 17.7075,14.85979 30.3555,18.89257 11.7403,32.57145 28.8614,64.22828 29.3808,99.26758 7.569,32.85978 6.6852,65.56834 -0.3027,98.375 -15.5678,30.8377 -37.9026,49.7459 -77.6172,49.14649 -32.6661,0.18969 -45.5531,0.45504 -78.084,-18.7168 -26.433,-16.04956 -53.688,-30.99364 -74.8945,-53.44141 -18.738,-25.53399 -38.4228,-56.76569 -36.8613,-92.67187 5.6166,-37.20554 -15.4909,-34.42951 -38.459,-17.82227 -30.6381,28.16309 -18.096,75.65495 -0.3281,107.23243 17.9471,30.61955 47.4793,53.68219 72.2031,76.56054 27.6736,11.21061 58.0447,26.29946 86.3086,29.54883 57.8872,1.34679 117.7147,5.20295 173.8633,-9.95508 27.5811,-2.44698 52.3556,-32.80044 71.6621,-54.00195 17.7062,-34.32228 13.6896,-75.69776 26.8887,-111.48633 2.1963,-33.46867 12.9051,-65.13414 11.0546,-98.97461 1.2747,-85.68618 3.0798,-171.55313 -1.8437,-257.14258 -9.2911,-32.54299 2.3907,-71.85779 -2.5918,-107.11523 -9.0047,-32.15793 3.6069,-73.28065 -2.7168,-101.12695 10.5295,-36.92481 48.9177,-49.06813 73.2422,-74.6211 24.7552,-39.844111 -43.3223,7.86914 -43.3223,7.86914 0,0 -60.5803,36.34569 -94.166,47.01758 -34.2493,6.5215 -74.7431,-10.14167 -104.1133,-26.64648 -24.822,-18.83989 -50.1277,-33.43172 -74.5371,-53.000003 -29.2439,-17.686575 -61.8258,-21.965812 -94.2754,-30.826172 -8.2526,-0.910506 -16.5754,-1.196407 -24.8691,-1.101563 z m 4493.9648,47.412111 c -0.5885,-0.004 -1.174,0.006 -1.75,0.0273 -32.8886,12.83244 -71.0087,16.22444 -97.0019,43.03125 -31.4557,18.47758 -62.2133,38.43974 -87.1992,65.98633 -31.2594,30.1036 -59.3832,63.419 -81.2598,101.53125 -20.0831,34.54042 -32.0889,73.63077 -45.7324,111.24414 -7.555,70.00841 -2.7961,142.38904 15.1972,210.51953 12.4861,47.23249 40.054,87.84117 57.8965,132.88086 30.453,44.43269 75.6245,74.68148 118.0391,105.17774 29.1823,19.65554 62.8579,32.34632 97.7304,23.34179 35.531,-4.6929 67.7172,-21.22099 88.5997,-50.01953 28.5532,-21.5695 53.1662,-57.71625 74.0566,-88.72656 -8.8721,-27.31707 -46.4919,16.96962 -55.2109,31.75586 -10.4248,27.8463 -47.9849,37.28572 -41.6387,-3.86914 -5.781,-148.33847 -3.0038,-296.85848 -6.6231,-445.25195 1.7319,-72.35297 6.1472,-144.74231 3.0196,-217.14649 -2.7283,-25.89061 -12.7185,29.06559 -14.2578,40.10547 -11.042,65.22067 -1.8959,131.38781 -5.2149,197.10547 0.6051,103.14134 3.9955,206.21736 5.377,309.33594 1.8039,37.85997 0.7026,75.85221 0.014,113.55664 8.974,30.86994 9.293,82.15211 -35.1875,72.39453 -36.7319,4.49752 -67.4152,-21.2214 -92.2773,-45.68555 -13.8638,-33.53696 34.3772,-54.83596 43.7734,-85.4043 9.9426,-33.26001 62.459,-23.56891 61.1856,-63.50976 -4.422,-49.10662 -0.9766,-99.01629 -2.3887,-148.44727 -0.6582,-125.93433 -2.2399,-251.86671 -5.9062,-377.74414 -11.7672,-28.47417 46.1937,2.19313 18.2929,-28.3164 -3.0893,-3.08055 -7.4132,-3.84362 -11.5332,-3.87305 z m -2895.5722,28.45312 c -34.0733,12.4948 -72.05,18.50911 -97.3008,46.81446 -37.403,30.97806 -64.6046,71.15261 -86.7031,113.52148 -39.9881,61.46483 -67.0736,133.32678 -62.7227,207.13086 4.2799,52.90039 0.6618,108.27277 25.168,157.26367 18.8431,42.34042 43.4045,82.22401 67.3144,121.99414 24.1134,32.51075 53.4832,61.24164 83.793,88.10157 31.5987,17.74158 70.7,18.62972 106.1816,23.92773 65.7435,-3.5946 116.1493,-49.78036 167.0742,-85.39062 39.6949,-27.81975 64.5612,-70.04011 93.5547,-107.49415 23.2109,-33.60335 36.141,-72.5459 49.9024,-110.45898 13.517,-52.07714 14.4566,-106.6892 13.1054,-160.17383 -3.3574,-32.6606 -9.8718,-65.50675 -20.4707,-96.69726 -27.5462,-58.26099 -67.6273,-112.88664 -124.2031,-146.87696 -31.2766,-4.40647 -58.1006,-45.27983 -90.8496,-25.66601 -21.0676,3.84688 -44.2223,52.99974 -58.7949,34.34765 2.5701,-13.06386 4.1722,-65.93681 -8.8399,-29.54882 -11.3259,34.65423 -11.373,71.34258 -6.1152,106.94336 0.387,41.72203 -8.1685,82.92916 -7.9492,124.74414 -2.2973,65.49951 -5.4857,131.11222 -15.457,195.96679 3.4917,38.60924 8.3541,76.92699 -1.1954,115.11133 -4.5806,40.81153 -8.1002,81.76158 -14.625,122.33789 -39.8492,15.6607 -61.0569,-37.09794 -90.496,-54.16992 -39.8258,-28.81941 17.2202,-48.2059 36.1582,-68.85352 41.7281,-17.72641 42.7812,-62.22292 40.9238,-100.4414 8.4224,-34.83633 13.3654,-70.20951 15.4726,-106.13086 7.0445,-77.11984 6.721,-155.20908 2.7051,-232.61914 -7.553,-36.77306 0.1141,-75.4263 -10.0254,-111.54492 0.368,-7.65205 0.5919,-16.41008 -5.6054,-22.13868 z m -610.3418,3.58594 c -24.2737,7.74689 -45.3917,28.74621 -52.0039,57.01172 -8.1973,13.45462 -37.776,70.71208 -32.4024,23.7793 -1.1021,-24.99339 17.6984,-72.91999 -5.2773,-74.89844 -9.7231,32.64732 -12.3987,66.43816 -13.6895,100.51953 1.898,36.69718 -27.2237,58.63384 -44.1562,86.53516 -14.4882,28.47417 -53.0276,56.43939 -61.3028,8.14843 -20.0057,-23.18565 -30.4041,-53.28709 -54.9609,-72.98437 -18.6389,-23.94061 -42.4797,-46.09552 -53.6543,-75.27344 -12.1096,-15.01765 -17.0358,-56.49529 -40.3047,-23.99023 -26.7452,13.57412 -43.4196,39.59607 -63.9512,61.67773 -9.9692,7.53823 -25.6287,41.08078 -1.8945,21.47266 21.2565,-11.86124 46.7734,-64.05042 59.8613,-19.30664 10.6099,28.53866 33.3363,48.82508 49.9727,72.83398 21.7295,19.35584 27.7973,51.91247 48.8437,69.31641 18.3024,24.03925 46.6565,44.49065 36.6465,78.49805 7.8802,22.26945 5.848,79.72534 -27.9883,48.58984 -31.766,-13.75054 -53.458,24.4326 -76.9824,39.35351 -18.4996,12.84572 -48.9299,62.52361 -7.5215,30.57813 19.1451,-28.03599 48.1939,-34.42996 71.8086,-8.54883 22.4197,10.34562 52.3882,15.01059 54.3223,38.82031 9.4036,20.42189 -21.6024,53.82552 -20.375,81.9336 -4.5383,33.09309 -22.3532,58.60253 -41.1641,85.25 -21.3828,25.7142 -36.4543,57.54766 -61.3203,78.78711 -31.9058,20.4124 -65.1883,6.12341 -92.2051,-14.22071 -25.7344,-22.68297 -55.0695,-52.76424 -52.789,-89.87304 1.7195,-31.30623 -9.0693,-63.18984 8.8691,-91.66211 9.6415,-18.31445 42.8871,-48.08892 40.8262,-58.66407 -21.6266,25.58712 -50.4061,42.04518 -78.1524,59.24805 -23.4354,26.49951 -26.8288,62.43907 -20.2324,97.80274 0.3819,36.09586 14.214,71.6483 41.9141,94.96484 19.5262,23.55175 41.7939,33.39483 66.4062,47.63477 29.611,4.507 59.8685,-6.65587 83.5528,-21.79493 24.8588,-21.16167 57.1456,-34.33914 72.8652,-65.41015 11.1522,-30.64421 38.7907,-52.62144 50.1113,-83.85938 23.3525,-22.28463 32.4725,36.14744 50.1504,48.10352 18.461,30.80165 36.1953,59.18644 52.3379,91.10156 11.0268,22.01717 20.4781,33.95411 45.4961,37.28125 24.9508,-20.03113 37.3127,-50.87991 64.1348,-69.16211 15.0616,-21.67193 40.6929,-32.15641 54.1816,-56.27344 16.8838,-6.41527 20.3245,-38.0335 -1.289,-16.69922 -34.8606,24.69748 -59.3047,64.0144 -97.4082,83.2754 -31.1315,-11.77398 -37.5012,-50.73272 -53.2188,-74.91993 -18.0171,-31.91322 1.2788,-73.32246 -3.3223,-109.29882 0.8087,-33.07223 3.3071,-66.33388 9.5079,-98.74219 10.8863,-20.81075 61.1175,-48.49865 48.3105,-65.97656 -19.8935,-1.42267 -51.7169,52.7074 -49.4277,17.27734 -7.0646,-28.06634 -4.3649,-57.80537 -9.2305,-82.00586 5.1641,-23.34309 -6.924,-57.50009 12.8809,-81.28516 16.6691,-26.00252 -1.0736,-64.08072 22.2382,-90.7832 16.3741,-12.50618 29.0308,-48.97745 48.3203,-47.75586 16.5243,32.09533 63.0676,48.7437 53.0372,91.41797 0.8991,16.03439 -43.743,44.96833 -6.9278,41.92383 29.8583,-20.07665 33.3073,-60.79082 35.6856,-94.05274 35.3097,-19.45826 -6.9119,-44.81855 -21.9453,-55.43164 -15.2026,-11.08161 -25.3392,-40.6609 -35.8516,-48.32812 l -1.332,-1.92969 z m 3430.625,17.64649 c 19.3524,33.66026 7.3067,75.17072 10.7031,112.2871 -0.4742,55.64329 4.832,111.27602 1.4531,166.89844 14.007,40.61046 -5.9584,83.65003 4.8965,124.94336 6.0336,36.84514 7.5303,74.25712 9.7129,111.45508 -4.3215,37.28711 -37.863,60.91244 -50.7793,95.50977 -17.1128,43.46337 -59.8659,8.40352 -76.2637,-16.65625 -26.6232,-26.60195 -31.7196,-67.36022 -54.8535,-96.375 -21.7148,-46.79052 -35.4079,-97.66877 -34.8769,-149.8711 -4.5888,-44.45544 -9.5646,-92.63625 11.4355,-133.72851 10.3086,-36.14329 27.3808,-69.18838 48.4746,-99.58789 27.7268,-41.4982 65.4749,-75.12527 105.1621,-103.59375 8.3668,-3.57184 18.1555,-4.42211 24.9356,-11.28125 z m 194.9179,-43.05079 0,0.0195 c -24.5677,9.23404 -68.2148,47.46356 -62.748,62.83593 29.705,-25.14513 62.0154,-3.13905 78.4121,27.34961 15.5015,33.66975 9.2397,75.57042 -20.7402,97.97266 -5.2688,34.16673 31.3003,-5.98349 37.0546,-20.38086 20.2104,-30.91926 5.5755,-70.98044 37.127,-96.21094 -2.4673,-30.28949 -32.8754,-57.40263 -59.9121,-69.13867 l -4.5606,-1.42383 z m -3088.3847,68.24805 c 42.6187,13.81124 16.1948,68.62279 28.9179,100.63086 6.6312,86.08263 1.075,172.55415 -4.2675,258.44141 1.8893,42.22091 -19.3535,82.06715 -13.3379,124.58398 2.5255,32.02704 -32.2537,59.19663 -59.3223,63.98438 -16.9551,-27.14825 -28.3786,-59.01177 -48.0312,-85.29883 -13.2735,-39.00569 -37.4882,-76.22812 -32.4825,-119.10156 -2.6884,-68.38089 -3.034,-140.26171 31.3594,-202.1211 13.8374,-36.59664 47.7851,-62.79124 56.7891,-101.53515 14.859,-11.8214 22.3589,-31.40841 40.375,-39.58399 z m 178.7988,18.29688 c 42.8651,13.06196 83.0246,34.44462 113.7832,67.03125 33.4254,29.4302 53.4883,70.19329 68.0273,111.10156 13.7219,47.31974 21.0886,96.29816 17.2247,145.55273 -2.723,90.29752 -36.0073,181.37439 -99.0528,248.1543 -36.7613,36.22106 -84.3092,64.37812 -137.5332,66.06445 -49.8781,12.39616 -41.4782,-41.88251 -34.3789,-72.50586 3.9895,-34.31658 5.7201,-68.5249 10.3633,-102.69921 0.882,-60.30774 -1.2023,-121.09098 10.8828,-180.61719 1.2728,-36.30642 1.9763,-72.70582 3.3457,-108.83203 2.2137,-40.8324 11.6683,-79.85842 4.1816,-119.55078 3.2999,-23.66936 21.4195,-44.13702 43.1563,-53.69922 z m -1396.0742,7.54492 c 11.0066,28.2712 4.3823,63.20281 8.2636,94.02344 5.0004,42.14314 -8.133,83.54824 2.67,125.36132 2.989,99.22237 4.398,198.90018 -3.2852,297.90821 -7.6722,45.65997 -17.2774,90.93948 -25.6308,136.39648 2.4068,31.04066 -84.8121,43.52803 -43.004,9.22852 23.0048,-25.96459 24.1226,-62.63415 35.4903,-94.03711 9.5029,-36.88877 13.5187,-75.92973 16.4453,-113.15235 -10.0016,-45.38681 -1.2697,-92.77069 -9.7363,-138.52929 -2.0019,-62.83818 -3.661,-125.63931 -6.8379,-188.37696 -0.5497,-29.87976 7.8702,-63.52367 -5.4942,-87.70898 3.6622,-16.92972 15.5547,-33.29811 31.1192,-41.11328 z m 3002.8203,98.43945 c -0.1434,-0.002 -0.2953,0.006 -0.457,0.0234 l -0,0.041 c -29.1339,13.97437 -45.5265,49.03182 -69.8535,71.25196 -22.2036,28.89718 18.2722,17.45503 24.8848,-0.53125 14.6561,-20.23599 34.6364,-35.4215 45.6093,-59.125 0.074,-2.7068 4.2626,-11.60506 -0.1816,-11.66016 z m -2425.457,2.16016 0,0 0,0.008 c -5.3718,28.73974 -18.3778,62.10041 -14.7129,94.60547 -0.8321,41.93258 -1.0938,84.28922 0.961,125.92969 -19.8036,31.49022 -65.7791,-9.25629 -57.2247,-39.37696 3.7601,-30.1624 -13.68,-68.0757 0.1192,-93.55468 19.6142,-28.35088 42.5417,-55.01737 63.7226,-83.07422 l 2.754,-2.69727 z m 1175.6445,16.81445 c -9.8479,8.97797 -20.4833,16.22398 -33.127,18.57422 -5.0906,0.94844 -8.5128,4.09263 -11.6211,9.45703 -7.4745,11.24854 -9.9442,26.72697 -13.0898,38.73047 -2.3982,9.15438 6.6977,9.83131 13.4336,13.75976 2.2247,27.98288 -3.3356,56.20963 -1.8223,84.36133 0.9029,88.02505 1.0648,176.10531 -0.4394,264.11328 1.2083,5.61858 -1.5586,20.48243 -1.5586,20.48243 -1.2899,0.45525 -4.3487,-2.1769 -5.6211,-1.42383 -13.6394,8.02193 -29.0496,20.74021 -18.25,36.2207 13.1964,17.15735 29.1685,30.73834 46.4336,43.19141 21.5139,16.14061 47.9683,33.54922 62.539,41.59961 11.7936,-13.76951 30.4465,-22.33157 37.5528,-40.76172 12.0923,-18.39981 31.5026,-30.98905 41.4941,-50.91016 4.8115,-20.3498 26.9981,-29.07267 41.5723,-42.06445 9.1578,-26.58487 3.1734,-37.86552 4.2851,-58.36328 0.1897,-29.09066 -0.4462,-56.56153 -0.017,-89.59961 2.1002,-34.15156 3.1239,-53.356 -19.7461,-69.05274 -16.7287,-6.29007 -22.4201,-29.28592 -34.209,-40.44531 10.0973,-4.06882 11.5841,-27.85178 -3.6289,-13.69531 -16.2704,8.69154 -31.3393,18.8758 -43.4141,33.59375 -16.7651,16.62432 -32.004,36.47692 -52.416,48.01758 -17.7716,-6.92933 2.0411,-34.71615 -3.1191,-50.90039 1.4985,-33.22208 -2.0107,-66.60697 0.6679,-99.72852 3.2545,-21.61313 31.3372,-24.96982 31.4199,-47.93164 -5.2344,-12.62568 -22.9502,-12.29023 -31.582,-23.46289 -17.2008,4.40267 9.3961,-22.48667 -5.7363,-23.75 z m 342.3555,0 c -35.2089,8.69912 -60.3487,36.76501 -82.2129,63.55664 -15.7114,15.34961 1.189,33.09648 17.9277,17.9707 24.1197,-10.12179 26.5565,-36.34265 47.0586,-50.79882 4.4848,-9.65326 24.2547,-19.92195 17.2266,-30.72852 z m 698.6425,33.71484 c -28.6902,13.51722 -56.3938,30.72234 -79.8359,54.16407 -3.5047,38.68701 14.6538,57.86318 -32.1895,51.33789 -22.0938,1.85895 -34.9482,24.79758 -49.2636,41.02734 6.6165,25.85457 37.0066,3.73518 53.8965,9.69141 25.5082,1.94241 28.0136,36.59007 28.3613,59.25976 3.0293,58.27807 -4.7277,117.09116 4.2012,174.97657 0.1138,7.50029 -1.3716,14.11844 -5.0899,19.10156 -18.9844,25.43915 -26.6005,25.05679 -30.8281,43.77148 16.7979,27.73629 18.055,24.57204 44.5703,51.37696 20.3519,16.60155 29.2636,26.01618 46.9941,30.64648 12.1217,-9.18852 26.8542,-16.23663 34.4454,-31.92578 9.3768,-18.25185 19.6576,-36.37817 35.6484,-48.01367 11.7026,-5.87087 26.384,-38.83064 3.0058,-28.375 -16.3701,12.90642 -30.1748,29.23699 -45.4921,43.35742 -13.8619,2.85481 -22.2624,-17.66067 -33.2715,-25.97852 -6.9168,-24.0696 -4.6119,-38.28485 -4.5235,-74.50781 0.076,-29.29932 -0.1911,-41.59287 1.793,-62.11719 3.6752,-45.60496 -1.3231,-91.64957 4.4981,-137.07812 13.491,-1.1002 12.7934,-0.32121 38.4043,-7.13672 15.6605,-8.82432 55.5399,-44.37512 26.0703,-51.95508 -19.0778,-5.13487 -52.9453,-6.39812 -72.2207,-6.25586 -6.171,-22.2998 -9.5538,-43.17405 -2.17,-63.14258 25.8006,-23.62762 22.397,-14.27587 32.9981,-42.22461 z m -749.2539,68.88477 c -0.1934,-0.005 -0.3079,0.10482 -0.3086,0.37109 -13.3127,16.98663 -60.2749,33.87685 -39.0468,58.77539 21.9232,17.15545 9.8292,49.09144 13.5566,72.86133 -0.4932,36.18692 3.8113,72.06631 7.4746,107.9668 1.4511,49.86347 2.1811,100.78249 -9.5234,149.57422 -14.5649,21.14839 -27.7254,46.07218 -45.375,66.42578 -18.0303,23.87043 -38.9231,31.91579 -63.0157,41.6582 -34.4924,14.84125 -66.2669,23.28028 -100.6015,29.04492 -36.6209,10.75156 10.4877,20.61599 28.6328,12.9336 27.3241,-3.87534 53.1665,-14.42627 78.7187,-24.58789 22.5912,-9.81829 48.5657,-12.33476 66.9747,-30.08203 23.6648,-19.02578 38.9215,-45.56129 59.4843,-67.32618 22.4362,-24.32757 39.8787,-59.17417 45.4375,-85.5371 -0.3395,-23.37914 10.7974,-45.81643 5.6953,-68.54493 8.2595,-26.67782 -4.4001,-53.46708 -2.8164,-80.55273 -2.3411,-28.275 0.7399,-57.56783 -5.3339,-85.21875 -5.9969,-16.97145 18.3415,-42.88066 12.1074,-57.10352 -21.0977,-0.18784 -29.9143,-29.2877 -47.1465,-36.39062 -0.3395,-0.65703 -3.8447,-4.23944 -4.9141,-4.26758 z m 205.7852,1.53906 c -19.0848,8.75414 -30.2532,32.15627 -48.709,42.23633 -13.2983,13.57033 -36.0477,22.25582 -31.9766,49.13281 -2.6797,59.76333 1.1777,119.89287 -5.3339,179.39063 -1.2178,23.29567 -2.1177,47.61656 5.0546,69.73047 21.7069,18.31824 44.3035,35.83918 61.3575,60.98242 10.7263,16.36065 21.2912,32.87893 36.4765,43.22265 11.5559,11.47807 16.9798,16.7186 22.8008,18.95313 5.1616,2.00691 10.6091,-7.16803 22.0566,-16.19531 17.8759,-7.34854 20.984,-30.42172 34.2032,-42.66992 12.5331,-22.10822 24.9558,-41.59277 39.7832,-64.35352 11.5086,-6.20092 24.9485,-41.65862 2.3886,-32.51562 -14.171,11.332 -27.7391,24.48432 -39.625,39.37109 -11.1351,15.0499 -20.4729,32.23234 -33.3144,45.27344 -28.5017,-21.92043 -47.6877,-57.72527 -75.6465,-80.34375 -23.264,-24.65385 -30.3662,-24.94784 -22.5254,-40.58008 4.769,-22.06459 21.8992,-37.82474 36.3262,-50.55664 25.4276,-28.65628 54.2834,-52.45726 78.5586,-82.70313 12.9732,-9.15627 31.6973,-33.34534 15.8281,-50.0664 -19.242,-9.66654 -30.0989,-33.91625 -49.1523,-44.20118 -17.0584,-13.31425 -32.7035,-28.81282 -48.5508,-44.10742 z m 1002.9277,4.8418 c -12.2423,15.64363 -44.2557,29.74414 -32.498,55.83203 12.5077,20.2948 39.1522,20.66585 49.3398,43.32227 5.1535,22.08166 0.8035,45.44274 1.4863,68.08398 -0.7511,24.75627 0.7273,49.65506 4.5372,73.92383 -1.4398,29.71474 1.0424,68.22949 -11.5176,94.67969 -10.8667,19.72003 -30.7845,27.91783 -44.0098,45.10742 -19.3706,4.89966 -17.0411,-32.12669 -35.6738,-35.60938 -21.9707,-12.0661 -29.3009,-39.9453 -27.2149,-66.6914 -0.7341,-19.46206 -5.7782,-38.19634 -5.8398,-57.79688 -0.4211,-18.26133 -4.2063,-36.07495 -6.6797,-53.88672 -1.1419,-29.95564 3.8829,-60.06875 13.7676,-87.61914 11.0055,-15.02524 32.7082,-27.86695 17.2402,-42.94531 -15.059,-10.85399 -40.0247,-35.14605 -57.1816,-19.12305 -15.1364,15.51085 -33.2998,29.46614 -46.0723,46.57227 -2.6778,16.15199 12.4719,13.60709 18.8555,9.97266 19.5825,13.29907 15.6339,14.98136 5.2969,62.77343 -7.9104,40.00725 -6.5922,82.35336 1.623,122.13867 9.8674,24.39018 -7.0584,39.50273 -20.5449,54.0879 -9.427,23.26152 15.85,39.87759 27.5293,54.1289 17.1945,16.26771 35.0052,31.56 52.6054,47.2207 14.2502,11.99592 23.0682,34.31515 40.9942,38.81836 13.5041,-3.51303 19.8103,-23.55032 35.9297,-22.2832 0.1916,-20.8999 15.3143,-36.57891 20.2304,-56.10547 14.6876,-29.37519 41.5812,-47.15429 53.9512,-78.57812 15.6782,-33.00963 12.7666,-72.02035 13.6035,-108.47852 -0.7132,-40.08312 -1.0264,-80.19779 -1.7851,-120.26953 2.7378,-23.91975 -13.7372,-36.38462 -30.6387,-43.29688 -13.0603,-6.96157 -21.9948,-22.99213 -37.334,-23.97851 z m 200.3477,1.05664 c -19.0848,8.55117 -30.2552,31.40114 -48.711,41.24219 -13.2983,13.24975 -36.0457,21.73502 -31.9746,47.97656 -2.6797,58.35583 1.1757,117.0681 -5.3359,175.16406 -1.2178,22.74558 -2.1157,46.49373 5.0566,68.08789 21.7069,17.88385 44.3015,34.99352 61.3555,59.54493 10.7263,15.97368 21.2932,32.10605 36.4785,42.20507 11.5559,11.20681 16.9798,16.32249 22.8008,18.50391 5.1616,1.93862 10.6072,-6.99767 22.0547,-15.8125 17.8759,-7.17592 20.9858,-29.70229 34.2051,-41.66406 12.5331,-21.59037 24.9558,-40.61592 39.7832,-62.83985 11.5086,-6.05107 24.9485,-40.67669 2.3886,-31.74804 -14.171,11.06454 -27.7391,23.91136 -39.625,38.44531 -11.1351,14.69518 -20.4729,31.47133 -33.3144,44.20703 -28.5017,-21.40068 -47.6877,-56.36382 -75.6465,-78.45117 -23.264,-24.0715 -30.3662,-24.36075 -22.5254,-39.625 4.769,-21.54295 21.8992,-36.93488 36.3262,-49.36328 25.4276,-27.98288 54.2834,-51.21938 78.5586,-80.75391 12.9732,-8.94003 31.6973,-32.56216 15.8281,-48.88867 -19.242,-9.43891 -30.0989,-33.12172 -49.1523,-43.15625 -17.0584,-13.00127 -32.7035,-28.14003 -48.5508,-43.07422 z m -507.1719,3.72461 c -31.4183,54.89402 -54.717,33.78231 -31.418,54.89258 20.0116,23.10977 19.3192,55.07904 19.5118,86.13867 0.5311,58.59674 -6.1466,116.93985 -6.8536,175.45312 -2.5242,27.21275 -41.2772,38.358 -31.0957,65.7168 27.1456,16.01542 38.9413,60.24027 68.291,67.22461 22.7932,-13.15301 28.4425,-46.56512 47.0215,-66.28516 11.5968,-8.27232 32.721,-52.64473 6.2657,-42.57226 -7.095,23.21979 -40.9903,45.15434 -39.5098,5.36523 4.5229,-54.91678 -2.8655,-110.85352 4.6816,-165.73047 1.0813,-25.33482 0.2227,-67.89787 -0.3027,-93.24218 -1.3487,-23.35827 23.7304,-10.27111 25.9609,-47.15039 -17.9771,-7.60083 -40.148,-31.81699 -59.9238,-37.76563 l -2.6289,-2.04101 z m -442.3789,1.33398 c -17.0568,18.13235 -40.7175,21.00539 -61.1055,30.8711 -16.3654,16.43652 -6.9434,45.19853 -9.7715,67.31054 -0.5501,66.69266 0.4555,133.4556 -2.2343,200.07618 2.9785,29.61609 28.7284,42.73818 42.8632,64.01367 16.8823,22.9106 32.9654,46.74407 51.4278,67.88867 9.2739,21.77816 29.8864,30.65125 47.0293,14.67188 26.9855,-18.7128 54.7012,-36.91051 78.5781,-61.09961 6.9991,-5.80258 28.5193,-26.56715 9.6387,-29.29297 -21.8588,9.23404 -50.505,30.86521 -75.211,47.59765 -23.1342,-27.28861 -11.9495,-11.63159 -19.7461,-26.28125 -11.5628,-13.89469 -27.3518,-23.85926 -34.0546,-42.63086 -14.0738,-17.89902 -35.944,-33.62546 -46.6172,-54.65625 2.6122,-108.56074 2.1652,-95.00186 1.164,-158.96679 -2.4737,-14.3196 -6.07,-29.13751 -3.3144,-43.78907 23.0483,12.24441 23.6264,15.23364 44.4121,33.19336 17.6213,14.9911 31.4101,29.84151 32.0019,32.4668 1.2861,5.71153 -3.1502,6.22769 -9.3261,12.12891 3.8584,17.87436 24.8089,-6.9701 34.5781,-9.18946 15.2578,-4.59615 39.4484,-21.28706 26.918,-43.02539 -17.3423,-13.23648 -30.1846,-28.14442 -47.3262,-47.64062 -22.944,-18.5857 -36.9237,-31.68243 -59.9043,-53.64649 z m -276.3106,72.24024 c 0.3452,-0.0177 0.7012,0.0418 1.0606,0.19726 19.942,12.27666 37.6599,28.21479 57.416,41.84961 26.935,21.56192 2.734,25.37218 -17.8183,51.5625 -16.5085,11.46858 -29.4492,27.80916 -41.7051,44.89063 -5.9864,2.76187 -2.6507,-22.45616 -4.459,-32.76953 1.0585,-34.12311 -1.5626,-68.66378 2.0762,-102.51563 0.6288,-1.59824 1.9338,-3.13791 3.4296,-3.21484 z m 1203.2754,3.9414 c 0.3452,-0.0172 0.7011,0.0415 1.0606,0.19336 19.942,11.98454 37.6599,27.54903 57.416,40.86328 26.935,21.05166 2.734,24.77757 -17.8184,50.34571 -16.5084,11.20301 -29.4491,27.1546 -41.705,43.83203 -5.9864,2.69737 -2.6507,-21.92546 -4.459,-31.99414 1.0584,-33.31882 -1.5626,-67.05026 2.0761,-100.10352 0.6289,-1.55971 1.9339,-3.06224 3.4297,-3.13672 z m 248.2852,7.89844 c -15.8386,1.90827 -24.9213,17.14052 -38.8496,23.26367 -8.5519,8.88882 -38.018,25.87678 -22.8203,33.38086 11.1855,5.52374 13.1694,-18.77119 36.0058,-6.04687 16.9838,11.87072 37.6875,13.35732 56.4473,20.46875 18.4457,7.41683 38.255,20.65376 58.4375,10.7539 16.1199,-3.97208 20.4648,-21.84021 34.4023,-28.83593 9.7131,-2.55511 30.034,-24.21563 11.6465,-25.42774 -11.8747,4.29835 -20.9463,21.879 -35.289,11.53906 -12.1889,-8.78827 -26.0898,-13.20899 -39.1036,-18.61132 -15.7893,0.18969 -31.5809,-1.85843 -44.7187,-11.37891 -5.4721,-2.87378 -10.9511,-5.75746 -16.1582,-9.10547 z M 3288.002,557.71289 c 22.3214,10.71172 33.3344,31.57388 46.6914,48.625 7.9212,22.51605 2.5543,35.21812 2.8847,59.76953 3.9321,37.94913 5.8145,74.54287 1.5274,114.79102 -14.0801,15.21303 -25.2435,27.76987 -41.0567,48.99414 -15.382,16.08181 -44.6988,-7.65131 -59.2636,-17.76172 -5.7808,-18.23857 -9.5955,-38.38853 -8.3497,-56.03906 -3.6896,-19.36912 2.0635,-40.31401 -2.5566,-60.0625 -1.1628,-20.16771 6.7729,-39.74742 2.0195,-60.14844 -2.5589,-19.28565 5.33,-41.94042 22.9161,-50.80078 12.5862,-7.62549 21.1594,-23.13713 35.1875,-27.36719 z m -369.0645,13.89649 c -17.8294,6.67893 -38.0008,18.29189 -42.9629,23.85546 4.8003,10.57705 19.9162,43.95898 36.4453,56.60743 28.9319,-14.21907 5.2309,-4.40008 51.4317,-27.38086 -15.0093,-17.3091 -29.9979,-38.26924 -44.9141,-53.08203 z m -890.7344,4.33984 c 26.6199,24.57227 -3.8347,62.83091 2.4571,93.75586 -0.046,17.37169 1.8844,77.68787 -16.9102,35.93359 -13.2445,-29.75647 -39.703,-57.59032 -43.8965,-88.17383 9.6297,-29.91391 32.1182,-34.91066 58.3496,-41.51562 z"
           transform="matrix(0.05271795,0,0,0.05271795,-52.717949,1004.9621)"
           id="path4148"
           inkscape:connector-curvature="0"
           sodipodi:nodetypes="ccccccccccccccccccccccccccccccccccccccccccccccccccccccccccccccccccccccccccccccccccccccccccccccccccccccccccccccccccccccccccccccccccccccccccccccccccccccccccccccccccccccccccccccccccccccccccccccccccccccccccccccccccccccccccccccccccccccccccccccccccccccccccccccccccccccccccccccccccccccccccccccccccsccccccccccccccccccsccccccccccccccccccccccccccccccccccccccccccccccccccccccccccccccccccccccccccccccccccccccccccccccccccccccccccccccccccccccccccccccccccccccccccccccccccccccccccccc" />
      </g>
    </g>
  </g>
</svg>
