<?xml version="1.0" encoding="UTF-8" standalone="no"?>
<!-- Created with Inkscape (http://www.inkscape.org/) -->

<svg
   xmlns:dc="http://purl.org/dc/elements/1.1/"
   xmlns:cc="http://creativecommons.org/ns#"
   xmlns:rdf="http://www.w3.org/1999/02/22-rdf-syntax-ns#"
   xmlns:svg="http://www.w3.org/2000/svg"
   xmlns="http://www.w3.org/2000/svg"
   xmlns:xlink="http://www.w3.org/1999/xlink"
   xmlns:sodipodi="http://sodipodi.sourceforge.net/DTD/sodipodi-0.dtd"
   xmlns:inkscape="http://www.inkscape.org/namespaces/inkscape"
   width="312"
   height="92"
   viewBox="0 0 312 92.000002"
   id="svg2"
   version="1.1"
   inkscape:version="0.91 r13725"
   sodipodi:docname="objectkit.svg"
   inkscape:export-filename="/ws/PortableObjectCompiler/doc/objectkit.png"
   inkscape:export-xdpi="162.98077"
   inkscape:export-ydpi="162.98077">
  <defs
     id="defs4">
    <linearGradient
       id="linearGradient4148"
       inkscape:collect="always">
      <stop
         style="stop-color:#8471bb;stop-opacity:1"
         offset="0"
         id="stop4150" />
      <stop
         style="stop-color:#524490;stop-opacity:1"
         offset="1"
         id="stop4152" />
    </linearGradient>
    <linearGradient
       inkscape:collect="always"
       id="linearGradient4251">
      <stop
         id="stop4255"
         offset="0"
         style="stop-color:#9255ad;stop-opacity:1" />
      <stop
         id="stop4253"
         offset="1"
         style="stop-color:#61437d;stop-opacity:1" />
    </linearGradient>
    <radialGradient
       inkscape:collect="always"
       xlink:href="#linearGradient4251"
       id="radialGradient4259"
       cx="119.70782"
       cy="893.9306"
       fx="119.70782"
       fy="893.9306"
       r="25.294237"
       gradientTransform="matrix(1.0522958,1.2403955,-0.83234708,0.69316535,739.88781,123.84144)"
       gradientUnits="userSpaceOnUse" />
    <radialGradient
       inkscape:collect="always"
       xlink:href="#linearGradient4148"
       id="radialGradient4267"
       cx="185.09828"
       cy="61.110271"
       fx="185.09828"
       fy="61.110271"
       r="117.96938"
       gradientTransform="matrix(6.3970607e-4,0.10826784,-1.3013562,0.00772229,264.50609,40.598164)"
       gradientUnits="userSpaceOnUse" />
  </defs>
  <sodipodi:namedview
     id="base"
     pagecolor="#ffffff"
     bordercolor="#666666"
     borderopacity="1.0"
     inkscape:pageopacity="0.0"
     inkscape:pageshadow="2"
     inkscape:zoom="2.8"
     inkscape:cx="181.03534"
     inkscape:cy="50.666219"
     inkscape:document-units="px"
     inkscape:current-layer="layer1"
     showgrid="false"
     inkscape:window-width="1920"
     inkscape:window-height="994"
     inkscape:window-x="-4"
     inkscape:window-y="20"
     inkscape:window-maximized="1"
     units="px" />
  <metadata
     id="metadata7">
    <rdf:RDF>
      <cc:Work
         rdf:about="">
        <dc:format>image/svg+xml</dc:format>
        <dc:type
           rdf:resource="http://purl.org/dc/dcmitype/StillImage" />
        <dc:title />
      </cc:Work>
    </rdf:RDF>
  </metadata>
  <g
     inkscape:label="Layer 1"
     inkscape:groupmode="layer"
     id="layer1"
     transform="translate(0,-960.36216)">
    <g
       id="g4220"
       transform="matrix(0.9883674,0,0,0.9975647,-96.985588,111.91637)">
      <path
         style="fill:url(#radialGradient4259);fill-opacity:1"
         d="m 123.71569,937.26169 c -9.70189,-1.80016 -17.71362,-9.3824 -19.86581,-18.80083 -1.28666,-5.6307 -0.9179,-8.42493 3.02832,-22.94678 1.58509,-5.83302 3.4663,-13.45132 4.18046,-16.92954 1.09172,-5.31701 1.87656,-6.71662 4.9287,-8.78933 l 3.63021,-2.4653 3.65459,3.78118 c 2.01002,2.07965 4.18,3.78118 4.82218,3.78118 0.64218,0 2.63523,-1.67625 4.42901,-3.72499 l 3.26141,-3.72499 3.99108,3.25922 c 3.58428,2.92701 4.30826,4.41771 7.10284,14.62509 1.71147,6.25123 3.96305,14.01725 5.00353,17.25782 2.59141,8.07102 2.51731,16.21779 -0.19933,21.91367 -4.52894,9.49564 -16.39463,14.91088 -27.96719,12.7636 z"
         id="path4195"
         inkscape:connector-curvature="0"
         sodipodi:nodetypes="ssssscssscsssss" />
      <path
         style="fill:#77b048;fill-opacity:1"
         d="m 124.1097,874.78492 c -2.65375,-2.56796 -5.30549,-2.81938 -10.09529,-0.95718 -1.47677,0.57415 -1.92503,0.26877 -1.92503,-1.31152 0,-4.0697 2.46646,-7.14633 6.64044,-8.28318 2.94473,-0.80204 4.56698,-2.04279 5.83733,-4.46454 1.09251,-2.08273 2.84401,-3.60131 4.6214,-4.00685 3.72674,-0.85031 5.50302,0.70956 3.903,3.42743 -1.83542,3.11771 -1.48068,3.95853 1.95998,4.64552 3.79171,0.75708 7.29047,4.03033 8.24793,7.71629 0.85397,3.28771 -0.48216,4.23126 -3.27269,2.31106 -3.03825,-2.09068 -5.22014,-1.82248 -8.13714,1.00023 -3.25105,3.14594 -4.46148,3.13392 -7.77993,-0.0773 z"
         id="path4193"
         inkscape:connector-curvature="0" />
    </g>
    <flowRoot
       xml:space="preserve"
       id="flowRoot4224"
       style="font-style:normal;font-weight:normal;font-size:40px;line-height:125%;font-family:sans-serif;letter-spacing:0px;word-spacing:0px;fill:url(#radialGradient4267);fill-opacity:1;stroke:none;stroke-width:1px;stroke-linecap:butt;stroke-linejoin:miter;stroke-opacity:1"
       transform="matrix(0.99602121,0,0,0.99388379,5.1381854,950.62565)"><flowRegion
         id="flowRegion4226"
         style="fill:url(#radialGradient4267);fill-opacity:1.0"><rect
           id="rect4228"
           width="483.86307"
           height="65.154839"
           x="62.629459"
           y="18.763941"
           style="fill:url(#radialGradient4267);fill-opacity:1.0" /></flowRegion><flowPara
         id="flowPara4230"
         style="font-style:normal;font-variant:normal;font-weight:500;font-stretch:normal;font-size:60px;font-family:StratumNo1;-inkscape-font-specification:'StratumNo1 Medium';fill:url(#radialGradient4267);fill-opacity:1.0">Object Kit</flowPara></flowRoot>  </g>
</svg>
