<?xml version="1.0" encoding="UTF-8" standalone="no"?>
<!-- Created with Inkscape (http://www.inkscape.org/) -->

<svg
   xmlns:dc="http://purl.org/dc/elements/1.1/"
   xmlns:cc="http://creativecommons.org/ns#"
   xmlns:rdf="http://www.w3.org/1999/02/22-rdf-syntax-ns#"
   xmlns:svg="http://www.w3.org/2000/svg"
   xmlns="http://www.w3.org/2000/svg"
   xmlns:xlink="http://www.w3.org/1999/xlink"
   xmlns:sodipodi="http://sodipodi.sourceforge.net/DTD/sodipodi-0.dtd"
   xmlns:inkscape="http://www.inkscape.org/namespaces/inkscape"
   width="6000"
   height="1000"
   viewBox="0 0 5999.9999 999.99995"
   id="svg2"
   version="1.1"
   inkscape:version="0.91 r13725"
   sodipodi:docname="logotype.svg"
   inkscape:export-filename="/ws/newinit/doc/logotype.png"
   inkscape:export-xdpi="11.505155"
   inkscape:export-ydpi="11.505155">
  <defs
     id="defs4">
    <linearGradient
       id="linearGradient4213"
       inkscape:collect="always">
      <stop
         id="stop4223"
         offset="0"
         style="stop-color:#008cc4;stop-opacity:1" />
      <stop
         id="stop4225"
         offset="1"
         style="stop-color:#2e1380;stop-opacity:1" />
    </linearGradient>
    <radialGradient
       inkscape:collect="always"
       xlink:href="#linearGradient4213"
       id="radialGradient4231"
       cx="2646.9243"
       cy="773.12329"
       fx="2646.9243"
       fy="773.12329"
       r="2395.0686"
       gradientTransform="matrix(-1.8519257,8.6706417e-8,0,-0.18204068,7548.8317,913.86301)"
       gradientUnits="userSpaceOnUse" />
  </defs>
  <sodipodi:namedview
     id="base"
     pagecolor="#ffffff"
     bordercolor="#666666"
     borderopacity="1.0"
     inkscape:pageopacity="0.0"
     inkscape:pageshadow="2"
     inkscape:zoom="0.13330895"
     inkscape:cx="2973.0606"
     inkscape:cy="-754.65677"
     inkscape:document-units="px"
     inkscape:current-layer="layer1"
     showgrid="true"
     units="px"
     inkscape:snap-bbox="true"
     inkscape:bbox-paths="true"
     inkscape:bbox-nodes="true"
     inkscape:snap-center="true"
     inkscape:window-width="1920"
     inkscape:window-height="994"
     inkscape:window-x="-4"
     inkscape:window-y="20"
     inkscape:window-maximized="1">
    <inkscape:grid
       type="xygrid"
       id="grid4136"
       spacingx="24.999999"
       spacingy="24.999999" />
  </sodipodi:namedview>
  <metadata
     id="metadata7">
    <rdf:RDF>
      <cc:Work
         rdf:about="">
        <dc:format>image/svg+xml</dc:format>
        <dc:type
           rdf:resource="http://purl.org/dc/dcmitype/StillImage" />
        <dc:title></dc:title>
      </cc:Work>
    </rdf:RDF>
  </metadata>
  <g
     inkscape:label="Layer 1"
     inkscape:groupmode="layer"
     id="layer1"
     transform="translate(0,-52.362279)">
    <g
       id="g4176"
       style="fill:#000080">
      <g
         inkscape:export-ydpi="56.25"
         inkscape:export-xdpi="56.25"
         id="g4245"
         transform="matrix(7.03125,0,0,-7.03125,-444.37496,-291.38772)"
         style="fill:#000080">
        <g
           style="fill:#000080;fill-opacity:1"
           inkscape:export-ydpi="62.67791"
           inkscape:export-xdpi="62.67791"
           transform="matrix(-0.10858339,-0.56506928,0.56506928,-0.10858339,110.75215,-77.056797)"
           id="g4247">
          <g
             style="fill:#000080;fill-opacity:1"
             inkscape:export-ydpi="51.923077"
             inkscape:export-xdpi="51.923077"
             id="g4249"
             transform="translate(-1.3349245,0.204632)">
            <path
               inkscape:connector-curvature="0"
               style="fill:#000080;fill-opacity:1;fill-rule:nonzero;stroke:none"
               id="path4251"
               d="m 77.366845,131.32135 c -6.742552,5.77441 -7.43122,14.47345 -7.43122,14.47345 -0.256397,1.08048 -0.400467,8.14576 -0.400467,8.14576 0.118174,8.08246 -3.864061,12.13952 -3.864061,12.13952 -4.584351,5.84066 -11.885906,8.8143 -11.885906,8.8143 0.317195,-0.0807 3.633642,-3.54697 3.636535,-3.54986 7.785579,-8.34459 0.619496,-18.10403 0.619496,-18.10403 -1.777885,-2.6941 -4.155013,-8.30428 -4.155013,-8.30428 -3.051493,-7.36203 0.677096,-13.09031 1.241844,-13.87983 7.356303,1.22461 14.856675,1.30816 22.238894,0.2651" />
            <path
               inkscape:connector-curvature="0"
               style="fill:#000080;fill-opacity:1;fill-rule:nonzero;stroke:none"
               id="path4253"
               d="m 52.6993,-3.730714 c 6.74256,-5.77441 7.43122,-14.47345 7.43122,-14.47345 0.2564,-1.08048 0.40047,-8.14576 0.40047,-8.14576 -0.11817,-8.08246 3.86406,-12.13952 3.86406,-12.13952 4.584353,-5.84066 11.885908,-8.8143 11.885908,-8.8143 -0.317195,0.0807 -3.633642,3.54697 -3.636535,3.54986 -7.785583,8.34459 -0.619496,18.10403 -0.619496,18.10403 1.777885,2.6941 4.155013,8.30428 4.155013,8.30428 3.051493,7.36203 -0.677096,13.09031 -1.241844,13.87983 -7.356306,-1.22461 -14.856676,-1.30816 -22.238896,-0.2651" />
          </g>
          <g
             style="fill:#000080;fill-opacity:1"
             inkscape:export-ydpi="51.923077"
             inkscape:export-xdpi="51.923077"
             transform="matrix(0.92387953,-0.38268343,0.38268343,0.92387953,-20.797988,29.947842)"
             id="g4255">
            <path
               d="m 77.366845,131.32135 c -6.742552,5.77441 -7.43122,14.47345 -7.43122,14.47345 -0.256397,1.08048 -0.400467,8.14576 -0.400467,8.14576 0.118174,8.08246 -3.864061,12.13952 -3.864061,12.13952 -4.584351,5.84066 -11.885906,8.8143 -11.885906,8.8143 0.317195,-0.0807 3.633642,-3.54697 3.636535,-3.54986 7.785579,-8.34459 0.619496,-18.10403 0.619496,-18.10403 -1.777885,-2.6941 -4.155013,-8.30428 -4.155013,-8.30428 -3.051493,-7.36203 0.677096,-13.09031 1.241844,-13.87983 7.356303,1.22461 14.856675,1.30816 22.238894,0.2651"
               id="path4257"
               style="fill:#000080;fill-opacity:1;fill-rule:nonzero;stroke:none"
               inkscape:connector-curvature="0" />
            <path
               d="m 52.6993,-3.730714 c 6.74256,-5.77441 7.43122,-14.47345 7.43122,-14.47345 0.2564,-1.08048 0.40047,-8.14576 0.40047,-8.14576 -0.11817,-8.08246 3.86406,-12.13952 3.86406,-12.13952 4.584353,-5.84066 11.885908,-8.8143 11.885908,-8.8143 -0.317195,0.0807 -3.633642,3.54697 -3.636535,3.54986 -7.785583,8.34459 -0.619496,18.10403 -0.619496,18.10403 1.777885,2.6941 4.155013,8.30428 4.155013,8.30428 3.051493,7.36203 -0.677096,13.09031 -1.241844,13.87983 -7.356306,-1.22461 -14.856676,-1.30816 -22.238896,-0.2651"
               id="path4259"
               style="fill:#000080;fill-opacity:1;fill-rule:nonzero;stroke:none"
               inkscape:connector-curvature="0" />
          </g>
          <g
             style="fill:#000080;fill-opacity:1"
             inkscape:export-ydpi="51.923077"
             inkscape:export-xdpi="51.923077"
             id="g4261"
             transform="matrix(0.70710678,-0.70710678,0.70710678,0.70710678,-27.39728,64.875176)">
            <path
               inkscape:connector-curvature="0"
               style="fill:#000080;fill-opacity:1;fill-rule:nonzero;stroke:none"
               id="path4263"
               d="m 77.366845,131.32135 c -6.742552,5.77441 -7.43122,14.47345 -7.43122,14.47345 -0.256397,1.08048 -0.400467,8.14576 -0.400467,8.14576 0.118174,8.08246 -3.864061,12.13952 -3.864061,12.13952 -4.584351,5.84066 -11.885906,8.8143 -11.885906,8.8143 0.317195,-0.0807 3.633642,-3.54697 3.636535,-3.54986 7.785579,-8.34459 0.619496,-18.10403 0.619496,-18.10403 -1.777885,-2.6941 -4.155013,-8.30428 -4.155013,-8.30428 -3.051493,-7.36203 0.677096,-13.09031 1.241844,-13.87983 7.356303,1.22461 14.856675,1.30816 22.238894,0.2651" />
            <path
               inkscape:connector-curvature="0"
               style="fill:#000080;fill-opacity:1;fill-rule:nonzero;stroke:none"
               id="path4265"
               d="m 52.6993,-3.730714 c 6.74256,-5.77441 7.43122,-14.47345 7.43122,-14.47345 0.2564,-1.08048 0.40047,-8.14576 0.40047,-8.14576 -0.11817,-8.08246 3.86406,-12.13952 3.86406,-12.13952 4.584353,-5.84066 11.885908,-8.8143 11.885908,-8.8143 -0.317195,0.0807 -3.633642,3.54697 -3.636535,3.54986 -7.785583,8.34459 -0.619496,18.10403 -0.619496,18.10403 1.777885,2.6941 4.155013,8.30428 4.155013,8.30428 3.051493,7.36203 -0.677096,13.09031 -1.241844,13.87983 -7.356306,-1.22461 -14.856676,-1.30816 -22.238896,-0.2651" />
          </g>
          <g
             style="fill:#000080;fill-opacity:1"
             transform="matrix(0.38268343,-0.92387953,0.92387953,0.38268343,-20.128119,99.669265)"
             id="g4267">
            <path
               inkscape:export-ydpi="51.923077"
               inkscape:export-xdpi="51.923077"
               d="m 77.366845,131.32135 c -6.742552,5.77441 -7.43122,14.47345 -7.43122,14.47345 -0.256397,1.08048 -0.400467,8.14576 -0.400467,8.14576 0.118174,8.08246 -3.864061,12.13952 -3.864061,12.13952 -4.584351,5.84066 -11.885906,8.8143 -11.885906,8.8143 0.317195,-0.0807 3.633642,-3.54697 3.636535,-3.54986 7.785579,-8.34459 0.619496,-18.10403 0.619496,-18.10403 -1.777885,-2.6941 -4.155013,-8.30428 -4.155013,-8.30428 -3.051493,-7.36203 0.677096,-13.09031 1.241844,-13.87983 7.356303,1.22461 14.856675,1.30816 22.238894,0.2651"
               id="path4269"
               style="fill:#000080;fill-opacity:1;fill-rule:nonzero;stroke:none"
               inkscape:connector-curvature="0" />
            <path
               inkscape:export-ydpi="51.923077"
               inkscape:export-xdpi="51.923077"
               d="m 52.6993,-3.730714 c 6.74256,-5.77441 7.43122,-14.47345 7.43122,-14.47345 0.2564,-1.08048 0.40047,-8.14576 0.40047,-8.14576 -0.11817,-8.08246 3.86406,-12.13952 3.86406,-12.13952 4.584353,-5.84066 11.885908,-8.8143 11.885908,-8.8143 -0.317195,0.0807 -3.633642,3.54697 -3.636535,3.54986 -7.785583,8.34459 -0.619496,18.10403 -0.619496,18.10403 1.777885,2.6941 4.155013,8.30428 4.155013,8.30428 3.051493,7.36203 -0.677096,13.09031 -1.241844,13.87983 -7.356306,-1.22461 -14.856676,-1.30816 -22.238896,-0.2651"
               id="path4271"
               style="fill:#000080;fill-opacity:1;fill-rule:nonzero;stroke:none"
               inkscape:connector-curvature="0" />
          </g>
          <g
             style="fill:#000080;fill-opacity:1"
             inkscape:export-ydpi="51.923077"
             inkscape:export-xdpi="51.923077"
             id="g4273"
             transform="matrix(0,-1,1,0,-0.09716829,129.03302)">
            <path
               inkscape:connector-curvature="0"
               style="fill:#000080;fill-opacity:1;fill-rule:nonzero;stroke:none"
               id="path4275"
               d="m 77.366845,131.32135 c -6.742552,5.77441 -7.43122,14.47345 -7.43122,14.47345 -0.256397,1.08048 -0.400467,8.14576 -0.400467,8.14576 0.118174,8.08246 -3.864061,12.13952 -3.864061,12.13952 -4.584351,5.84066 -11.885906,8.8143 -11.885906,8.8143 0.317195,-0.0807 3.633642,-3.54697 3.636535,-3.54986 7.785579,-8.34459 0.619496,-18.10403 0.619496,-18.10403 -1.777885,-2.6941 -4.155013,-8.30428 -4.155013,-8.30428 -3.051493,-7.36203 0.677096,-13.09031 1.241844,-13.87983 7.356303,1.22461 14.856675,1.30816 22.238894,0.2651" />
            <path
               inkscape:connector-curvature="0"
               style="fill:#000080;fill-opacity:1;fill-rule:nonzero;stroke:none"
               id="path4277"
               d="m 52.6993,-3.730714 c 6.74256,-5.77441 7.43122,-14.47345 7.43122,-14.47345 0.2564,-1.08048 0.40047,-8.14576 0.40047,-8.14576 -0.11817,-8.08246 3.86406,-12.13952 3.86406,-12.13952 4.584353,-5.84066 11.885908,-8.8143 11.885908,-8.8143 -0.317195,0.0807 -3.633642,3.54697 -3.636535,3.54986 -7.785583,8.34459 -0.619496,18.10403 -0.619496,18.10403 1.777885,2.6941 4.155013,8.30428 4.155013,8.30428 3.051493,7.36203 -0.677096,13.09031 -1.241844,13.87983 -7.356306,-1.22461 -14.856676,-1.30816 -22.238896,-0.2651" />
          </g>
          <g
             style="fill:#000080;fill-opacity:1"
             inkscape:export-ydpi="51.923077"
             inkscape:export-xdpi="51.923077"
             transform="matrix(-0.38268343,-0.92387953,0.92387953,-0.38268343,29.646041,148.49608)"
             id="g4279">
            <path
               d="m 77.366845,131.32135 c -6.742552,5.77441 -7.43122,14.47345 -7.43122,14.47345 -0.256397,1.08048 -0.400467,8.14576 -0.400467,8.14576 0.118174,8.08246 -3.864061,12.13952 -3.864061,12.13952 -4.584351,5.84066 -11.885906,8.8143 -11.885906,8.8143 0.317195,-0.0807 3.633642,-3.54697 3.636535,-3.54986 7.785579,-8.34459 0.619496,-18.10403 0.619496,-18.10403 -1.777885,-2.6941 -4.155013,-8.30428 -4.155013,-8.30428 -3.051493,-7.36203 0.677096,-13.09031 1.241844,-13.87983 7.356303,1.22461 14.856675,1.30816 22.238894,0.2651"
               id="path4281"
               style="fill:#000080;fill-opacity:1;fill-rule:nonzero;stroke:none"
               inkscape:connector-curvature="0" />
            <path
               d="m 52.6993,-3.730714 c 6.74256,-5.77441 7.43122,-14.47345 7.43122,-14.47345 0.2564,-1.08048 0.40047,-8.14576 0.40047,-8.14576 -0.11817,-8.08246 3.86406,-12.13952 3.86406,-12.13952 4.584353,-5.84066 11.885908,-8.8143 11.885908,-8.8143 -0.317195,0.0807 -3.633642,3.54697 -3.636535,3.54986 -7.785583,8.34459 -0.619496,18.10403 -0.619496,18.10403 1.777885,2.6941 4.155013,8.30428 4.155013,8.30428 3.051493,7.36203 -0.677096,13.09031 -1.241844,13.87983 -7.356306,-1.22461 -14.856676,-1.30816 -22.238896,-0.2651"
               id="path4283"
               style="fill:#000080;fill-opacity:1;fill-rule:nonzero;stroke:none"
               inkscape:connector-curvature="0" />
          </g>
          <g
             style="fill:#000080;fill-opacity:1"
             inkscape:export-ydpi="51.923077"
             inkscape:export-xdpi="51.923077"
             id="g4285"
             transform="matrix(-0.70710678,-0.70710678,0.70710678,-0.70710678,64.573375,155.09537)">
            <path
               inkscape:connector-curvature="0"
               style="fill:#000080;fill-opacity:1;fill-rule:nonzero;stroke:none"
               id="path4287"
               d="m 77.366845,131.32135 c -6.742552,5.77441 -7.43122,14.47345 -7.43122,14.47345 -0.256397,1.08048 -0.400467,8.14576 -0.400467,8.14576 0.118174,8.08246 -3.864061,12.13952 -3.864061,12.13952 -4.584351,5.84066 -11.885906,8.8143 -11.885906,8.8143 0.317195,-0.0807 3.633642,-3.54697 3.636535,-3.54986 7.785579,-8.34459 0.619496,-18.10403 0.619496,-18.10403 -1.777885,-2.6941 -4.155013,-8.30428 -4.155013,-8.30428 -3.051493,-7.36203 0.677096,-13.09031 1.241844,-13.87983 7.356303,1.22461 14.856675,1.30816 22.238894,0.2651" />
            <path
               inkscape:connector-curvature="0"
               style="fill:#000080;fill-opacity:1;fill-rule:nonzero;stroke:none"
               id="path4289"
               d="m 52.6993,-3.730714 c 6.74256,-5.77441 7.43122,-14.47345 7.43122,-14.47345 0.2564,-1.08048 0.40047,-8.14576 0.40047,-8.14576 -0.11817,-8.08246 3.86406,-12.13952 3.86406,-12.13952 4.584353,-5.84066 11.885908,-8.8143 11.885908,-8.8143 -0.317195,0.0807 -3.633642,3.54697 -3.636535,3.54986 -7.785583,8.34459 -0.619496,18.10403 -0.619496,18.10403 1.777885,2.6941 4.155013,8.30428 4.155013,8.30428 3.051493,7.36203 -0.677096,13.09031 -1.241844,13.87983 -7.356306,-1.22461 -14.856676,-1.30816 -22.238896,-0.2651" />
          </g>
          <g
             style="fill:#000080;fill-opacity:1"
             inkscape:export-ydpi="51.923077"
             inkscape:export-xdpi="51.923077"
             transform="matrix(-0.92387953,-0.38268343,0.38268343,-0.92387953,99.367464,147.82621)"
             id="g4291">
            <path
               d="m 77.366845,131.32135 c -6.742552,5.77441 -7.43122,14.47345 -7.43122,14.47345 -0.256397,1.08048 -0.400467,8.14576 -0.400467,8.14576 0.118174,8.08246 -3.864061,12.13952 -3.864061,12.13952 -4.584351,5.84066 -11.885906,8.8143 -11.885906,8.8143 0.317195,-0.0807 3.633642,-3.54697 3.636535,-3.54986 7.785579,-8.34459 0.619496,-18.10403 0.619496,-18.10403 -1.777885,-2.6941 -4.155013,-8.30428 -4.155013,-8.30428 -3.051493,-7.36203 0.677096,-13.09031 1.241844,-13.87983 7.356303,1.22461 14.856675,1.30816 22.238894,0.2651"
               id="path4293"
               style="fill:#000080;fill-opacity:1;fill-rule:nonzero;stroke:none"
               inkscape:connector-curvature="0" />
            <path
               d="m 52.6993,-3.730714 c 6.74256,-5.77441 7.43122,-14.47345 7.43122,-14.47345 0.2564,-1.08048 0.40047,-8.14576 0.40047,-8.14576 -0.11817,-8.08246 3.86406,-12.13952 3.86406,-12.13952 4.584353,-5.84066 11.885908,-8.8143 11.885908,-8.8143 -0.317195,0.0807 -3.633642,3.54697 -3.636535,3.54986 -7.785583,8.34459 -0.619496,18.10403 -0.619496,18.10403 1.777885,2.6941 4.155013,8.30428 4.155013,8.30428 3.051493,7.36203 -0.677096,13.09031 -1.241844,13.87983 -7.356306,-1.22461 -14.856676,-1.30816 -22.238896,-0.2651"
               id="path4295"
               style="fill:#000080;fill-opacity:1;fill-rule:nonzero;stroke:none"
               inkscape:connector-curvature="0" />
          </g>
        </g>
      </g>
      <circle
         r="247.5"
         cy="552.36224"
         cx="540.00012"
         id="path4252"
         style="color:#000000;clip-rule:nonzero;display:inline;overflow:visible;visibility:visible;opacity:1;isolation:auto;mix-blend-mode:normal;color-interpolation:sRGB;color-interpolation-filters:linearRGB;solid-color:#000000;solid-opacity:1;fill:#000080;fill-opacity:1;fill-rule:nonzero;stroke:none;stroke-width:0.2;stroke-linecap:butt;stroke-linejoin:miter;stroke-miterlimit:4;stroke-dasharray:none;stroke-dashoffset:0;stroke-opacity:1;color-rendering:auto;image-rendering:auto;shape-rendering:auto;text-rendering:auto;enable-background:accumulate" />
    </g>
    <flowRoot
       xml:space="preserve"
       id="flowRoot4196"
       style="font-style:normal;font-weight:normal;font-size:25px;line-height:125%;font-family:Sans;letter-spacing:0px;word-spacing:0px;fill:url(#radialGradient4231);fill-opacity:1;stroke:none;stroke-width:1px;stroke-linecap:butt;stroke-linejoin:miter;stroke-opacity:1"
       inkscape:export-xdpi="62.67791"
       inkscape:export-ydpi="62.67791"
       transform="translate(788.14453,-156.76102)"><flowRegion
         id="flowRegion4198"
         style="fill-opacity:1;fill:url(#radialGradient4231)"><rect
           id="rect4200"
           width="5618.4746"
           height="1571.0211"
           x="223.85587"
           y="208.50211"
           style="fill:url(#radialGradient4231);fill-opacity:1" /></flowRegion><flowPara
         id="flowPara4202"
         style="font-style:normal;font-variant:normal;font-weight:500;font-stretch:normal;font-size:800px;font-family:StratumNo1;-inkscape-font-specification:'StratumNo1 Medium';fill:url(#radialGradient4231);fill-opacity:1">JX Objective-C<flowSpan
   style="font-style:normal;font-variant:normal;font-weight:500;font-stretch:normal;font-size:800px;font-family:StratumNo1;-inkscape-font-specification:'StratumNo1 Medium';fill:url(#radialGradient4231);fill-opacity:1"
   id="flowSpan4262" /></flowPara></flowRoot>  </g>
</svg>
