<?xml version="1.0" encoding="UTF-8" standalone="no"?>
<!-- Created with Inkscape (http://www.inkscape.org/) -->

<svg
   xmlns:dc="http://purl.org/dc/elements/1.1/"
   xmlns:cc="http://creativecommons.org/ns#"
   xmlns:rdf="http://www.w3.org/1999/02/22-rdf-syntax-ns#"
   xmlns:svg="http://www.w3.org/2000/svg"
   xmlns="http://www.w3.org/2000/svg"
   xmlns:sodipodi="http://sodipodi.sourceforge.net/DTD/sodipodi-0.dtd"
   xmlns:inkscape="http://www.inkscape.org/namespaces/inkscape"
   width="267.94992"
   height="58.000183"
   viewBox="0 0 267.94991 58.00018"
   id="svg4402"
   version="1.1"
   inkscape:version="0.91 r13725"
   sodipodi:docname="newltyp.svg"
   inkscape:export-filename="/ws/JXobjC/doc/newltyp.png"
   inkscape:export-xdpi="226.78821"
   inkscape:export-ydpi="226.78821">
  <defs
     id="defs4404" />
  <sodipodi:namedview
     id="base"
     pagecolor="#ffffff"
     bordercolor="#666666"
     borderopacity="1.0"
     inkscape:pageopacity="0.0"
     inkscape:pageshadow="2"
     inkscape:zoom="3.959798"
     inkscape:cx="96.409685"
     inkscape:cy="22.111896"
     inkscape:document-units="px"
     inkscape:current-layer="g5409"
     showgrid="false"
     showguides="true"
     inkscape:window-width="1920"
     inkscape:window-height="994"
     inkscape:window-x="-4"
     inkscape:window-y="20"
     inkscape:window-maximized="1"
     fit-margin-top="5"
     fit-margin-left="5"
     fit-margin-right="5"
     fit-margin-bottom="5"
     units="px" />
  <metadata
     id="metadata4407">
    <rdf:RDF>
      <cc:Work
         rdf:about="">
        <dc:format>image/svg+xml</dc:format>
        <dc:type
           rdf:resource="http://purl.org/dc/dcmitype/StillImage" />
        <dc:title />
      </cc:Work>
    </rdf:RDF>
  </metadata>
  <g
     inkscape:label="Layer 1"
     inkscape:groupmode="layer"
     id="layer1"
     transform="translate(5,-1003.362)">
    <g
       id="g5394">
      <g
         id="g5409">
        <path
           style="fill:#000000"
           d="m 8.7670088,1008.3628 c -1.8111557,0.1583 -3.7185394,0.4483 -5.311764,1.3425 -1.1639178,0.653 -3.67755676,1.3772 -3.43944202,2.6675 1.54902672,-0.9509 3.21168472,-1.6355 5.03202622,-1.9776 2.2387396,-0.7144 4.6165401,0.6189 6.739835,1.2147 1.489261,0.5306 2.525022,1.5517 3.986098,2.2562 1.22877,1.1292 2.911297,1.635 4.291696,2.2779 0.597582,1.6145 0.162057,3.3367 0.777577,4.8067 0.423215,2.0403 0.549968,4.1896 0.198542,6.2471 -0.253949,1.1494 -1.653475,1.8764 -2.478549,2.7041 -0.211417,0.2121 -0.385122,0.4309 -0.492183,0.6649 -0.06816,0.1492 -0.466218,0.4149 -0.411981,0.6614 0.05931,0.2694 0.57817,0.5217 0.663116,0.7241 0.957356,1.2971 2.726778,2.9831 0.559117,4.2394 -0.562537,0.2801 -0.707216,0.7613 -1.042436,0.9552 0,0 -0.517613,0.5738 -0.514313,0.8478 0.0029,0.2477 0.451498,0.4517 0.616811,0.6673 0.330574,0.4312 0.933549,0.7834 1.600326,0.996 0.618927,1.7171 1.521535,3.386 1.548921,5.2332 0.399022,1.7323 0.352416,3.4566 -0.01597,5.1861 -0.820702,1.6257 -1.998192,2.6225 -4.091862,2.5909 -1.722092,0.01 -2.40146,0.024 -4.116419,-0.9867 -1.393494,-0.8461 -2.830306,-1.6339 -3.9482668,-2.8173 -0.9878313,-1.3461 -2.0256123,-2.9926 -1.9432952,-4.8855 0.296095,-1.9614 -0.8166417,-1.8151 -2.027475,-0.9396 -1.6151799,1.4847 -0.9539766,3.9884 -0.017291,5.6531 0.9461374,1.6142 2.5030428,2.83 3.8064292,4.0361 1.4588978,0.591 3.0599888,1.3865 4.5500048,1.5578 3.051697,0.071 6.205666,0.2743 9.165701,-0.5248 1.454023,-0.129 2.760091,-1.7292 3.777891,-2.8469 0.933435,-1.8094 0.721695,-3.9906 1.417524,-5.8773 0.115786,-1.7644 0.680368,-3.4338 0.582818,-5.2178 0.0672,-4.5172 0.162296,-9.0439 -0.09726,-13.556 -0.489805,-1.7156 0.126078,-3.7882 -0.136587,-5.6469 -0.47471,-1.6953 0.190132,-3.8632 -0.14324,-5.3312 0.555096,-1.9466 2.578834,-2.5868 3.861173,-3.9339 1.305046,-2.1005 -2.283916,0.4149 -2.283916,0.4149 0,0 -3.193623,1.916 -4.964193,2.4786 -1.805551,0.3438 -3.940274,-0.5346 -5.488612,-1.4047 -1.308564,-0.9932 -2.642634,-1.7625 -3.929447,-2.7941 -1.541678,-0.9324 -3.259396,-1.158 -4.97007,-1.6251 -0.4350606,-0.048 -0.8738102,-0.063 -1.3110392,-0.058 z m 16.2336812,7.8094 c 0.580246,1.4904 0.231007,3.3319 0.435624,4.9567 0.263611,2.2217 -0.428737,4.4045 0.140771,6.6088 0.157577,5.2308 0.231797,10.4857 -0.173247,15.7052 -0.404461,2.4071 -0.910762,4.7941 -1.351136,7.1905 0.126886,1.6364 -4.471144,2.2947 -2.267106,0.4865 1.212761,-1.3688 1.271692,-3.3019 1.870974,-4.9574 0.500974,-1.9447 0.71268,-4.0029 0.866963,-5.9652 -0.527265,-2.3927 -0.0669,-4.8907 -0.513242,-7.303 -0.105535,-3.3127 -0.193075,-6.6234 -0.360558,-9.9308 -0.02898,-1.5752 0.414974,-3.3489 -0.28957,-4.6239 0.19306,-0.8925 0.819998,-1.7554 1.640527,-2.1674 z"
           id="path4148"
           inkscape:connector-curvature="0"
           sodipodi:nodetypes="cccccccccsssccssscccccccccccccccccccccccccccccccccccccc" />
        <path
           style="fill:#000000"
           d="m 60.855044,1012.5513 c -1.279657,0.4084 -2.392997,1.5154 -2.741581,3.0055 -0.432145,0.7093 -1.991424,3.7278 -1.708138,1.2536 -0.0581,-1.3176 0.933046,-3.8442 -0.278189,-3.9485 -0.512581,1.7211 -0.653674,3.5025 -0.721724,5.2992 0.100059,1.9346 -1.435163,3.091 -2.32781,4.5619 -0.763788,1.5011 -2.795454,2.9754 -3.231705,0.4296 -1.054659,-1.2223 -1.602876,-2.8092 -2.897463,-3.8476 -0.982605,-1.2621 -2.239503,-2.43 -2.828603,-3.9682 -0.638392,-0.7917 -0.898036,-2.9783 -2.124722,-1.2647 -1.409955,0.7156 -2.289017,2.0874 -3.371399,3.2515 -0.525556,0.3974 -1.351058,2.1657 -0.09984,1.132 1.1206,-0.6253 2.465769,-3.3766 3.15574,-1.0178 0.55933,1.5045 1.757376,2.5739 2.634412,3.8396 1.145535,1.0204 1.465487,2.7367 2.575013,3.6542 0.964862,1.2673 2.459647,2.3455 1.931939,4.1383 0.415427,1.174 0.308232,4.203 -1.475547,2.5616 -1.67464,-0.7249 -2.818121,1.288 -4.058276,2.0746 -0.975262,0.6772 -2.579572,3.2961 -0.396605,1.612 1.009289,-1.478 2.540691,-1.8151 3.785609,-0.4507 1.18192,0.5454 2.761865,0.7914 2.863827,2.0466 0.495737,1.0766 -1.138829,2.8375 -1.074123,4.3193 -0.239248,1.7446 -1.178511,3.0894 -2.170179,4.4942 -1.12726,1.3556 -1.921726,3.0338 -3.232609,4.1535 -1.682007,1.0761 -3.436648,0.3228 -4.860917,-0.7497 -1.356669,-1.1958 -2.903159,-2.7816 -2.782936,-4.7379 0.09065,-1.6504 -0.478113,-3.3312 0.467566,-4.8322 0.50828,-0.9655 2.260906,-2.5352 2.152259,-3.0927 -1.140112,1.3489 -2.657285,2.2166 -4.12001,3.1235 -1.235467,1.397 -1.41437,3.2916 -1.066619,5.1559 0.02013,1.9029 0.749373,3.7772 2.209663,5.0064 1.029381,1.2416 2.203337,1.7605 3.500847,2.5112 1.561027,0.2376 3.156077,-0.3509 4.404666,-1.149 1.310504,-1.1156 3.012659,-1.8103 3.841365,-3.4483 0.587923,-1.6155 2.044951,-2.7741 2.641752,-4.4209 1.231095,-1.1748 1.711851,1.9056 2.643795,2.5359 0.973224,1.6238 1.908188,3.1202 2.759195,4.8027 0.581308,1.1607 1.079537,1.79 2.398437,1.9654 1.315354,-1.056 1.967048,-2.6823 3.381052,-3.6461 0.794018,-1.1425 2.145227,-1.6952 2.856327,-2.9666 0.89008,-0.3382 1.071413,-2.005 -0.06801,-0.8803 -1.837779,1.302 -3.126403,3.3747 -5.135143,4.3901 -1.641189,-0.6207 -1.976913,-2.6746 -2.80551,-3.9497 -0.949826,-1.6824 0.06739,-3.8654 -0.17517,-5.762 0.04263,-1.7435 0.174327,-3.497 0.501218,-5.2055 0.573906,-1.0971 3.222,-2.5567 2.54684,-3.4781 -1.048744,-0.075 -2.726421,2.7786 -2.605739,0.9108 -0.372427,-1.4796 -0.230087,-3.0474 -0.486591,-4.3232 0.272242,-1.2306 -0.365042,-3.0312 0.679027,-4.2851 0.878764,-1.3708 -0.05659,-3.3782 1.17236,-4.7859 0.863209,-0.6593 1.530457,-2.582 2.54736,-2.5176 0.871123,1.692 3.324821,2.5696 2.796039,4.8193 0.0474,0.8453 -2.306075,2.3707 -0.365254,2.2102 1.574068,-1.0584 1.755846,-3.2048 1.881221,-4.9583 1.861456,-1.0258 -0.364306,-2.3627 -1.156837,-2.9222 -0.801448,-0.5842 -1.335884,-2.1436 -1.890074,-2.5478 l -0.07015,-0.1017 -5.9e-5,-3e-4 z m -5.416912,8.9247 c -0.283192,1.5151 -0.968788,3.2738 -0.775581,4.9874 -0.04387,2.2106 -0.05768,4.4436 0.05064,6.6388 -1.044005,1.6601 -3.467747,-0.488 -3.016772,-2.0759 0.198221,-1.5901 -0.721164,-3.5888 0.0063,-4.932 1.034019,-1.4946 2.242753,-2.9004 3.359368,-4.3795 l 0.145095,-0.1422 0.230867,-0.097 8.6e-5,0 z m -1.233419,13.849 c 1.403345,1.2954 -0.202148,3.3123 0.12954,4.9426 -0.0024,0.9158 0.0994,4.0956 -0.891415,1.8944 -0.698224,-1.5687 -2.093059,-3.0361 -2.314133,-4.6484 0.507655,-1.577 1.693142,-1.8404 3.076008,-2.1886 z"
           id="path4148-3"
           inkscape:connector-curvature="0" />
        <path
           style="fill:#000000"
           d="m 93.031019,1012.3622 c -1.79627,0.6587 -3.79837,0.9758 -5.12954,2.468 -1.97181,1.6331 -3.40575,3.751 -4.57074,5.9846 -2.10809,3.2403 -3.535967,7.0287 -3.306595,10.9195 0.225628,2.7888 0.03482,5.7079 1.326735,8.2906 0.99337,2.2321 2.28824,4.3347 3.54872,6.4313 1.27121,1.7139 2.81947,3.2285 4.41734,4.6445 1.66582,0.9353 3.72715,0.9822 5.59767,1.2615 3.46586,-0.1895 6.123171,-2.6243 8.807831,-4.5016 2.09263,-1.4666 3.40353,-3.6924 4.93201,-5.6669 1.22363,-1.7715 1.90533,-3.8245 2.6308,-5.8232 0.71259,-2.7454 0.76206,-5.6244 0.69083,-8.444 -0.177,-1.7218 -0.52042,-3.4534 -1.07917,-5.0977 -1.45218,-3.0714 -3.56514,-5.9512 -6.5477,-7.7431 -1.64884,-0.2323 -3.06299,-2.387 -4.789451,-1.353 -1.11064,0.2028 -2.33126,2.794 -3.0995,1.8107 0.13549,-0.6887 0.21998,-3.476 -0.46599,-1.5577 -0.59708,1.8269 -0.59959,3.761 -0.32241,5.6378 0.0204,2.1995 -0.43059,4.3719 -0.41903,6.5763 -0.12111,3.453 -0.28925,6.9119 -0.81492,10.3309 0.18408,2.0354 0.44043,4.0555 -0.063,6.0685 -0.24148,2.1515 -0.42702,4.3103 -0.77099,6.4494 -2.10077,0.8256 -3.21883,-1.9558 -4.7708,-2.8558 -2.09953,-1.5193 0.90786,-2.5413 1.90623,-3.6298 2.19982,-0.9345 2.25529,-3.2803 2.15737,-5.2951 0.44401,-1.8365 0.70467,-3.7012 0.81576,-5.5949 0.37137,-4.0656 0.35424,-8.1824 0.14253,-12.2633 -0.39818,-1.9386 0.006,-3.9763 -0.52853,-5.8804 0.0194,-0.4034 0.0312,-0.8651 -0.29551,-1.1671 z m -3.85811,2.4477 c 2.24677,0.7281 0.85375,3.6176 1.52449,5.305 0.34958,4.5381 0.0567,9.0967 -0.22495,13.6245 0.0996,2.2258 -1.02024,4.3265 -0.70311,6.5679 0.13314,1.6884 -1.70043,3.1207 -3.12743,3.3731 -0.89384,-1.4312 -1.49603,-3.111 -2.53208,-4.4968 -0.69975,-2.0563 -1.9763,-4.0186 -1.71241,-6.2788 -0.14173,-3.6049 -0.15997,-7.3943 1.65318,-10.6554 0.72948,-1.9293 2.51921,-3.3102 2.99388,-5.3527 0.78334,-0.6232 1.17866,-1.6558 2.12843,-2.0868 z m 9.42595,0.9646 c 2.259761,0.6886 4.376841,1.8158 5.998371,3.5337 1.76212,1.5515 2.81986,3.7005 3.58633,5.8571 0.72339,2.4946 1.11175,5.0766 0.90805,7.6732 -0.14355,4.7603 -1.89824,9.5617 -5.22187,13.0822 -1.93798,1.9095 -4.444641,3.3939 -7.250501,3.4828 -2.62947,0.6535 -2.18663,-2.208 -1.81237,-3.8224 0.21032,-1.8091 0.30155,-3.6125 0.54633,-5.4141 0.0465,-3.1793 -0.0634,-6.3836 0.5737,-9.5217 0.0671,-1.914 0.10421,-3.8329 0.1764,-5.7374 0.1167,-2.1526 0.61512,-4.21 0.22044,-6.3025 0.17396,-1.2478 1.1292,-2.3268 2.27512,-2.8309 z m 2.563621,19.3217 c -0.93993,0.3521 -2.003391,0.9643 -2.264981,1.2576 0.25306,0.5576 1.05001,2.3175 1.921391,2.9843 1.52523,-0.7496 0.2757,-0.232 2.71131,-1.4435 -0.79126,-0.9125 -1.58137,-2.0175 -2.36772,-2.7984 z"
           id="path4148-9"
           inkscape:connector-curvature="0"
           sodipodi:nodetypes="ccccccccccccccccccccccccccccccccccccccccccccccccccccccccc" />
        <path
           style="fill:#000000"
           d="m 117.41567,1022.3621 c -0.51916,0.4733 -1.07983,0.8552 -1.74638,0.9791 -0.26837,0.05 -0.44877,0.2158 -0.61263,0.4986 -0.39404,0.593 -0.52427,1.409 -0.6901,2.0418 -0.12643,0.4826 0.3531,0.5183 0.7082,0.7254 0.11728,1.4752 -0.17588,2.9632 -0.0961,4.4473 0.0476,4.6405 0.0561,9.2839 -0.0232,13.9235 0.0637,0.2962 -0.0821,1.0798 -0.0821,1.0798 -0.068,0.024 -0.22928,-0.1147 -0.29636,-0.075 -0.71904,0.4229 -1.53139,1.0934 -0.96206,1.9095 0.69569,0.9045 1.53765,1.6204 2.44783,2.2769 1.13417,0.8509 2.52883,1.7687 3.29697,2.1931 0.62173,-0.7259 1.60501,-1.1773 1.97964,-2.1489 0.63748,-0.97 1.66085,-1.6337 2.18758,-2.6839 0.25365,-1.0728 1.42325,-1.5326 2.19157,-2.2175 0.48278,-1.4015 0.16725,-1.9962 0.22586,-3.0768 0.01,-1.5336 -0.0235,-2.9818 -9e-4,-4.7235 0.11072,-1.8004 0.1647,-2.8129 -1.04096,-3.6404 -0.8819,-0.3316 -1.18199,-1.5438 -1.80348,-2.1321 0.53231,-0.2145 0.61073,-1.4683 -0.19127,-0.722 -0.85774,0.4582 -1.65215,0.9951 -2.28871,1.771 -0.88382,0.8764 -1.68721,1.9229 -2.76329,2.5313 -0.93688,-0.3653 0.10767,-1.8301 -0.16437,-2.6833 0.079,-1.7514 -0.10601,-3.5114 0.0352,-5.2575 0.17157,-1.1394 1.65201,-1.3164 1.65637,-2.5269 -0.27595,-0.6656 -1.20988,-0.6479 -1.66493,-1.2369 -0.90679,0.2321 0.49533,-1.1854 -0.30242,-1.252 z m 3.20313,12.0015 c 1.17674,0.5647 1.75734,1.6645 2.46149,2.5634 0.41759,1.187 0.13466,1.8567 0.15208,3.151 0.20729,2.0006 0.30651,3.9297 0.0805,6.0515 -0.74227,0.802 -1.33083,1.464 -2.16447,2.5829 -0.81091,0.8478 -2.35637,-0.4034 -3.1242,-0.9364 -0.30475,-0.9615 -0.50592,-2.0237 -0.44024,-2.9542 -0.19451,-1.0211 0.10878,-2.1253 -0.13478,-3.1664 -0.0613,-1.0632 0.35706,-2.0954 0.10647,-3.1709 -0.1349,-1.0167 0.28099,-2.211 1.20809,-2.6781 0.66352,-0.402 1.11555,-1.2198 1.85508,-1.4428 z"
           id="path4148-1"
           inkscape:connector-curvature="0"
           sodipodi:nodetypes="cscscccssccccccccccccccccccccccccccccccc" />
        <path
           style="fill:#000000"
           d="m 135.46395,1022.3621 c -1.85614,0.4586 -3.18147,1.9381 -4.33411,3.3505 -0.82827,0.8092 0.0627,1.7448 0.94513,0.9474 1.27154,-0.5336 1.39997,-1.9159 2.4808,-2.678 0.23643,-0.5089 1.27869,-1.0502 0.90818,-1.6199 z m -2.68437,5.4284 c -0.70182,0.8955 -3.17766,1.7859 -2.05856,3.0985 1.15575,0.9044 0.51821,2.588 0.71471,3.8411 -0.026,1.9077 0.20095,3.7992 0.39407,5.6918 0.0765,2.6287 0.11495,5.313 -0.50209,7.8852 -0.76783,1.1149 -1.4616,2.4288 -2.39205,3.5018 -0.95052,1.2584 -2.05192,1.6826 -3.32203,2.1962 -1.81837,0.7824 -3.49351,1.2273 -5.30356,1.5312 -1.93058,0.5668 0.55286,1.0868 1.50943,0.6818 1.44047,-0.2043 2.80286,-0.7605 4.14992,-1.2962 1.19096,-0.5176 2.56027,-0.6503 3.53075,-1.5859 1.24756,-1.003 2.05186,-2.4019 3.13589,-3.5493 1.18279,-1.2825 2.10236,-3.1195 2.39541,-4.5093 -0.0179,-1.2325 0.5692,-2.4154 0.30023,-3.6136 0.43542,-1.4064 -0.23191,-2.8187 -0.14842,-4.2466 -0.12342,-1.4906 0.039,-3.0348 -0.2812,-4.4925 -0.31614,-0.8947 0.96685,-2.2606 0.6382,-3.0104 -1.12318,-0.01 -1.58578,-1.5751 -2.51211,-1.9299 0.13327,0.1041 -0.24833,-0.3062 -0.24859,-0.1939 z"
           id="path4148-8"
           inkscape:connector-curvature="0"
           sodipodi:nodetypes="cccccccccccccccccccccccc" />
        <path
           style="fill:#000000"
           d="m 143.64437,1027.852 c -1.00611,0.4615 -1.59493,1.6952 -2.56788,2.2266 -0.70106,0.7154 -1.90028,1.1733 -1.68566,2.5902 -0.14127,3.1506 0.062,6.3205 -0.28128,9.4571 -0.0642,1.2281 -0.11161,2.5103 0.2665,3.6761 1.14434,0.9657 2.33557,1.8893 3.23462,3.2148 0.56547,0.8625 1.1225,1.7334 1.92304,2.2787 0.6092,0.6051 0.89508,0.8813 1.20195,0.9991 0.27211,0.1058 0.55928,-0.3779 1.16277,-0.8538 0.94238,-0.3874 1.1063,-1.6037 1.80319,-2.2494 0.66072,-1.1655 1.3156,-2.1927 2.09727,-3.3926 0.60671,-0.3269 1.3152,-2.1962 0.12589,-1.7142 -0.74707,0.5974 -1.46235,1.2908 -2.08895,2.0756 -0.58702,0.7934 -1.07924,1.6992 -1.75622,2.3867 -1.50255,-1.1556 -2.51404,-3.0431 -3.98797,-4.2355 -1.22643,-1.2997 -1.60083,-1.3152 -1.18748,-2.1393 0.25141,-1.1632 1.15448,-1.9941 1.91504,-2.6653 1.34049,-1.5107 2.86171,-2.7654 4.14145,-4.3599 0.68392,-0.4827 1.67105,-1.7579 0.83446,-2.6394 -1.0144,-0.5096 -1.58679,-1.788 -2.59125,-2.3302 -0.89928,-0.7019 -1.72405,-1.519 -2.55949,-2.3253 z m -1.13477,4.3964 c 1.0513,0.6472 1.98537,1.4874 3.02687,2.2062 1.41996,1.1367 0.1441,1.3376 -0.93938,2.7183 -0.87029,0.6046 -1.55249,1.4661 -2.1986,2.3666 -0.31559,0.1456 -0.13972,-1.1839 -0.23505,-1.7276 0.0558,-1.7989 -0.0824,-3.6198 0.10943,-5.4044 0.0408,-0.1037 0.13567,-0.2028 0.23673,-0.1591 z"
           id="path4148-7"
           inkscape:connector-curvature="0"
           sodipodi:nodetypes="cccccccscccccccccccccccccccc" />
        <path
           style="fill:#000000"
           d="m 157.02025,1028.4297 c -0.8992,0.9559 -2.14663,1.1073 -3.22144,1.6274 -0.86275,0.8665 -0.36604,2.3828 -0.51513,3.5485 -0.029,3.5159 0.024,7.0355 -0.1178,10.5476 0.15702,1.5613 1.51454,2.2531 2.2597,3.3747 0.89,1.2078 1.73787,2.4642 2.71117,3.5789 0.4889,1.1481 1.57555,1.6159 2.47929,0.7735 1.42262,-0.9865 2.8837,-1.9458 4.14244,-3.221 0.36898,-0.3059 1.50355,-1.4006 0.5082,-1.5443 -1.15235,0.4868 -2.66254,1.6271 -3.96499,2.5092 -1.21959,-1.4386 -0.62997,-0.6132 -1.04099,-1.3855 -0.60957,-0.7325 -1.4419,-1.2578 -1.79526,-2.2474 -0.74194,-0.9436 -1.89489,-1.7726 -2.45756,-2.8813 0.13771,-5.7231 0.11408,-5.0083 0.0613,-8.3804 -0.13041,-0.7549 -0.31991,-1.5361 -0.17464,-2.3085 1.21506,0.6455 1.24549,0.8031 2.34127,1.7499 0.92896,0.7903 1.65591,1.5732 1.68711,1.7116 0.0678,0.3011 -0.16608,0.3283 -0.49166,0.6394 0.20341,0.9423 1.30789,-0.3675 1.8229,-0.4845 0.80436,-0.2423 2.07964,-1.1222 1.41906,-2.2682 -0.91425,-0.6978 -1.59132,-1.4837 -2.49499,-2.5115 -1.20956,-0.9798 -1.9465,-1.6702 -3.15799,-2.8281 z"
           id="path4148-5"
           inkscape:connector-curvature="0"
           sodipodi:nodetypes="ccccccccccccccccsccccc" />
        <path
           style="fill:#000000"
           d="m 172.29497,1024.1394 c -1.51249,0.7126 -2.97306,1.6196 -4.20888,2.8554 -0.18476,2.0395 0.77252,3.0505 -1.69696,2.7065 -1.16474,0.098 -1.8424,1.3073 -2.59708,2.1629 0.34881,1.363 1.951,0.1969 2.8414,0.5109 1.34474,0.1024 1.47678,1.9289 1.49511,3.124 0.1597,3.0723 -0.24918,6.1728 0.22153,9.2244 0.006,0.3954 -0.0724,0.7443 -0.26842,1.007 -1.00082,1.3411 -1.40228,1.321 -1.62515,2.3076 0.88555,1.4622 0.95178,1.2954 2.34961,2.7085 1.07291,0.8752 1.54275,1.3715 2.47747,1.6156 0.63903,-0.4844 1.4157,-0.856 1.81589,-1.6831 0.49433,-0.9622 1.03629,-1.9178 1.87929,-2.5312 0.61694,-0.3095 1.39096,-2.047 0.15851,-1.4958 -0.863,0.6804 -1.59073,1.5413 -2.39823,2.2857 -0.73077,0.1505 -1.17366,-0.9311 -1.75404,-1.3696 -0.36464,-1.2689 -0.24316,-2.0183 -0.2385,-3.9279 0.004,-1.5446 -0.0101,-2.1927 0.0945,-3.2747 0.19375,-2.4042 -0.0697,-4.8315 0.23718,-7.2264 0.71122,-0.058 0.67446,-0.017 2.02461,-0.3763 0.82559,-0.4652 2.92791,-2.3393 1.37433,-2.7389 -1.00574,-0.2707 -2.79117,-0.3373 -3.80733,-0.3298 -0.32532,-1.1756 -0.50362,-2.2761 -0.11436,-3.3288 1.36015,-1.2456 1.18068,-0.7526 1.73955,-2.226 z"
           id="path4148-14"
           inkscape:connector-curvature="0"
           sodipodi:nodetypes="cccccccsccccccccccccccccc" />
        <path
           style="fill:#000000"
           d="m 196.51663,1028.1073 c -0.64539,0.8247 -2.33301,1.568 -1.71317,2.9433 0.65938,1.0699 2.06395,1.0895 2.60102,2.2839 0.27168,1.1641 0.0424,2.3956 0.0784,3.5892 -0.0396,1.3051 0.0383,2.6178 0.23915,3.8972 -0.0759,1.5665 0.055,3.5969 -0.60714,4.9913 -0.57287,1.0396 -1.62289,1.4717 -2.3201,2.3779 -1.02118,0.2583 -0.8984,-1.6936 -1.88068,-1.8772 -1.15825,-0.6361 -1.5447,-2.1058 -1.43473,-3.5158 -0.0387,-1.026 -0.30454,-2.0137 -0.30779,-3.047 -0.0222,-0.9627 -0.22176,-1.9018 -0.35215,-2.8408 -0.0602,-1.5792 0.20471,-3.1667 0.72581,-4.6191 0.58019,-0.7921 1.72426,-1.4691 0.90882,-2.264 -0.79388,-0.5722 -2.11001,-1.8528 -3.01449,-1.0081 -0.79796,0.8177 -1.75545,1.5534 -2.42879,2.4552 -0.14117,0.8515 0.65747,0.7173 0.994,0.5257 1.03235,0.7011 0.82419,0.7898 0.27924,3.3093 -0.41702,2.1091 -0.34759,4.3415 0.0855,6.4389 0.52019,1.2858 -0.37203,2.0825 -1.08301,2.8514 -0.49697,1.2263 0.83551,2.1023 1.45122,2.8536 0.90646,0.8576 1.84547,1.6638 2.77332,2.4894 0.75124,0.6324 1.21603,1.809 2.16105,2.0464 0.71191,-0.1852 1.04446,-1.2415 1.89424,-1.1747 0.0101,-1.1018 0.80733,-1.9284 1.0665,-2.9578 0.7743,-1.5486 2.19202,-2.4859 2.84414,-4.1425 0.82652,-1.7402 0.67309,-3.7967 0.71721,-5.7187 -0.0376,-2.1131 -0.0542,-4.2279 -0.0942,-6.3404 0.14433,-1.261 -0.72417,-1.9181 -1.61518,-2.2825 -0.68851,-0.367 -1.15954,-1.2121 -1.96819,-1.2641 z"
           id="path4148-6"
           inkscape:connector-curvature="0"
           sodipodi:nodetypes="cccccccccccccccccccccccccccccc" />
        <path
           style="fill:#000000"
           d="m 183.27901,1021.3651 c -1.53588,0.7367 -2.40006,2.5849 -3.68253,3.7563 -1.17053,1.5234 0.96325,0.9202 1.31185,-0.028 0.77264,-1.0668 1.82596,-1.8673 2.40443,-3.1169 0.004,-0.1473 0.23918,-0.6424 -0.0337,-0.6135 z m -2.9375,6.9941 c -1.65633,2.894 -2.88462,1.7811 -1.65633,2.894 1.05497,1.2183 1.01852,2.9036 1.02867,4.541 0.028,3.0891 -0.32404,6.1648 -0.36131,9.2495 -0.13307,1.4346 -2.17609,2.0222 -1.63934,3.4645 1.43106,0.8443 2.05291,3.1757 3.60017,3.5439 1.20161,-0.6934 1.49948,-2.4548 2.47893,-3.4944 0.61136,-0.4361 1.72501,-2.7753 0.33034,-2.2443 -0.37403,1.2241 -2.16094,2.3804 -2.08289,0.2828 0.23844,-2.8951 -0.15111,-5.8439 0.24676,-8.7369 0.057,-1.3356 0.0118,-3.5795 -0.0159,-4.9156 -0.0711,-1.2314 1.25094,-0.5414 1.36853,-2.4856 -0.94772,-0.4007 -2.11646,-1.6774 -3.159,-1.991 l -0.13864,-0.1076 -2e-5,-2e-4 z"
           id="path4148-4"
           inkscape:connector-curvature="0"
           sodipodi:nodetypes="cccccccccccccccccccccc" />
        <path
           style="fill:#000000"
           d="m 207.07856,1028.163 c -1.00611,0.4508 -1.59493,1.6554 -2.56788,2.1742 -0.70106,0.6985 -1.90028,1.1458 -1.68566,2.5292 -0.14127,3.0764 0.062,6.1716 -0.28128,9.2343 -0.0642,1.1991 -0.11161,2.4511 0.2665,3.5895 1.14434,0.9428 2.33557,1.8447 3.23462,3.139 0.56547,0.8421 1.1225,1.6926 1.92304,2.225 0.6092,0.5908 0.89508,0.8605 1.20195,0.9755 0.27211,0.1022 0.55928,-0.3689 1.16277,-0.8336 0.94238,-0.3783 1.1063,-1.5658 1.80319,-2.1964 0.66072,-1.1382 1.3156,-2.1412 2.09727,-3.3128 0.60671,-0.319 1.3152,-2.1444 0.12589,-1.6737 -0.74707,0.5833 -1.46235,1.2605 -2.08895,2.0267 -0.58702,0.7747 -1.07924,1.6591 -1.75622,2.3305 -1.50255,-1.1282 -2.51404,-2.9714 -3.98797,-4.1358 -1.22643,-1.269 -1.60083,-1.2842 -1.18748,-2.0889 0.25141,-1.1357 1.15448,-1.9471 1.91504,-2.6023 1.34049,-1.4752 2.86171,-2.7002 4.14145,-4.2572 0.68392,-0.4713 1.67105,-1.7166 0.83446,-2.5773 -1.0144,-0.4976 -1.58679,-1.7461 -2.59125,-2.2751 -0.89928,-0.6854 -1.72405,-1.4835 -2.55949,-2.2708 z m -1.13477,4.293 c 1.0513,0.6318 1.98537,1.4523 3.02687,2.1542 1.41996,1.1098 0.1441,1.3062 -0.93938,2.6541 -0.87029,0.5906 -1.55249,1.4316 -2.1986,2.3108 -0.31559,0.1422 -0.13972,-1.1559 -0.23505,-1.6867 0.0558,-1.7565 -0.0824,-3.5347 0.10943,-5.2772 0.0408,-0.1012 0.13567,-0.1979 0.23673,-0.1552 z"
           id="path4148-7-2"
           inkscape:connector-curvature="0"
           sodipodi:nodetypes="cccccccscccccccccccccccccccc" />
        <path
           style="fill:#000000"
           d="m 218.97699,1032.8622 c -0.83498,0.1006 -1.31385,0.9036 -2.04812,1.2264 -0.45084,0.4686 -2.00424,1.3642 -1.20305,1.7598 0.58968,0.2912 0.69428,-0.9896 1.89817,-0.3188 0.89535,0.6258 1.98685,0.7042 2.97583,1.0791 0.97242,0.391 2.01676,1.0888 3.08074,0.5669 0.84981,-0.2094 1.07885,-1.1514 1.81361,-1.5202 0.51205,-0.1347 1.58326,-1.2766 0.61391,-1.3405 -0.62601,0.2266 -1.10418,1.1534 -1.8603,0.6083 -0.64257,-0.4633 -1.37544,-0.6963 -2.0615,-0.9811 -0.83238,0.01 -1.66487,-0.098 -2.35747,-0.5999 -0.28848,-0.1515 -0.57731,-0.3035 -0.85182,-0.48 z"
           id="path4148-69"
           inkscape:connector-curvature="0"
           sodipodi:nodetypes="ccscccccsccc" />
        <path
           style="fill:#000000"
           d="m 245.58742,1010.8637 c -1.73382,0.6765 -3.74345,0.8553 -5.11376,2.2685 -1.65828,0.9741 -3.27977,2.0265 -4.59698,3.4787 -1.64793,1.587 -3.13055,3.3433 -4.28384,5.3525 -1.05874,1.8209 -1.6917,3.8816 -2.41096,5.8645 -0.39828,3.6907 -0.14733,7.5065 0.80124,11.0982 0.65824,2.49 2.11149,4.6308 3.05211,7.0052 1.60542,2.3424 3.98681,3.9371 6.22282,5.5448 1.53843,1.0362 3.31373,1.7052 5.15214,1.2305 1.87312,-0.2474 3.56991,-1.1187 4.67079,-2.6369 1.50527,-1.1371 2.80286,-3.0427 3.90416,-4.6775 -0.46772,-1.4401 -2.45095,0.8946 -2.9106,1.6741 -0.54957,1.468 -2.52972,1.9656 -2.19516,-0.204 -0.30476,-7.8201 -0.15839,-15.6498 -0.34919,-23.4728 0.0913,-3.8143 0.32408,-7.6305 0.1592,-11.4475 -0.14383,-1.3649 -0.67051,1.5323 -0.75166,2.1143 -0.58211,3.4383 -0.0999,6.9265 -0.27487,10.391 0.0319,5.4374 0.2106,10.8713 0.28343,16.3075 0.0951,1.9959 0.0371,3.9988 7.8e-4,5.9865 0.47309,1.6274 0.48988,4.3309 -1.85504,3.8165 -1.93643,0.2371 -3.55397,-1.1187 -4.86465,-2.4084 -0.73087,-1.768 1.81225,-2.8909 2.3076,-4.5024 0.52415,-1.7534 3.29277,-1.2425 3.22564,-3.3481 -0.23312,-2.5888 -0.0515,-5.2199 -0.12594,-7.8258 -0.0347,-6.639 -0.11809,-13.2779 -0.31137,-19.9139 -0.62034,-1.5011 2.43522,0.1156 0.96435,-1.4928 -0.18613,-0.1856 -0.45731,-0.2116 -0.70024,-0.2027 z m -3.87681,2.6178 c 1.02022,1.7745 0.38511,3.9629 0.56416,5.9196 -0.025,2.9334 0.25473,5.8662 0.0766,8.7985 0.73842,2.1409 -0.3141,4.4099 0.25815,6.5868 0.31808,1.9424 0.39705,3.9147 0.51211,5.8757 -0.22782,1.9657 -1.99607,3.2112 -2.67699,5.0351 -0.90215,2.2913 -3.15605,0.443 -4.02051,-0.8781 -1.40352,-1.4024 -1.67217,-3.5511 -2.89174,-5.0807 -1.14476,-2.4667 -1.86661,-5.1489 -1.83862,-7.9009 -0.24191,-2.3436 -0.50422,-4.8836 0.60286,-7.0499 0.54345,-1.9054 1.44347,-3.6475 2.55549,-5.2501 1.4617,-2.1877 3.45163,-3.9604 5.54386,-5.4612 0.44108,-0.1883 0.95718,-0.2332 1.31461,-0.5948 z m 11.64631,0.3674 c -1.29516,0.4868 -3.59618,2.5022 -3.30798,3.3126 1.56599,-1.3256 3.26937,-0.1655 4.13377,1.4418 0.81721,1.775 0.48706,3.9839 -1.09342,5.1649 -0.27776,1.8012 1.65014,-0.3154 1.9535,-1.0744 1.06545,-1.63 0.29388,-3.7419 1.95721,-5.072 -0.13007,-1.5968 -1.7331,-3.0262 -3.15842,-3.6449 l -0.24047,-0.075 -0.24419,-0.054 0,-10e-5 z"
           id="path4148-64"
           inkscape:connector-curvature="0" />
      </g>
    </g>
  </g>
</svg>
