<?xml version="1.0" encoding="UTF-8" standalone="no"?>
<!-- Created with Inkscape (http://www.inkscape.org/) -->

<svg
   xmlns:dc="http://purl.org/dc/elements/1.1/"
   xmlns:cc="http://creativecommons.org/ns#"
   xmlns:rdf="http://www.w3.org/1999/02/22-rdf-syntax-ns#"
   xmlns:svg="http://www.w3.org/2000/svg"
   xmlns="http://www.w3.org/2000/svg"
   xmlns:xlink="http://www.w3.org/1999/xlink"
   xmlns:sodipodi="http://sodipodi.sourceforge.net/DTD/sodipodi-0.dtd"
   xmlns:inkscape="http://www.inkscape.org/namespaces/inkscape"
   width="6000"
   height="1000"
   viewBox="0 0 5999.9999 999.99995"
   id="svg2"
   version="1.1"
   inkscape:version="0.91 r13725"
   sodipodi:docname="logotype.svg.2016_01_16_20_34_28.0.svg"
   inkscape:export-filename="/ws/JXobjC/doc/nlogotyp.png"
   inkscape:export-xdpi="11.505155"
   inkscape:export-ydpi="11.505155">
  <defs
     id="defs4">
    <linearGradient
       id="linearGradient4213"
       inkscape:collect="always">
      <stop
         id="stop4223"
         offset="0"
         style="stop-color:#008cc4;stop-opacity:1" />
      <stop
         id="stop4225"
         offset="1"
         style="stop-color:#2e1380;stop-opacity:1" />
    </linearGradient>
    <radialGradient
       inkscape:collect="always"
       xlink:href="#linearGradient4213"
       id="radialGradient4192"
       cx="128.5"
       cy="1032.3621"
       fx="128.5"
       fy="1032.3621"
       r="128.5"
       gradientTransform="matrix(1,0,0,0.18677103,0,839.54674)"
       gradientUnits="userSpaceOnUse" />
    <radialGradient
       inkscape:collect="always"
       xlink:href="#linearGradient4213"
       id="radialGradient4200"
       cx="128.5"
       cy="1032.3621"
       fx="128.5"
       fy="1032.3621"
       r="128.5"
       gradientTransform="matrix(1,0,0,0.18677103,0,839.54674)"
       gradientUnits="userSpaceOnUse" />
    <radialGradient
       inkscape:collect="always"
       xlink:href="#linearGradient4213"
       id="radialGradient4208"
       cx="128.5"
       cy="1032.3621"
       fx="128.5"
       fy="1032.3621"
       r="128.5"
       gradientTransform="matrix(1,0,0,0.18677103,0,839.54674)"
       gradientUnits="userSpaceOnUse" />
    <radialGradient
       inkscape:collect="always"
       xlink:href="#linearGradient4213"
       id="radialGradient4216"
       cx="128.5"
       cy="1032.3621"
       fx="128.5"
       fy="1032.3621"
       r="128.5"
       gradientTransform="matrix(1,0,0,0.18677103,0,839.54674)"
       gradientUnits="userSpaceOnUse" />
    <radialGradient
       inkscape:collect="always"
       xlink:href="#linearGradient4213"
       id="radialGradient4224"
       cx="128.5"
       cy="1032.3621"
       fx="128.5"
       fy="1032.3621"
       r="128.5"
       gradientTransform="matrix(1,0,0,0.18677103,0,839.54674)"
       gradientUnits="userSpaceOnUse" />
    <radialGradient
       inkscape:collect="always"
       xlink:href="#linearGradient4213"
       id="radialGradient4232"
       cx="128.5"
       cy="1032.3621"
       fx="128.5"
       fy="1032.3621"
       r="128.5"
       gradientTransform="matrix(1,0,0,0.18677103,0,839.54674)"
       gradientUnits="userSpaceOnUse" />
    <radialGradient
       inkscape:collect="always"
       xlink:href="#linearGradient4213"
       id="radialGradient4240"
       cx="128.5"
       cy="1032.3621"
       fx="128.5"
       fy="1032.3621"
       r="128.5"
       gradientTransform="matrix(1,0,0,0.18677103,0,839.54674)"
       gradientUnits="userSpaceOnUse" />
    <radialGradient
       inkscape:collect="always"
       xlink:href="#linearGradient4213"
       id="radialGradient4248"
       cx="128.5"
       cy="1032.3621"
       fx="128.5"
       fy="1032.3621"
       r="128.5"
       gradientTransform="matrix(1,0,0,0.18677103,0,839.54674)"
       gradientUnits="userSpaceOnUse" />
    <radialGradient
       inkscape:collect="always"
       xlink:href="#linearGradient4213"
       id="radialGradient4256"
       cx="128.5"
       cy="1032.3621"
       fx="128.5"
       fy="1032.3621"
       r="128.5"
       gradientTransform="matrix(1,0,0,0.18677103,0,839.54674)"
       gradientUnits="userSpaceOnUse" />
    <radialGradient
       inkscape:collect="always"
       xlink:href="#linearGradient4213"
       id="radialGradient4264"
       cx="128.5"
       cy="1032.3621"
       fx="128.5"
       fy="1032.3621"
       r="128.5"
       gradientTransform="matrix(1,0,0,0.18677103,0,839.54674)"
       gradientUnits="userSpaceOnUse" />
    <radialGradient
       inkscape:collect="always"
       xlink:href="#linearGradient4213"
       id="radialGradient4272"
       cx="128.5"
       cy="1032.3621"
       fx="128.5"
       fy="1032.3621"
       r="128.5"
       gradientTransform="matrix(1,0,0,0.18677103,0,839.54674)"
       gradientUnits="userSpaceOnUse" />
    <radialGradient
       inkscape:collect="always"
       xlink:href="#linearGradient4213"
       id="radialGradient4280"
       cx="128.5"
       cy="1032.3621"
       fx="128.5"
       fy="1032.3621"
       r="128.5"
       gradientTransform="matrix(1,0,0,0.18677103,0,839.54674)"
       gradientUnits="userSpaceOnUse" />
    <radialGradient
       inkscape:collect="always"
       xlink:href="#linearGradient4213"
       id="radialGradient4288"
       cx="128.5"
       cy="1032.3621"
       fx="128.5"
       fy="1032.3621"
       r="128.5"
       gradientTransform="matrix(1,0,0,0.18677103,0,839.54674)"
       gradientUnits="userSpaceOnUse" />
    <radialGradient
       inkscape:collect="always"
       xlink:href="#linearGradient4213"
       id="radialGradient4317"
       cx="3437.4999"
       cy="572.10782"
       fx="3437.4999"
       fy="572.10782"
       r="2437.4999"
       gradientTransform="matrix(1,0,0,0.18677103,0,465.25465)"
       gradientUnits="userSpaceOnUse"
       spreadMethod="reflect" />
    <radialGradient
       inkscape:collect="always"
       xlink:href="#linearGradient4213"
       id="radialGradient4407"
       cx="2852.4958"
       cy="655.01172"
       fx="2852.4958"
       fy="655.01172"
       r="2437.5005"
       gradientTransform="matrix(1.1200217,0,0,0.16257261,-342.36144,438.52208)"
       gradientUnits="userSpaceOnUse"
       spreadMethod="reflect" />
  </defs>
  <sodipodi:namedview
     id="base"
     pagecolor="#ffffff"
     bordercolor="#666666"
     borderopacity="1.0"
     inkscape:pageopacity="0.0"
     inkscape:pageshadow="2"
     inkscape:zoom="0.13330895"
     inkscape:cx="3710.3141"
     inkscape:cy="-372.81966"
     inkscape:document-units="px"
     inkscape:current-layer="layer1"
     showgrid="false"
     units="px"
     inkscape:snap-bbox="true"
     inkscape:bbox-paths="true"
     inkscape:bbox-nodes="true"
     inkscape:snap-center="true"
     inkscape:window-width="1920"
     inkscape:window-height="994"
     inkscape:window-x="-4"
     inkscape:window-y="20"
     inkscape:window-maximized="1">
    <inkscape:grid
       type="xygrid"
       id="grid4136"
       spacingx="24.999999"
       spacingy="24.999999" />
  </sodipodi:namedview>
  <metadata
     id="metadata7">
    <rdf:RDF>
      <cc:Work
         rdf:about="">
        <dc:format>image/svg+xml</dc:format>
        <dc:type
           rdf:resource="http://purl.org/dc/dcmitype/StillImage" />
        <dc:title />
      </cc:Work>
    </rdf:RDF>
  </metadata>
  <g
     inkscape:label="Layer 1"
     inkscape:groupmode="layer"
     id="layer1"
     transform="translate(0,-52.362279)">
    <g
       id="g4176"
       style="fill:#000080">
      <g
         inkscape:export-ydpi="56.25"
         inkscape:export-xdpi="56.25"
         id="g4245"
         transform="matrix(7.03125,0,0,-7.03125,-444.37496,-291.38772)"
         style="fill:#000080">
        <g
           style="fill:#000080;fill-opacity:1"
           inkscape:export-ydpi="62.67791"
           inkscape:export-xdpi="62.67791"
           transform="matrix(-0.10858339,-0.56506928,0.56506928,-0.10858339,110.75215,-77.056797)"
           id="g4247">
          <g
             style="fill:#000080;fill-opacity:1"
             inkscape:export-ydpi="51.923077"
             inkscape:export-xdpi="51.923077"
             id="g4249"
             transform="translate(-1.3349245,0.204632)">
            <path
               inkscape:connector-curvature="0"
               style="fill:#000080;fill-opacity:1;fill-rule:nonzero;stroke:none"
               id="path4251"
               d="m 77.366845,131.32135 c -6.742552,5.77441 -7.43122,14.47345 -7.43122,14.47345 -0.256397,1.08048 -0.400467,8.14576 -0.400467,8.14576 0.118174,8.08246 -3.864061,12.13952 -3.864061,12.13952 -4.584351,5.84066 -11.885906,8.8143 -11.885906,8.8143 0.317195,-0.0807 3.633642,-3.54697 3.636535,-3.54986 7.785579,-8.34459 0.619496,-18.10403 0.619496,-18.10403 -1.777885,-2.6941 -4.155013,-8.30428 -4.155013,-8.30428 -3.051493,-7.36203 0.677096,-13.09031 1.241844,-13.87983 7.356303,1.22461 14.856675,1.30816 22.238894,0.2651" />
            <path
               inkscape:connector-curvature="0"
               style="fill:#000080;fill-opacity:1;fill-rule:nonzero;stroke:none"
               id="path4253"
               d="m 52.6993,-3.730714 c 6.74256,-5.77441 7.43122,-14.47345 7.43122,-14.47345 0.2564,-1.08048 0.40047,-8.14576 0.40047,-8.14576 -0.11817,-8.08246 3.86406,-12.13952 3.86406,-12.13952 4.584353,-5.84066 11.885908,-8.8143 11.885908,-8.8143 -0.317195,0.0807 -3.633642,3.54697 -3.636535,3.54986 -7.785583,8.34459 -0.619496,18.10403 -0.619496,18.10403 1.777885,2.6941 4.155013,8.30428 4.155013,8.30428 3.051493,7.36203 -0.677096,13.09031 -1.241844,13.87983 -7.356306,-1.22461 -14.856676,-1.30816 -22.238896,-0.2651" />
          </g>
          <g
             style="fill:#000080;fill-opacity:1"
             inkscape:export-ydpi="51.923077"
             inkscape:export-xdpi="51.923077"
             transform="matrix(0.92387953,-0.38268343,0.38268343,0.92387953,-20.797988,29.947842)"
             id="g4255">
            <path
               d="m 77.366845,131.32135 c -6.742552,5.77441 -7.43122,14.47345 -7.43122,14.47345 -0.256397,1.08048 -0.400467,8.14576 -0.400467,8.14576 0.118174,8.08246 -3.864061,12.13952 -3.864061,12.13952 -4.584351,5.84066 -11.885906,8.8143 -11.885906,8.8143 0.317195,-0.0807 3.633642,-3.54697 3.636535,-3.54986 7.785579,-8.34459 0.619496,-18.10403 0.619496,-18.10403 -1.777885,-2.6941 -4.155013,-8.30428 -4.155013,-8.30428 -3.051493,-7.36203 0.677096,-13.09031 1.241844,-13.87983 7.356303,1.22461 14.856675,1.30816 22.238894,0.2651"
               id="path4257"
               style="fill:#000080;fill-opacity:1;fill-rule:nonzero;stroke:none"
               inkscape:connector-curvature="0" />
            <path
               d="m 52.6993,-3.730714 c 6.74256,-5.77441 7.43122,-14.47345 7.43122,-14.47345 0.2564,-1.08048 0.40047,-8.14576 0.40047,-8.14576 -0.11817,-8.08246 3.86406,-12.13952 3.86406,-12.13952 4.584353,-5.84066 11.885908,-8.8143 11.885908,-8.8143 -0.317195,0.0807 -3.633642,3.54697 -3.636535,3.54986 -7.785583,8.34459 -0.619496,18.10403 -0.619496,18.10403 1.777885,2.6941 4.155013,8.30428 4.155013,8.30428 3.051493,7.36203 -0.677096,13.09031 -1.241844,13.87983 -7.356306,-1.22461 -14.856676,-1.30816 -22.238896,-0.2651"
               id="path4259"
               style="fill:#000080;fill-opacity:1;fill-rule:nonzero;stroke:none"
               inkscape:connector-curvature="0" />
          </g>
          <g
             style="fill:#000080;fill-opacity:1"
             inkscape:export-ydpi="51.923077"
             inkscape:export-xdpi="51.923077"
             id="g4261"
             transform="matrix(0.70710678,-0.70710678,0.70710678,0.70710678,-27.39728,64.875176)">
            <path
               inkscape:connector-curvature="0"
               style="fill:#000080;fill-opacity:1;fill-rule:nonzero;stroke:none"
               id="path4263"
               d="m 77.366845,131.32135 c -6.742552,5.77441 -7.43122,14.47345 -7.43122,14.47345 -0.256397,1.08048 -0.400467,8.14576 -0.400467,8.14576 0.118174,8.08246 -3.864061,12.13952 -3.864061,12.13952 -4.584351,5.84066 -11.885906,8.8143 -11.885906,8.8143 0.317195,-0.0807 3.633642,-3.54697 3.636535,-3.54986 7.785579,-8.34459 0.619496,-18.10403 0.619496,-18.10403 -1.777885,-2.6941 -4.155013,-8.30428 -4.155013,-8.30428 -3.051493,-7.36203 0.677096,-13.09031 1.241844,-13.87983 7.356303,1.22461 14.856675,1.30816 22.238894,0.2651" />
            <path
               inkscape:connector-curvature="0"
               style="fill:#000080;fill-opacity:1;fill-rule:nonzero;stroke:none"
               id="path4265"
               d="m 52.6993,-3.730714 c 6.74256,-5.77441 7.43122,-14.47345 7.43122,-14.47345 0.2564,-1.08048 0.40047,-8.14576 0.40047,-8.14576 -0.11817,-8.08246 3.86406,-12.13952 3.86406,-12.13952 4.584353,-5.84066 11.885908,-8.8143 11.885908,-8.8143 -0.317195,0.0807 -3.633642,3.54697 -3.636535,3.54986 -7.785583,8.34459 -0.619496,18.10403 -0.619496,18.10403 1.777885,2.6941 4.155013,8.30428 4.155013,8.30428 3.051493,7.36203 -0.677096,13.09031 -1.241844,13.87983 -7.356306,-1.22461 -14.856676,-1.30816 -22.238896,-0.2651" />
          </g>
          <g
             style="fill:#000080;fill-opacity:1"
             transform="matrix(0.38268343,-0.92387953,0.92387953,0.38268343,-20.128119,99.669265)"
             id="g4267">
            <path
               inkscape:export-ydpi="51.923077"
               inkscape:export-xdpi="51.923077"
               d="m 77.366845,131.32135 c -6.742552,5.77441 -7.43122,14.47345 -7.43122,14.47345 -0.256397,1.08048 -0.400467,8.14576 -0.400467,8.14576 0.118174,8.08246 -3.864061,12.13952 -3.864061,12.13952 -4.584351,5.84066 -11.885906,8.8143 -11.885906,8.8143 0.317195,-0.0807 3.633642,-3.54697 3.636535,-3.54986 7.785579,-8.34459 0.619496,-18.10403 0.619496,-18.10403 -1.777885,-2.6941 -4.155013,-8.30428 -4.155013,-8.30428 -3.051493,-7.36203 0.677096,-13.09031 1.241844,-13.87983 7.356303,1.22461 14.856675,1.30816 22.238894,0.2651"
               id="path4269"
               style="fill:#000080;fill-opacity:1;fill-rule:nonzero;stroke:none"
               inkscape:connector-curvature="0" />
            <path
               inkscape:export-ydpi="51.923077"
               inkscape:export-xdpi="51.923077"
               d="m 52.6993,-3.730714 c 6.74256,-5.77441 7.43122,-14.47345 7.43122,-14.47345 0.2564,-1.08048 0.40047,-8.14576 0.40047,-8.14576 -0.11817,-8.08246 3.86406,-12.13952 3.86406,-12.13952 4.584353,-5.84066 11.885908,-8.8143 11.885908,-8.8143 -0.317195,0.0807 -3.633642,3.54697 -3.636535,3.54986 -7.785583,8.34459 -0.619496,18.10403 -0.619496,18.10403 1.777885,2.6941 4.155013,8.30428 4.155013,8.30428 3.051493,7.36203 -0.677096,13.09031 -1.241844,13.87983 -7.356306,-1.22461 -14.856676,-1.30816 -22.238896,-0.2651"
               id="path4271"
               style="fill:#000080;fill-opacity:1;fill-rule:nonzero;stroke:none"
               inkscape:connector-curvature="0" />
          </g>
          <g
             style="fill:#000080;fill-opacity:1"
             inkscape:export-ydpi="51.923077"
             inkscape:export-xdpi="51.923077"
             id="g4273"
             transform="matrix(0,-1,1,0,-0.09716829,129.03302)">
            <path
               inkscape:connector-curvature="0"
               style="fill:#000080;fill-opacity:1;fill-rule:nonzero;stroke:none"
               id="path4275"
               d="m 77.366845,131.32135 c -6.742552,5.77441 -7.43122,14.47345 -7.43122,14.47345 -0.256397,1.08048 -0.400467,8.14576 -0.400467,8.14576 0.118174,8.08246 -3.864061,12.13952 -3.864061,12.13952 -4.584351,5.84066 -11.885906,8.8143 -11.885906,8.8143 0.317195,-0.0807 3.633642,-3.54697 3.636535,-3.54986 7.785579,-8.34459 0.619496,-18.10403 0.619496,-18.10403 -1.777885,-2.6941 -4.155013,-8.30428 -4.155013,-8.30428 -3.051493,-7.36203 0.677096,-13.09031 1.241844,-13.87983 7.356303,1.22461 14.856675,1.30816 22.238894,0.2651" />
            <path
               inkscape:connector-curvature="0"
               style="fill:#000080;fill-opacity:1;fill-rule:nonzero;stroke:none"
               id="path4277"
               d="m 52.6993,-3.730714 c 6.74256,-5.77441 7.43122,-14.47345 7.43122,-14.47345 0.2564,-1.08048 0.40047,-8.14576 0.40047,-8.14576 -0.11817,-8.08246 3.86406,-12.13952 3.86406,-12.13952 4.584353,-5.84066 11.885908,-8.8143 11.885908,-8.8143 -0.317195,0.0807 -3.633642,3.54697 -3.636535,3.54986 -7.785583,8.34459 -0.619496,18.10403 -0.619496,18.10403 1.777885,2.6941 4.155013,8.30428 4.155013,8.30428 3.051493,7.36203 -0.677096,13.09031 -1.241844,13.87983 -7.356306,-1.22461 -14.856676,-1.30816 -22.238896,-0.2651" />
          </g>
          <g
             style="fill:#000080;fill-opacity:1"
             inkscape:export-ydpi="51.923077"
             inkscape:export-xdpi="51.923077"
             transform="matrix(-0.38268343,-0.92387953,0.92387953,-0.38268343,29.646041,148.49608)"
             id="g4279">
            <path
               d="m 77.366845,131.32135 c -6.742552,5.77441 -7.43122,14.47345 -7.43122,14.47345 -0.256397,1.08048 -0.400467,8.14576 -0.400467,8.14576 0.118174,8.08246 -3.864061,12.13952 -3.864061,12.13952 -4.584351,5.84066 -11.885906,8.8143 -11.885906,8.8143 0.317195,-0.0807 3.633642,-3.54697 3.636535,-3.54986 7.785579,-8.34459 0.619496,-18.10403 0.619496,-18.10403 -1.777885,-2.6941 -4.155013,-8.30428 -4.155013,-8.30428 -3.051493,-7.36203 0.677096,-13.09031 1.241844,-13.87983 7.356303,1.22461 14.856675,1.30816 22.238894,0.2651"
               id="path4281"
               style="fill:#000080;fill-opacity:1;fill-rule:nonzero;stroke:none"
               inkscape:connector-curvature="0" />
            <path
               d="m 52.6993,-3.730714 c 6.74256,-5.77441 7.43122,-14.47345 7.43122,-14.47345 0.2564,-1.08048 0.40047,-8.14576 0.40047,-8.14576 -0.11817,-8.08246 3.86406,-12.13952 3.86406,-12.13952 4.584353,-5.84066 11.885908,-8.8143 11.885908,-8.8143 -0.317195,0.0807 -3.633642,3.54697 -3.636535,3.54986 -7.785583,8.34459 -0.619496,18.10403 -0.619496,18.10403 1.777885,2.6941 4.155013,8.30428 4.155013,8.30428 3.051493,7.36203 -0.677096,13.09031 -1.241844,13.87983 -7.356306,-1.22461 -14.856676,-1.30816 -22.238896,-0.2651"
               id="path4283"
               style="fill:#000080;fill-opacity:1;fill-rule:nonzero;stroke:none"
               inkscape:connector-curvature="0" />
          </g>
          <g
             style="fill:#000080;fill-opacity:1"
             inkscape:export-ydpi="51.923077"
             inkscape:export-xdpi="51.923077"
             id="g4285"
             transform="matrix(-0.70710678,-0.70710678,0.70710678,-0.70710678,64.573375,155.09537)">
            <path
               inkscape:connector-curvature="0"
               style="fill:#000080;fill-opacity:1;fill-rule:nonzero;stroke:none"
               id="path4287"
               d="m 77.366845,131.32135 c -6.742552,5.77441 -7.43122,14.47345 -7.43122,14.47345 -0.256397,1.08048 -0.400467,8.14576 -0.400467,8.14576 0.118174,8.08246 -3.864061,12.13952 -3.864061,12.13952 -4.584351,5.84066 -11.885906,8.8143 -11.885906,8.8143 0.317195,-0.0807 3.633642,-3.54697 3.636535,-3.54986 7.785579,-8.34459 0.619496,-18.10403 0.619496,-18.10403 -1.777885,-2.6941 -4.155013,-8.30428 -4.155013,-8.30428 -3.051493,-7.36203 0.677096,-13.09031 1.241844,-13.87983 7.356303,1.22461 14.856675,1.30816 22.238894,0.2651" />
            <path
               inkscape:connector-curvature="0"
               style="fill:#000080;fill-opacity:1;fill-rule:nonzero;stroke:none"
               id="path4289"
               d="m 52.6993,-3.730714 c 6.74256,-5.77441 7.43122,-14.47345 7.43122,-14.47345 0.2564,-1.08048 0.40047,-8.14576 0.40047,-8.14576 -0.11817,-8.08246 3.86406,-12.13952 3.86406,-12.13952 4.584353,-5.84066 11.885908,-8.8143 11.885908,-8.8143 -0.317195,0.0807 -3.633642,3.54697 -3.636535,3.54986 -7.785583,8.34459 -0.619496,18.10403 -0.619496,18.10403 1.777885,2.6941 4.155013,8.30428 4.155013,8.30428 3.051493,7.36203 -0.677096,13.09031 -1.241844,13.87983 -7.356306,-1.22461 -14.856676,-1.30816 -22.238896,-0.2651" />
          </g>
          <g
             style="fill:#000080;fill-opacity:1"
             inkscape:export-ydpi="51.923077"
             inkscape:export-xdpi="51.923077"
             transform="matrix(-0.92387953,-0.38268343,0.38268343,-0.92387953,99.367464,147.82621)"
             id="g4291">
            <path
               d="m 77.366845,131.32135 c -6.742552,5.77441 -7.43122,14.47345 -7.43122,14.47345 -0.256397,1.08048 -0.400467,8.14576 -0.400467,8.14576 0.118174,8.08246 -3.864061,12.13952 -3.864061,12.13952 -4.584351,5.84066 -11.885906,8.8143 -11.885906,8.8143 0.317195,-0.0807 3.633642,-3.54697 3.636535,-3.54986 7.785579,-8.34459 0.619496,-18.10403 0.619496,-18.10403 -1.777885,-2.6941 -4.155013,-8.30428 -4.155013,-8.30428 -3.051493,-7.36203 0.677096,-13.09031 1.241844,-13.87983 7.356303,1.22461 14.856675,1.30816 22.238894,0.2651"
               id="path4293"
               style="fill:#000080;fill-opacity:1;fill-rule:nonzero;stroke:none"
               inkscape:connector-curvature="0" />
            <path
               d="m 52.6993,-3.730714 c 6.74256,-5.77441 7.43122,-14.47345 7.43122,-14.47345 0.2564,-1.08048 0.40047,-8.14576 0.40047,-8.14576 -0.11817,-8.08246 3.86406,-12.13952 3.86406,-12.13952 4.584353,-5.84066 11.885908,-8.8143 11.885908,-8.8143 -0.317195,0.0807 -3.633642,3.54697 -3.636535,3.54986 -7.785583,8.34459 -0.619496,18.10403 -0.619496,18.10403 1.777885,2.6941 4.155013,8.30428 4.155013,8.30428 3.051493,7.36203 -0.677096,13.09031 -1.241844,13.87983 -7.356306,-1.22461 -14.856676,-1.30816 -22.238896,-0.2651"
               id="path4295"
               style="fill:#000080;fill-opacity:1;fill-rule:nonzero;stroke:none"
               inkscape:connector-curvature="0" />
          </g>
        </g>
      </g>
      <circle
         r="247.5"
         cy="552.36224"
         cx="540.00012"
         id="path4252"
         style="color:#000000;clip-rule:nonzero;display:inline;overflow:visible;visibility:visible;opacity:1;isolation:auto;mix-blend-mode:normal;color-interpolation:sRGB;color-interpolation-filters:linearRGB;solid-color:#000000;solid-opacity:1;fill:#000080;fill-opacity:1;fill-rule:nonzero;stroke:none;stroke-width:0.2;stroke-linecap:butt;stroke-linejoin:miter;stroke-miterlimit:4;stroke-dasharray:none;stroke-dashoffset:0;stroke-opacity:1;color-rendering:auto;image-rendering:auto;shape-rendering:auto;text-rendering:auto;enable-background:accumulate" />
    </g>
    <g
       id="g4239"
       style="fill:url(#radialGradient4317);fill-opacity:1">
      <g
         style="fill:url(#radialGradient4317);fill-opacity:1"
         id="g4169"
         transform="matrix(18.968871,0,0,18.968871,999.99998,-19010.635)">
        <path
           style="fill:url(#radialGradient4407);fill-opacity:1"
           d="M 1166.3008 64.505859 C 1131.9452 67.508632 1095.7646 73.010692 1065.543 89.972656 C 1043.4648 102.35933 995.78206 116.09673 1000.2988 140.57227 C 1029.6821 122.53477 1061.2221 109.54784 1095.752 103.05859 C 1138.2183 89.507232 1183.3231 114.79796 1223.5996 126.09961 C 1251.8492 136.16449 1271.496 155.53487 1299.2109 168.89844 C 1322.5193 190.31809 1354.4345 199.91233 1380.6191 212.10742 C 1391.9546 242.73266 1383.6934 275.40092 1395.3691 303.28516 C 1403.3971 341.98734 1405.8009 382.7567 1399.1348 421.78516 C 1394.3176 443.58798 1367.7699 457.37759 1352.1191 473.07812 C 1348.1088 477.10142 1344.814 481.25269 1342.7832 485.69141 C 1341.4903 488.52156 1333.9399 493.56245 1334.9688 498.23828 C 1336.0938 503.3485 1345.9355 508.13336 1347.5469 511.97266 C 1365.7068 536.57718 1399.2704 568.55808 1358.1523 592.38867 C 1347.4817 597.70185 1344.7377 606.82975 1338.3789 610.50781 C 1338.3789 610.50781 1328.5604 621.39237 1328.623 626.58984 C 1328.6781 631.28843 1337.1884 635.15836 1340.3242 639.24805 C 1346.5948 647.42742 1358.0317 654.10784 1370.6797 658.14062 C 1382.42 690.71207 1399.5411 722.3689 1400.0605 757.4082 C 1407.6295 790.26798 1406.7457 822.97654 1399.7578 855.7832 C 1384.19 886.6209 1361.8552 905.5291 1322.1406 904.92969 C 1289.4745 905.11938 1276.5875 905.38473 1244.0566 886.21289 C 1217.6236 870.16333 1190.3686 855.21925 1169.1621 832.77148 C 1150.4241 807.23749 1130.7393 776.00579 1132.3008 740.09961 C 1137.9174 702.89407 1116.8099 705.6701 1093.8418 722.27734 C 1063.2037 750.44043 1075.7458 797.93229 1093.5137 829.50977 C 1111.4608 860.12932 1140.993 883.19196 1165.7168 906.07031 C 1193.3904 917.28092 1223.7615 932.36977 1252.0254 935.61914 C 1309.9126 936.96593 1369.7401 940.82209 1425.8887 925.66406 C 1453.4698 923.21708 1478.2443 892.86362 1497.5508 871.66211 C 1515.257 837.33983 1511.2404 795.96435 1524.4395 760.17578 C 1526.6358 726.70711 1537.3446 695.04164 1535.4941 661.20117 C 1536.7688 575.51499 1538.5739 489.64804 1533.6504 404.05859 C 1524.3593 371.5156 1536.0411 332.2008 1531.0586 296.94336 C 1522.0539 264.78543 1534.6655 223.66271 1528.3418 195.81641 C 1538.8713 158.8916 1577.2595 146.74828 1601.584 121.19531 C 1626.3392 81.351199 1558.2617 129.06445 1558.2617 129.06445 C 1558.2617 129.06445 1497.6814 165.41014 1464.0957 176.08203 C 1429.8464 182.60353 1389.3526 165.94036 1359.9824 149.43555 C 1335.1604 130.59566 1309.8547 116.00383 1285.4453 96.435547 C 1256.2014 78.748972 1223.6195 74.469735 1191.1699 65.609375 C 1182.9173 64.698869 1174.5945 64.412968 1166.3008 64.507812 L 1166.3008 64.505859 z M 5660.2656 111.91797 C 5659.6771 111.91376 5659.0916 111.92421 5658.5156 111.94531 C 5625.627 124.77775 5587.5069 128.16975 5561.5137 154.97656 C 5530.058 173.45414 5499.3004 193.4163 5474.3145 220.96289 C 5443.0551 251.06649 5414.9313 284.38189 5393.0547 322.49414 C 5372.9716 357.03456 5360.9658 396.12491 5347.3223 433.73828 C 5339.7673 503.74669 5344.5262 576.12732 5362.5195 644.25781 C 5375.0056 691.4903 5402.5735 732.09898 5420.416 777.13867 C 5450.869 821.57136 5496.0405 851.82015 5538.4551 882.31641 C 5567.6374 901.97195 5601.313 914.66273 5636.1855 905.6582 C 5671.7165 900.9653 5703.9027 884.43721 5724.7852 855.63867 C 5753.3384 834.06917 5777.9514 797.92242 5798.8418 766.91211 C 5789.9697 739.59504 5752.3499 783.88173 5743.6309 798.66797 C 5733.2061 826.51427 5695.646 835.95369 5701.9922 794.79883 C 5696.2112 646.46036 5698.9884 497.94035 5695.3691 349.54688 C 5697.101 277.19391 5701.5163 204.80457 5698.3887 132.40039 C 5695.6604 106.50978 5685.6702 161.46598 5684.1309 172.50586 C 5673.0889 237.72653 5682.235 303.89367 5678.916 369.61133 C 5679.5211 472.75267 5682.9115 575.82869 5684.293 678.94727 C 5686.0969 716.80724 5684.9956 754.79948 5684.3066 792.50391 C 5693.2806 823.37385 5693.5996 874.65602 5649.1191 864.89844 C 5612.3872 869.39596 5581.7039 843.67704 5556.8418 819.21289 C 5542.978 785.67593 5591.219 764.37693 5600.6152 733.80859 C 5610.5578 700.54858 5663.0742 710.23968 5661.8008 670.29883 C 5657.3788 621.19221 5660.8242 571.28254 5659.4121 521.85156 C 5658.7539 395.91723 5657.1722 269.98485 5653.5059 144.10742 C 5641.7387 115.63325 5699.6996 146.30055 5671.7988 115.79102 C 5668.7095 112.71047 5664.3856 111.9474 5660.2656 111.91797 z M 2764.6934 140.37109 C 2730.6201 152.86589 2692.6434 158.8802 2667.3926 187.18555 C 2629.9896 218.16361 2602.788 258.33816 2580.6895 300.70703 C 2540.7014 362.17186 2513.6159 434.03381 2517.9668 507.83789 C 2522.2467 560.73828 2518.6286 616.11066 2543.1348 665.10156 C 2561.9779 707.44198 2586.5393 747.32557 2610.4492 787.0957 C 2634.5626 819.60645 2663.9324 848.33734 2694.2422 875.19727 C 2725.8409 892.93885 2764.9422 893.82699 2800.4238 899.125 C 2866.1673 895.5304 2916.5731 849.34464 2967.498 813.73438 C 3007.1929 785.91463 3032.0592 743.69427 3061.0527 706.24023 C 3084.2636 672.63688 3097.1937 633.69433 3110.9551 595.78125 C 3124.4721 543.70411 3125.4117 489.09205 3124.0605 435.60742 C 3120.7031 402.94682 3114.1887 370.10067 3103.5898 338.91016 C 3076.0436 280.64917 3035.9625 226.02352 2979.3867 192.0332 C 2948.1101 187.62673 2921.2861 146.75337 2888.5371 166.36719 C 2867.4695 170.21407 2844.3148 219.36693 2829.7422 200.71484 C 2832.3123 187.65098 2833.9144 134.77803 2820.9023 171.16602 C 2809.5764 205.82025 2809.5293 242.5086 2814.7871 278.10938 C 2815.1741 319.83141 2806.6186 361.03854 2806.8379 402.85352 C 2804.5406 468.35303 2801.3522 533.96574 2791.3809 598.82031 C 2794.8726 637.42955 2799.735 675.7473 2790.1855 713.93164 C 2785.6049 754.74317 2782.0853 795.69322 2775.5605 836.26953 C 2735.7113 851.93023 2714.5036 799.17159 2685.0645 782.09961 C 2645.2387 753.2802 2702.2847 733.89371 2721.2227 713.24609 C 2762.9508 695.51968 2764.0039 651.02317 2762.1465 612.80469 C 2770.5689 577.96836 2775.5119 542.59518 2777.6191 506.67383 C 2784.6636 429.55399 2784.3401 351.46475 2780.3242 274.05469 C 2772.7712 237.28163 2780.4383 198.62839 2770.2988 162.50977 C 2770.6668 154.85772 2770.8907 146.09969 2764.6934 140.37109 z M 2154.3516 143.95703 C 2130.0779 151.70392 2108.9599 172.70324 2102.3477 200.96875 C 2094.1504 214.42337 2064.5717 271.68083 2069.9453 224.74805 C 2068.8432 199.75466 2087.6437 151.82806 2064.668 149.84961 C 2054.9449 182.49693 2052.2693 216.28777 2050.9785 250.36914 C 2052.8765 287.06632 2023.7548 309.00298 2006.8223 336.9043 C 1992.3341 365.37847 1953.7947 393.34369 1945.5195 345.05273 C 1925.5138 321.86708 1915.1154 291.76564 1890.5586 272.06836 C 1871.9197 248.12775 1848.0789 225.97284 1836.9043 196.79492 C 1824.7947 181.77727 1819.8685 140.29963 1796.5996 172.80469 C 1769.8544 186.37881 1753.18 212.40076 1732.6484 234.48242 C 1722.6792 242.02065 1707.0197 275.5632 1730.7539 255.95508 C 1752.0104 244.09384 1777.5273 191.90466 1790.6152 236.64844 C 1801.2251 265.1871 1823.9515 285.47352 1840.5879 309.48242 C 1862.3174 328.83826 1868.3852 361.39489 1889.4316 378.79883 C 1907.734 402.83808 1936.0881 423.28948 1926.0781 457.29688 C 1933.9583 479.56633 1931.9261 537.02222 1898.0898 505.88672 C 1866.3238 492.13618 1844.6318 530.31932 1821.1074 545.24023 C 1802.6078 558.08595 1772.1775 607.76384 1813.5859 575.81836 C 1832.731 547.78237 1861.7798 541.3884 1885.3945 567.26953 C 1907.8142 577.61515 1937.7827 582.28012 1939.7168 606.08984 C 1949.1204 626.51173 1918.1144 659.91536 1919.3418 688.02344 C 1914.8035 721.11653 1896.9886 746.62597 1878.1777 773.27344 C 1856.7949 798.98764 1841.7234 830.8211 1816.8574 852.06055 C 1784.9516 872.47295 1751.6691 858.18396 1724.6523 837.83984 C 1698.9179 815.15687 1669.5828 785.0756 1671.8633 747.9668 C 1673.5828 716.66057 1662.794 684.77696 1680.7324 656.30469 C 1690.3739 637.99024 1723.6195 608.21577 1721.5586 597.64062 C 1699.932 623.22774 1671.1525 639.6858 1643.4062 656.88867 C 1619.9708 683.38818 1616.5774 719.32774 1623.1738 754.69141 C 1623.5557 790.78727 1637.3878 826.33971 1665.0879 849.65625 C 1684.6141 873.208 1706.8818 883.05108 1731.4941 897.29102 C 1761.1051 901.79802 1791.3626 890.63515 1815.0469 875.49609 C 1839.9057 854.33442 1872.1925 841.15695 1887.9121 810.08594 C 1899.0643 779.44173 1926.7028 757.4645 1938.0234 726.22656 C 1961.3759 703.94193 1970.4959 762.374 1988.1738 774.33008 C 2006.6348 805.13173 2024.3691 833.51652 2040.5117 865.43164 C 2051.5385 887.44881 2060.9898 899.38575 2086.0078 902.71289 C 2110.9586 882.68176 2123.3205 851.83298 2150.1426 833.55078 C 2165.2042 811.87885 2190.8355 801.39437 2204.3242 777.27734 C 2221.208 770.86207 2224.6487 739.24384 2203.0352 760.57812 C 2168.1746 785.2756 2143.7305 824.59252 2105.627 843.85352 C 2074.4955 832.07954 2068.1258 793.1208 2052.4082 768.93359 C 2034.3911 737.02037 2053.687 695.61113 2049.0859 659.63477 C 2049.8946 626.56254 2052.393 593.30089 2058.5938 560.89258 C 2069.4801 540.08183 2119.7113 512.39393 2106.9043 494.91602 C 2087.0108 493.49335 2055.1874 547.62342 2057.4766 512.19336 C 2050.412 484.12702 2053.1117 454.38799 2048.2461 430.1875 C 2053.4102 406.84441 2041.3221 372.68741 2061.127 348.90234 C 2077.7961 322.89982 2060.0534 284.82162 2083.3652 258.11914 C 2099.7393 245.61296 2112.396 209.14169 2131.6855 210.36328 C 2148.2098 242.45861 2194.7531 259.10698 2184.7227 301.78125 C 2185.6218 317.81564 2140.9797 346.74958 2177.7949 343.70508 C 2207.6532 323.62843 2211.1022 282.91426 2213.4805 249.65234 C 2248.7902 230.19408 2206.5686 204.83379 2191.5352 194.2207 C 2176.3326 183.13909 2166.196 153.5598 2155.6836 145.89258 L 2154.3516 143.96289 L 2154.3516 143.95703 z M 5584.9766 161.60352 C 5604.329 195.26378 5592.2833 236.77424 5595.6797 273.89062 C 5595.2055 329.53391 5600.5117 385.16664 5597.1328 440.78906 C 5611.1398 481.39952 5591.1744 524.43909 5602.0293 565.73242 C 5608.0629 602.57756 5609.5596 639.98954 5611.7422 677.1875 C 5607.4207 714.47461 5573.8792 738.09994 5560.9629 772.69727 C 5543.8501 816.16064 5501.097 781.10079 5484.6992 756.04102 C 5458.076 729.43907 5452.9796 688.6808 5429.8457 659.66602 C 5408.1309 612.8755 5394.4378 561.99725 5394.9688 509.79492 C 5390.38 465.33948 5385.4042 417.15867 5406.4043 376.06641 C 5416.7129 339.92312 5433.7851 306.87803 5454.8789 276.47852 C 5482.6057 234.98032 5520.3538 201.35325 5560.041 172.88477 C 5568.4078 169.31293 5578.1965 168.46266 5584.9766 161.60352 z M 5805.8945 168.55273 L 5805.8945 168.57227 C 5781.3268 177.80631 5737.6797 216.03583 5743.1465 231.4082 C 5772.8515 206.26307 5805.1619 228.26915 5821.5586 258.75781 C 5837.0601 292.42756 5830.7983 334.32823 5800.8184 356.73047 C 5795.5496 390.8972 5832.1187 350.74698 5837.873 336.34961 C 5858.0834 305.43035 5843.4485 265.36917 5875 240.13867 C 5872.5327 209.84918 5842.1246 182.73604 5815.0879 171 L 5810.5273 169.57617 L 5805.8945 168.55273 z M 2691.5098 186.80078 C 2734.1285 200.61202 2707.7046 255.42357 2720.4277 287.43164 C 2727.0589 373.51427 2721.5027 459.98579 2716.1602 545.87305 C 2718.0495 588.09396 2696.8067 627.9402 2702.8223 670.45703 C 2705.3478 702.48407 2670.5686 729.65366 2643.5 734.44141 C 2626.5449 707.29316 2615.1214 675.42964 2595.4688 649.14258 C 2582.1953 610.13689 2557.9806 572.91446 2562.9863 530.04102 C 2560.2979 461.66013 2559.9523 389.77931 2594.3457 327.91992 C 2608.1831 291.32328 2642.1308 265.12868 2651.1348 226.38477 C 2665.9938 214.56337 2673.4937 194.97636 2691.5098 186.80078 z M 2870.3086 205.09766 C 2913.1737 218.15962 2953.3332 239.54228 2984.0918 272.12891 C 3017.5172 301.55911 3037.5801 342.3222 3052.1191 383.23047 C 3065.841 430.55021 3073.2077 479.52863 3069.3438 528.7832 C 3066.6208 619.08072 3033.3365 710.15759 2970.291 776.9375 C 2933.5297 813.15856 2885.9818 841.31562 2832.7578 843.00195 C 2782.8797 855.39811 2791.2796 801.11944 2798.3789 770.49609 C 2802.3684 736.17951 2804.099 701.97119 2808.7422 667.79688 C 2809.6242 607.48914 2807.5399 546.7059 2819.625 487.17969 C 2820.8978 450.87327 2821.6013 414.47387 2822.9707 378.34766 C 2825.1844 337.51526 2834.639 298.48924 2827.1523 258.79688 C 2830.4522 235.12752 2848.5718 214.65986 2870.3086 205.09766 z M 1474.2344 212.64258 C 1485.241 240.91378 1478.6167 275.84539 1482.498 306.66602 C 1487.4984 348.80916 1474.365 390.21426 1485.168 432.02734 C 1488.157 531.24971 1489.566 630.92752 1481.8828 729.93555 C 1474.2106 775.59552 1464.6054 820.87503 1456.252 866.33203 C 1458.6588 897.37269 1371.4399 909.86006 1413.248 875.56055 C 1436.2528 849.59596 1437.3706 812.9264 1448.7383 781.52344 C 1458.2412 744.63467 1462.257 705.59371 1465.1836 668.37109 C 1455.182 622.98428 1463.9139 575.6004 1455.4473 529.8418 C 1453.4454 467.00362 1451.7863 404.20249 1448.6094 341.46484 C 1448.0597 311.58508 1456.4796 277.94117 1443.1152 253.75586 C 1446.7774 236.82614 1458.6699 220.45775 1474.2344 212.64258 z M 4477.0547 311.08203 C 4476.9113 311.08025 4476.7594 311.08834 4476.5977 311.10547 L 4476.5957 311.14648 C 4447.4618 325.12085 4431.0692 360.1783 4406.7422 382.39844 C 4384.5386 411.29562 4425.0144 399.85347 4431.627 381.86719 C 4446.2831 361.6312 4466.2634 346.44569 4477.2363 322.74219 C 4477.3098 320.03539 4481.4989 311.13713 4477.0547 311.08203 z M 2051.5977 313.24219 L 2051.5996 313.24219 L 2051.5996 313.25 C 2046.2278 341.98974 2033.2218 375.35041 2036.8867 407.85547 C 2036.0546 449.78805 2035.7929 492.14469 2037.8477 533.78516 C 2018.0441 565.27538 1972.0686 524.52887 1980.623 494.4082 C 1984.3831 464.2458 1966.943 426.3325 1980.7422 400.85352 C 2000.3564 372.50264 2023.2839 345.83615 2044.4648 317.7793 L 2047.2188 315.08203 L 2051.5977 313.24219 z M 3227.2422 330.05664 C 3217.3943 339.03461 3206.7589 346.28062 3194.1152 348.63086 C 3189.0246 349.5793 3185.6024 352.72349 3182.4941 358.08789 C 3175.0196 369.33643 3172.5499 384.81486 3169.4043 396.81836 C 3167.0061 405.97274 3176.102 406.64967 3182.8379 410.57812 C 3185.0626 438.561 3179.5023 466.78775 3181.0156 494.93945 C 3181.9185 582.9645 3182.0804 671.04476 3180.5762 759.05273 C 3181.7845 764.67131 3179.0176 779.53516 3179.0176 779.53516 C 3177.7277 779.99041 3174.6689 777.35826 3173.3965 778.11133 C 3159.7571 786.13326 3144.3469 798.85154 3155.1465 814.33203 C 3168.3429 831.48938 3184.315 845.07037 3201.5801 857.52344 C 3223.094 873.66405 3249.5484 891.07266 3264.1191 899.12305 C 3275.9127 885.35354 3294.5656 876.79148 3301.6719 858.36133 C 3313.7642 839.96152 3333.1745 827.37228 3343.166 807.45117 C 3347.9775 787.10137 3370.1641 778.3785 3384.7383 765.38672 C 3393.8961 738.80185 3387.9117 727.5212 3389.0234 707.02344 C 3389.2131 677.93278 3388.5772 650.46191 3389.0059 617.42383 C 3391.1061 583.27227 3392.1298 564.06783 3369.2598 548.37109 C 3352.5311 542.08102 3346.8397 519.08517 3335.0508 507.92578 C 3345.1481 503.85696 3346.6349 480.074 3331.4219 494.23047 C 3315.1515 502.92201 3300.0826 513.10627 3288.0078 527.82422 C 3271.2427 544.44854 3256.0038 564.30114 3235.5918 575.8418 C 3217.8202 568.91247 3237.6329 541.12565 3232.4727 524.94141 C 3233.9712 491.71933 3230.462 458.33444 3233.1406 425.21289 C 3236.3951 403.59976 3264.4778 400.24307 3264.5605 377.28125 C 3259.3261 364.65557 3241.6103 364.99102 3232.9785 353.81836 C 3215.7777 358.22103 3242.3746 331.33169 3227.2422 330.06836 L 3227.2422 330.05664 z M 3569.5977 330.05664 C 3534.3888 338.75576 3509.249 366.82165 3487.3848 393.61328 C 3471.6734 408.96289 3488.5738 426.70976 3505.3125 411.58398 C 3529.4322 401.46219 3531.869 375.24133 3552.3711 360.78516 C 3556.8559 351.1319 3576.6258 340.86321 3569.5977 330.05664 z M 4268.2402 363.77148 C 4239.55 377.2887 4211.8464 394.49382 4188.4043 417.93555 C 4184.8996 456.62256 4203.0581 475.79873 4156.2148 469.27344 C 4134.121 471.13239 4121.2666 494.07102 4106.9512 510.30078 C 4113.5677 536.15535 4143.9578 514.03596 4160.8477 519.99219 C 4186.3559 521.9346 4188.8613 556.58226 4189.209 579.25195 C 4192.2383 637.53002 4184.4813 696.34311 4193.4102 754.22852 C 4193.524 761.72881 4192.0386 768.34696 4188.3203 773.33008 C 4169.3359 798.76923 4161.7198 798.38687 4157.4922 817.10156 C 4174.2901 844.83785 4175.5472 841.6736 4202.0625 868.47852 C 4222.4144 885.08007 4231.3261 894.4947 4249.0566 899.125 C 4261.1783 889.93648 4275.9108 882.88837 4283.502 867.19922 C 4292.8788 848.94737 4303.1596 830.82105 4319.1504 819.18555 C 4330.853 813.31468 4345.5344 780.35491 4322.1562 790.81055 C 4305.7861 803.71697 4291.9814 820.04754 4276.6641 834.16797 C 4262.8022 837.02278 4254.4017 816.5073 4243.3926 808.18945 C 4236.4758 784.11985 4238.7807 769.9046 4238.8691 733.68164 C 4238.945 704.38232 4238.678 692.08877 4240.6621 671.56445 C 4244.3373 625.95949 4239.339 579.91488 4245.1602 534.48633 C 4258.6512 533.38613 4257.9536 534.16512 4283.5645 527.34961 C 4299.225 518.52529 4339.1044 482.97449 4309.6348 475.39453 C 4290.557 470.25966 4256.6895 468.99641 4237.4141 469.13867 C 4231.2431 446.83887 4227.8603 425.96462 4235.2441 405.99609 C 4261.0447 382.36847 4257.6411 391.72022 4268.2422 363.77148 L 4268.2402 363.77148 z M 3518.9863 432.65625 C 3518.7929 432.65116 3518.6784 432.76107 3518.6777 433.02734 C 3505.365 450.01397 3458.4028 466.90419 3479.6309 491.80273 C 3501.5541 508.95818 3489.4601 540.89417 3493.1875 564.66406 C 3492.6943 600.85098 3496.9988 636.73037 3500.6621 672.63086 C 3502.1132 722.49433 3502.8432 773.41335 3491.1387 822.20508 C 3476.5738 843.35347 3463.4133 868.27726 3445.7637 888.63086 C 3427.7334 912.50129 3406.8406 920.54665 3382.748 930.28906 C 3348.2556 945.13031 3316.4811 953.56934 3282.1465 959.33398 C 3245.5256 970.08554 3292.6342 979.94997 3310.7793 972.26758 C 3338.1034 968.39224 3363.9458 957.84131 3389.498 947.67969 C 3412.0892 937.8614 3438.0637 935.34493 3456.4727 917.59766 C 3480.1375 898.57188 3495.3942 872.03637 3515.957 850.27148 C 3538.3932 825.94391 3555.8357 791.09731 3561.3945 764.73438 C 3561.055 741.35524 3572.1919 718.91795 3567.0898 696.18945 C 3575.3493 669.51163 3562.6897 642.72237 3564.2734 615.63672 C 3561.9323 587.36172 3565.0133 558.06889 3558.9395 530.41797 C 3552.9426 513.44652 3577.281 487.53731 3571.0469 473.31445 C 3549.9492 473.12661 3541.1326 444.02675 3523.9004 436.92383 C 3523.5609 436.2668 3520.0557 432.68439 3518.9863 432.65625 z M 3724.7715 434.19531 C 3705.6867 442.94945 3694.5183 466.35158 3676.0625 476.43164 C 3662.7642 490.00197 3640.0148 498.68746 3644.0859 525.56445 C 3641.4062 585.32778 3645.2636 645.45732 3638.752 704.95508 C 3637.5342 728.25075 3636.6343 752.57164 3643.8066 774.68555 C 3665.5135 793.00379 3688.1101 810.52473 3705.1641 835.66797 C 3715.8904 852.02862 3726.4553 868.5469 3741.6406 878.89062 C 3753.1965 890.36869 3758.6204 895.60922 3764.4414 897.84375 C 3769.603 899.85066 3775.0505 890.67572 3786.498 881.64844 C 3804.3739 874.2999 3807.482 851.22672 3820.7012 838.97852 C 3833.2343 816.8703 3845.657 797.38575 3860.4844 774.625 C 3871.993 768.42408 3885.4329 732.96638 3862.873 742.10938 C 3848.702 753.44138 3835.1339 766.5937 3823.248 781.48047 C 3812.1129 796.53037 3802.7751 813.71281 3789.9336 826.75391 C 3761.4319 804.83348 3742.2459 769.02864 3714.2871 746.41016 C 3691.0231 721.75631 3683.9209 721.46232 3691.7617 705.83008 C 3696.5307 683.76549 3713.6609 668.00534 3728.0879 655.27344 C 3753.5155 626.61716 3782.3713 602.81618 3806.6465 572.57031 C 3819.6197 563.41404 3838.3438 539.22497 3822.4746 522.50391 C 3803.2326 512.83737 3792.3757 488.58766 3773.3223 478.30273 C 3756.2639 464.98848 3740.6188 449.48991 3724.7715 434.19531 z M 4727.6992 439.03711 C 4715.4569 454.68074 4683.4435 468.78125 4695.2012 494.86914 C 4707.7089 515.16394 4734.3534 515.53499 4744.541 538.19141 C 4749.6945 560.27307 4745.3445 583.63415 4746.0273 606.27539 C 4745.2762 631.03166 4746.7546 655.93045 4750.5645 680.19922 C 4749.1247 709.91396 4751.6069 748.42871 4739.0469 774.87891 C 4728.1802 794.59894 4708.2624 802.79674 4695.0371 819.98633 C 4675.6665 824.88599 4677.996 787.85964 4659.3633 784.37695 C 4637.3926 772.31085 4630.0624 744.43165 4632.1484 717.68555 C 4631.4143 698.22349 4626.3702 679.48921 4626.3086 659.88867 C 4625.8875 641.62734 4622.1023 623.81372 4619.6289 606.00195 C 4618.487 576.04631 4623.5118 545.9332 4633.3965 518.38281 C 4644.402 503.35757 4666.1047 490.51586 4650.6367 475.4375 C 4635.5777 464.58351 4610.612 440.29145 4593.4551 456.31445 C 4578.3187 471.8253 4560.1553 485.78059 4547.3828 502.88672 C 4544.705 519.03871 4559.8547 516.49381 4566.2383 512.85938 C 4585.8208 526.15845 4581.8722 527.84074 4571.5352 575.63281 C 4563.6248 615.64006 4564.943 657.98617 4573.1582 697.77148 C 4583.0256 722.16166 4566.0998 737.27421 4552.6133 751.85938 C 4543.1863 775.1209 4568.4633 791.73697 4580.1426 805.98828 C 4597.3371 822.25599 4615.1478 837.54828 4632.748 853.20898 C 4646.9982 865.2049 4655.8162 887.52413 4673.7422 892.02734 C 4687.2463 888.51431 4693.5525 868.47702 4709.6719 869.74414 C 4709.8635 848.84424 4724.9862 833.16523 4729.9023 813.63867 C 4744.5899 784.26348 4771.4835 766.48438 4783.8535 735.06055 C 4799.5317 702.05092 4796.6201 663.0402 4797.457 626.58203 C 4796.7438 586.49891 4796.4306 546.38424 4795.6719 506.3125 C 4798.4097 482.39275 4781.9347 469.92788 4765.0332 463.01562 C 4751.9729 456.05405 4743.0384 440.02349 4727.6992 439.03711 z M 4928.0469 440.09375 C 4908.9621 448.64492 4897.7917 471.49489 4879.3359 481.33594 C 4866.0376 494.58569 4843.2902 503.07096 4847.3613 529.3125 C 4844.6816 587.66833 4848.537 646.3806 4842.0254 704.47656 C 4840.8076 727.22214 4839.9097 750.97029 4847.082 772.56445 C 4868.7889 790.4483 4891.3835 807.55797 4908.4375 832.10938 C 4919.1638 848.08306 4929.7307 864.21543 4944.916 874.31445 C 4956.4719 885.52126 4961.8958 890.63694 4967.7168 892.81836 C 4972.8784 894.75698 4978.324 885.82069 4989.7715 877.00586 C 5007.6474 869.82994 5010.7573 847.30357 5023.9766 835.3418 C 5036.5097 813.75143 5048.9324 794.72588 5063.7598 772.50195 C 5075.2684 766.45088 5088.7083 731.82526 5066.1484 740.75391 C 5051.9774 751.81845 5038.4093 764.66527 5026.5234 779.19922 C 5015.3883 793.8944 5006.0505 810.67055 4993.209 823.40625 C 4964.7073 802.00557 4945.5213 767.04243 4917.5625 744.95508 C 4894.2985 720.88358 4887.1963 720.59433 4895.0371 705.33008 C 4899.8061 683.78713 4916.9363 668.3952 4931.3633 655.9668 C 4956.7909 627.98392 4985.6467 604.74742 5009.9219 575.21289 C 5022.8951 566.27286 5041.6192 542.65073 5025.75 526.32422 C 5006.508 516.88531 4995.6511 493.2025 4976.5977 483.16797 C 4959.5393 470.1667 4943.8942 455.02794 4928.0469 440.09375 z M 4420.875 443.81836 C 4389.4567 498.71238 4366.158 477.60067 4389.457 498.71094 C 4409.4686 521.82071 4408.7762 553.78998 4408.9688 584.84961 C 4409.4999 643.44635 4402.8222 701.78946 4402.1152 760.30273 C 4399.591 787.51548 4360.838 798.66073 4371.0195 826.01953 C 4398.1651 842.03495 4409.9608 886.2598 4439.3105 893.24414 C 4462.1037 880.09113 4467.753 846.67902 4486.332 826.95898 C 4497.9288 818.68666 4519.053 774.31425 4492.5977 784.38672 C 4485.5027 807.60651 4451.6074 829.54106 4453.0879 789.75195 C 4457.6108 734.83517 4450.2224 678.89843 4457.7695 624.02148 C 4458.8508 598.68666 4457.9922 556.12361 4457.4668 530.7793 C 4456.1181 507.42103 4481.1972 520.50819 4483.4277 483.62891 C 4465.4506 476.02808 4443.2797 451.81192 4423.5039 445.86328 L 4420.875 443.82227 L 4420.875 443.81836 z M 3978.4961 445.15234 C 3961.4393 463.28469 3937.7786 466.15773 3917.3906 476.02344 C 3901.0252 492.45996 3910.4472 521.22197 3907.6191 543.33398 C 3907.069 610.02664 3908.0746 676.78958 3905.3848 743.41016 C 3908.3633 773.02625 3934.1132 786.14834 3948.248 807.42383 C 3965.1303 830.33443 3981.2134 854.1679 3999.6758 875.3125 C 4008.9497 897.09066 4029.5622 905.96375 4046.7051 889.98438 C 4073.6906 871.27158 4101.4063 853.07387 4125.2832 828.88477 C 4132.2823 823.08219 4153.8025 802.31762 4134.9219 799.5918 C 4113.0631 808.82584 4084.4169 830.45701 4059.7109 847.18945 C 4036.5767 819.90084 4047.7614 835.55786 4039.9648 820.9082 C 4028.402 807.01351 4012.613 797.04894 4005.9102 778.27734 C 3991.8364 760.37832 3969.9662 744.65188 3959.293 723.62109 C 3961.9052 615.06035 3961.4582 628.61923 3960.457 564.6543 C 3957.9833 550.3347 3954.387 535.51679 3957.1426 520.86523 C 3980.1909 533.10964 3980.769 536.09887 4001.5547 554.05859 C 4019.176 569.04969 4032.9648 583.9001 4033.5566 586.52539 C 4034.8427 592.23692 4030.4064 592.75308 4024.2305 598.6543 C 4028.0889 616.52866 4049.0394 591.6842 4058.8086 589.46484 C 4074.0664 584.86869 4098.257 568.17778 4085.7266 546.43945 C 4068.3843 533.20297 4055.542 518.29503 4038.4004 498.79883 C 4015.4564 480.21313 4001.4767 467.1164 3978.4961 445.15234 z M 3702.1855 517.39258 C 3702.5307 517.37483 3702.8867 517.43442 3703.2461 517.58984 C 3723.1881 529.8665 3740.906 545.80463 3760.6621 559.43945 C 3787.5971 581.00137 3763.3961 584.81163 3742.8438 611.00195 C 3726.3353 622.47053 3713.3946 638.81111 3701.1387 655.89258 C 3695.1523 658.65445 3698.488 633.43642 3696.6797 623.12305 C 3697.7382 588.99994 3695.1171 554.45927 3698.7559 520.60742 C 3699.3847 519.00918 3700.6897 517.46951 3702.1855 517.39258 z M 4905.4609 521.33398 C 4905.8061 521.3168 4906.162 521.37547 4906.5215 521.52734 C 4926.4635 533.51188 4944.1814 549.07637 4963.9375 562.39062 C 4990.8725 583.44228 4966.6715 587.16819 4946.1191 612.73633 C 4929.6107 623.93934 4916.67 639.89093 4904.4141 656.56836 C 4898.4277 659.26573 4901.7634 634.6429 4899.9551 624.57422 C 4901.0135 591.2554 4898.3925 557.52396 4902.0312 524.4707 C 4902.6601 522.91099 4903.9651 521.40846 4905.4609 521.33398 z M 5153.7461 529.23242 C 5137.9075 531.14069 5128.8248 546.37294 5114.8965 552.49609 C 5106.3446 561.38491 5076.8785 578.37287 5092.0762 585.87695 C 5103.2617 591.40069 5105.2456 567.10576 5128.082 579.83008 C 5145.0658 591.7008 5165.7695 593.1874 5184.5293 600.29883 C 5202.975 607.71566 5222.7843 620.95259 5242.9668 611.05273 C 5259.0867 607.08065 5263.4316 589.21252 5277.3691 582.2168 C 5287.0822 579.66169 5307.4031 558.00117 5289.0156 556.78906 C 5277.1409 561.08741 5268.0693 578.66806 5253.7266 568.32812 C 5241.5377 559.53985 5227.6368 555.11913 5214.623 549.7168 C 5198.8337 549.90649 5183.0421 547.85837 5169.9043 538.33789 C 5164.4322 535.46411 5158.9532 532.58043 5153.7461 529.23242 z M 3288.002 557.71289 C 3310.3234 568.42461 3321.3364 589.28677 3334.6934 606.33789 C 3342.6146 628.85394 3337.2477 641.55601 3337.5781 666.10742 C 3341.5102 704.05655 3343.3926 740.65029 3339.1055 780.89844 C 3325.0254 796.11147 3313.862 808.66831 3298.0488 829.89258 C 3282.6668 845.97439 3253.35 822.24127 3238.7852 812.13086 C 3233.0044 793.89229 3229.1897 773.74233 3230.4355 756.0918 C 3226.7459 736.72268 3232.499 715.77779 3227.8789 696.0293 C 3226.7161 675.86159 3234.6518 656.28188 3229.8984 635.88086 C 3227.3395 616.59521 3235.2284 593.94044 3252.8145 585.08008 C 3265.4007 577.45459 3273.9739 561.94295 3288.002 557.71289 z M 2918.9375 571.60938 C 2901.1081 578.28831 2880.9367 589.90127 2875.9746 595.46484 C 2880.7749 606.04189 2895.8908 639.42382 2912.4199 652.07227 C 2941.3518 637.8532 2917.6508 647.67219 2963.8516 624.69141 C 2948.8423 607.38231 2933.8537 586.42217 2918.9375 571.60938 z M 2028.2031 575.94922 C 2054.823 600.52149 2024.3684 638.78013 2030.6602 669.70508 C 2030.6146 687.07677 2032.5446 747.39295 2013.75 705.63867 C 2000.5055 675.8822 1974.047 648.04835 1969.8535 617.46484 C 1979.4832 587.55093 2001.9717 582.55418 2028.2031 575.94922 z "
           transform="matrix(0.05271795,0,0,0.05271795,-52.717949,1004.9621)"
           id="path4148" />
      </g>
    </g>
  </g>
</svg>
